<?xml version="1.0" encoding="UTF-8"?>
<svg height="16px" viewBox="0 0 16 16" width="16px" xmlns="http://www.w3.org/2000/svg">
    <g fill="#222222">
        <path d="m 7.5 3 c -3.578125 0 -6.5 2.921875 -6.5 6.5 c 0 1.6875 0.65625 3.222656 1.714844 4.382812 l -0.414063 0.398438 c -0.261719 0.25 -0.367187 0.621094 -0.28125 0.96875 c 0.085938 0.351562 0.355469 0.628906 0.703125 0.722656 c 0.347656 0.097656 0.71875 0 0.972656 -0.253906 l 0.59375 -0.578125 c 0.949219 0.542969 2.042969 0.859375 3.210938 0.859375 c 1.183594 0 2.296875 -0.324219 3.253906 -0.886719 l 0.503906 0.558594 c 0.238282 0.277344 0.605469 0.402344 0.964844 0.328125 c 0.355469 -0.074219 0.644532 -0.335938 0.75 -0.683594 c 0.109375 -0.347656 0.019532 -0.726562 -0.234375 -0.988281 l -0.429687 -0.476563 c 1.046875 -1.15625 1.691406 -2.679687 1.691406 -4.351562 c 0 -3.578125 -2.921875 -6.5 -6.5 -6.5 z m 0 2 c 2.496094 0 4.5 2.003906 4.5 4.5 s -2.003906 4.5 -4.5 4.5 s -4.5 -2.003906 -4.5 -4.5 s 2.003906 -4.5 4.5 -4.5 z m -0.007812 0.992188 c -0.277344 0.003906 -0.496094 0.230468 -0.492188 0.507812 v 2.5 h -1.5 c -0.179688 -0.003906 -0.347656 0.09375 -0.4375 0.246094 c -0.09375 0.15625 -0.09375 0.351562 0 0.507812 c 0.089844 0.152344 0.257812 0.25 0.4375 0.246094 h 2 c 0.277344 0 0.5 -0.222656 0.5 -0.5 v -3 c 0 -0.136719 -0.050781 -0.265625 -0.148438 -0.363281 c -0.09375 -0.09375 -0.222656 -0.148438 -0.359374 -0.144531 z m 0 0"/>
        <path d="m 2.109375 1.421875 c -1.148437 0.765625 -1.457031 2.320313 -0.6875 3.46875 l 4.15625 -2.78125 c -0.765625 -1.144531 -2.320313 -1.457031 -3.46875 -0.6875 z m 0 0"/>
        <path d="m 12.890625 1.421875 c 1.144531 0.765625 1.453125 2.320313 0.6875 3.46875 l -4.15625 -2.78125 c 0.765625 -1.144531 2.320313 -1.457031 3.46875 -0.6875 z m 0 0"/>
    </g>
</svg>
