<?xml version="1.0" encoding="UTF-8"?>
<svg height="16px" viewBox="0 0 16 16" width="16px" xmlns="http://www.w3.org/2000/svg">
    <g fill="#222222">
        <path d="m 9.453125 0.0625 c -0.414063 -0.0117188 -0.820313 0.140625 -1.125 0.421875 l -0.324219 0.289063 l -0.320312 -0.289063 c -1.597656 -1.46875 -3.773438 0.976563 -2.128906 2.390625 l 2.449218 2.183594 l 2.453125 -2.183594 c 1.105469 -0.953125 0.460938 -2.773438 -1.003906 -2.8125 z m 0 0"/>
        <path d="m 10.511719 5.015625 c -0.449219 0 -0.886719 0.054687 -1.304688 0.15625 c 0.40625 0.285156 0.789063 0.613281 1.128907 0.988281 c 0.253906 0.28125 0.472656 0.578125 0.671874 0.890625 c 1.707032 0.238281 3.003907 1.6875 3.003907 3.464844 c 0 1.945313 -1.554688 3.5 -3.5 3.5 c -1.945313 0 -3.5 -1.554687 -3.5 -3.5 c 0 -0.589844 0.144531 -1.140625 0.394531 -1.625 c -0.011719 -0.019531 -0.023438 -0.035156 -0.039062 -0.050781 c -0.457032 -0.503906 -1.085938 -0.796875 -1.75 -0.824219 c -0.386719 0.75 -0.605469 1.601563 -0.605469 2.5 c 0 3.027344 2.472656 5.5 5.5 5.5 c 3.027343 0 5.5 -2.472656 5.5 -5.5 s -2.472657 -5.5 -5.5 -5.5 z m 0 0"/>
        <path d="m 5.511719 16.015625 c 0.449219 0 0.886719 -0.054687 1.304687 -0.15625 c -0.410156 -0.285156 -0.789062 -0.613281 -1.128906 -0.988281 c -0.253906 -0.277344 -0.476562 -0.578125 -0.671875 -0.890625 c -1.707031 -0.238281 -3.003906 -1.6875 -3.003906 -3.464844 c 0 -1.945313 1.554687 -3.5 3.5 -3.5 c 1.945312 0 3.5 1.554687 3.5 3.5 c 0 0.589844 -0.144531 1.140625 -0.398438 1.628906 c 0.015625 0.015625 0.027344 0.03125 0.042969 0.046875 c 0.457031 0.503906 1.085938 0.796875 1.75 0.824219 c 0.386719 -0.75 0.605469 -1.601563 0.605469 -2.5 c 0 -3.027344 -2.472657 -5.5 -5.5 -5.5 c -3.027344 0 -5.5000002 2.472656 -5.5000002 5.5 s 2.4726562 5.5 5.5000002 5.5 z m 0 0"/>
    </g>
</svg>
