<?xml version="1.0" encoding="UTF-8"?>
<svg height="16px" viewBox="0 0 16 16" width="16px" xmlns="http://www.w3.org/2000/svg">
    <path d="m 8.019531 4.996094 c -0.550781 0 -1 0.449218 -1 1 v 2 h -1 c -0.550781 0 -1 0.449218 -1 1 c 0 0.550781 0.449219 1 1 1 h 2 c 0.550781 0 1 -0.449219 1 -1 v -3 c 0 -0.550782 -0.449219 -1 -1 -1 z m 0 0" fill="#222222"/>
    <path d="m 8.019531 0.015625 v 2 c 2.566407 0 4.839844 1.625 5.664063 4.054687 c 0.828125 2.433594 0.015625 5.109376 -2.023438 6.671876 c -2.035156 1.5625 -4.832031 1.65625 -6.964844 0.230468 c -2.132812 -1.429687 -3.121093 -4.046875 -2.457031 -6.527344 l -1.929687 -0.515624 c -0.882813 3.300781 0.433594 6.804687 3.273437 8.703124 c 2.84375 1.898438 6.585938 1.773438 9.296875 -0.304687 c 2.710938 -2.078125 3.796875 -5.664063 2.699219 -8.898437 c -1.097656 -3.234376 -4.144531 -5.414063 -7.558594 -5.414063 z m 0 0" fill="#222222"/>
    <path d="m 6.265625 0.210938 l -0.089844 0.015624 l -0.253906 0.066407 l -0.25 0.070312 l -0.246094 0.082031 l -0.246093 0.089844 l -0.242188 0.09375 l -0.234375 0.105469 l -0.234375 0.113281 l -0.230469 0.117188 l -0.109375 0.0625 l 0.976563 1.742187 l 0.078125 -0.042969 l 0.175781 -0.089843 l 0.171875 -0.082031 l 0.179688 -0.078126 l 0.179687 -0.074218 l 0.183594 -0.0625 l 0.1875 -0.0625 l 0.1875 -0.054688 l 0.1875 -0.046875 l 0.058593 -0.011719 z m -3.949219 2.199218 l -0.121094 0.128906 l -0.175781 0.191407 l -0.167969 0.199219 l -0.164062 0.203124 l -0.15625 0.214844 l -0.148438 0.214844 l -0.144531 0.222656 l -0.136719 0.226563 l -0.121093 0.21875 l 1.75 0.96875 l 0.105469 -0.1875 l 0.101562 -0.171875 l 0.105469 -0.167969 l 0.113281 -0.160156 l 0.117188 -0.160157 l 0.125 -0.152343 l 0.125 -0.148438 l 0.132812 -0.148437 l 0.097656 -0.101563 z m 0 0"/>
</svg>
