<?xml version="1.0" encoding="UTF-8"?>
<svg height="16px" viewBox="0 0 16 16" width="16px" xmlns="http://www.w3.org/2000/svg">
    <g fill="#222222">
        <path d="m 4.023438 5.015625 c -1.660157 0 -3.027344 1.371094 -3.027344 3.03125 l 0.003906 1.988281 v 2.976563 c 0 1.660156 1.367188 3.03125 3.027344 3.03125 h 7.945312 c 1.660156 0 3.027344 -1.371094 3.027344 -3.03125 v -4.964844 c 0 -1.660156 -1.367188 -3.03125 -3.027344 -3.03125 z m -0.023438 2.007813 h 8 c 0.554688 0 1 0.445312 1 1 c 0 0.554687 -0.445312 1 -1 1 h -8 c -0.554688 0 -1 -0.445313 -1 -1 c 0 -0.554688 0.445312 -1 1 -1 z m -1 2.730468 c 0.292969 0.171875 0.632812 0.269532 1 0.269532 h 8 c 0.367188 0 0.707031 -0.097657 1 -0.269532 v 3.257813 c 0 0.585937 -0.4375 1.03125 -1.027344 1.03125 h -7.945312 c -0.585938 0 -1.027344 -0.445313 -1.027344 -1.03125 z m 0 0"/>
        <path d="m 7 6.023438 h 2 v 6.988281 l -2 -0.988281 z m 0 0"/>
        <path d="m 5.011719 4.007812 l 1.988281 0.015626 v 2 h 2 v -2 l 2.011719 -0.015626 v -1 h -0.003907 c 0 -0.261718 -0.101562 -0.515624 -0.289062 -0.707031 l -2 -2 c -0.390625 -0.3867185 -1.023438 -0.3867185 -1.414062 0 l -2 2 c -0.183594 0.191407 -0.289063 0.445313 -0.285157 0.707031 h -0.007812 z m 0 0"/>
    </g>
</svg>
