<?xml version="1.0" encoding="UTF-8"?>
<svg height="16px" viewBox="0 0 16 16" width="16px" xmlns="http://www.w3.org/2000/svg">
    <path d="m 8.589844 16 c 0.617187 -0.007812 1.238281 -0.089844 1.851562 -0.253906 c 3.273438 -0.878906 5.558594 -3.855469 5.558594 -7.246094 s -2.285156 -6.367188 -5.558594 -7.242188 c -3.273437 -0.878906 -6.742187 0.558594 -8.4375 3.492188 c -0.277344 0.480469 -0.109375 1.089844 0.367188 1.367188 c 0.476562 0.273437 1.089844 0.109374 1.363281 -0.367188 c 1.25 -2.160156 3.78125 -3.207031 6.1875 -2.5625 c 2.410156 0.644531 4.078125 2.820312 4.078125 5.3125 c 0 2.496094 -1.667969 4.667969 -4.078125 5.3125 c -2.40625 0.644531 -4.9375 -0.402344 -6.1875 -2.5625 c -0.054687 -0.085938 -0.121094 -0.164062 -0.199219 -0.226562 l 0.015625 -0.015626 l 0.011719 -0.007812 h 1.4375 c 0.550781 0 1 -0.449219 1 -1 c 0 0 0 -1 -1 -1 h -5 v 5 s -0.00390625 1 1 1 c 0.550781 0 1 -0.449219 1 -1 v -1.6875 l 0.011719 -0.011719 l 0.015625 -0.011719 c 1.273437 2.179688 3.53125 3.519532 5.953125 3.691407 c 0.203125 0.015625 0.40625 0.019531 0.609375 0.019531 z m 0 0" fill="#222222"/>
</svg>
