<?xml version="1.0" encoding="UTF-8"?>
<svg height="16px" viewBox="0 0 16 16" width="16px" xmlns="http://www.w3.org/2000/svg">
    <path d="m 14 11.015625 c -0.003906 0.261719 -0.113281 0.515625 -0.304688 0.703125 l -3 2.917969 c -0.386718 0.375 -1.003906 0.375 -1.394531 0 l -3 -2.917969 c -0.394531 -0.386719 -0.402343 -1.019531 -0.019531 -1.414062 c 0.386719 -0.398438 1.019531 -0.40625 1.414062 -0.019532 l 1.304688 1.265625 v -4.550781 c 0 -1.527344 -1.441406 -2.996094 -3 -3 h -4 c -0.550781 0 -1 -0.449219 -1 -1 s 0.449219 -1 1 -1 h 4 c 2.683594 0.003906 5 2.347656 5 5 v 4.550781 l 1.300781 -1.265625 c 0.398438 -0.386718 1.03125 -0.378906 1.414063 0.019532 c 0.1875 0.1875 0.289062 0.445312 0.285156 0.710937 z m 0 0" fill="#222222" fill-rule="evenodd"/>
</svg>
