<?xml version="1.0" encoding="UTF-8"?>
<svg height="16px" viewBox="0 0 16 16" width="16px" xmlns="http://www.w3.org/2000/svg">
    <path d="m 7.125 1 c -2.761719 -0.0625 -5.054688 2.125 -5.121094 4.890625 c -0.003906 0.03125 -0.003906 0.0625 -0.003906 0.097656 v 0.007813 c 0.003906 0.550781 0.449219 0.992187 1 0.992187 s 0.996094 -0.441406 1 -0.992187 v -0.007813 c 0 -1.476562 1.074219 -2.730469 2.535156 -2.953125 c 1.460938 -0.234375 2.871094 0.632813 3.320313 2.042969 c 0.457031 1.40625 -0.179688 2.933594 -1.503907 3.597656 l 0.074219 -0.035156 c -1.039062 0.421875 -1.628906 1.25 -1.921875 1.941406 c -0.292968 0.695313 -0.421875 1.246094 -0.644531 1.59375 c -0.355469 0.558594 -0.863281 0.683594 -1.246094 0.609375 c -0.378906 -0.074218 -0.613281 -0.21875 -0.613281 -0.789062 v -1 c 0 -0.003906 0 -0.003906 0 -0.007813 c 0 -0.550781 -0.449219 -1 -1 -1 s -1 0.449219 -1 1 v 0.007813 v 1 c 0 1.429687 1.054688 2.527344 2.238281 2.753906 c 1.183594 0.226562 2.53125 -0.289062 3.304688 -1.496094 c 0.476562 -0.742187 0.613281 -1.441406 0.800781 -1.890625 c 0.191406 -0.453125 0.300781 -0.652343 0.835938 -0.871093 l 0.035156 -0.015626 l 0.039062 -0.019531 c 2.195313 -1.109375 3.253906 -3.652343 2.503906 -5.996093 c -0.652343 -2.015626 -2.507812 -3.40625 -4.632812 -3.464844 z m 5.757812 0.175781 c -0.199218 -0.003906 -0.390624 0.054688 -0.558593 0.160157 c -0.460938 0.300781 -0.59375 0.921874 -0.292969 1.386718 c 1.292969 1.988282 1.292969 4.542969 0 6.53125 c -0.300781 0.464844 -0.167969 1.085938 0.292969 1.386719 c 0.464843 0.296875 1.082031 0.167969 1.382812 -0.292969 c 1.722657 -2.648437 1.722657 -6.070312 0 -8.71875 c -0.179687 -0.277344 -0.492187 -0.449218 -0.824219 -0.453125 z m -5.882812 2.820313 c -1.105469 0 -2 0.894531 -2 2 c 0 1.105468 0.894531 2 2 2 s 2 -0.894532 2 -2 c 0 -1.105469 -0.894531 -2 -2 -2 z m 0 0" fill="#222222"/>
</svg>
