<?xml version="1.0" encoding="UTF-8"?>
<svg height="16px" viewBox="0 0 16 16" width="16px" xmlns="http://www.w3.org/2000/svg">
    <g fill="#222222">
        <path d="m 10.707031 1.144531 c -1.488281 -1.488281 -3.925781 -1.488281 -5.414062 0 l -4.140625 4.140625 c -1.488282 1.488282 -1.488282 3.925782 0 5.414063 l 4.140625 4.140625 c 1.488281 1.488281 3.925781 1.488281 5.414062 0 l 4.140625 -4.140625 c 1.488282 -1.488281 1.488282 -3.925781 0 -5.414063 z m -1.414062 1.414063 l 4.140625 4.140625 c 0.726562 0.730469 0.726562 1.855469 0 2.585937 l -4.140625 4.140625 c -0.730469 0.726563 -1.855469 0.726563 -2.585938 0 l -4.140625 -4.140625 c -0.726562 -0.730468 -0.726562 -1.855468 0 -2.585937 l 4.140625 -4.140625 c 0.730469 -0.726563 1.855469 -0.726563 2.585938 0 z m 0 0"/>
        <g fill-rule="evenodd">
            <path d="m 4 7.992188 c -0.273438 0 -0.5 0.222656 -0.5 0.5 c 0 0.582031 0.386719 1.082031 0.914062 1.328124 c 0.53125 0.242188 1.144532 0.242188 1.671876 0 c 0.527343 -0.246093 0.914062 -0.746093 0.914062 -1.328124 c 0 -0.277344 -0.222656 -0.5 -0.5 -0.5 s -0.5 0.222656 -0.5 0.5 c 0 0.136718 -0.089844 0.304687 -0.335938 0.417968 c -0.242187 0.113282 -0.582031 0.113282 -0.828124 0 c -0.242188 -0.113281 -0.335938 -0.28125 -0.335938 -0.417968 c 0 -0.277344 -0.222656 -0.5 -0.5 -0.5 z m 0 0"/>
            <path d="m 9.484375 7.992188 c -0.273437 0 -0.5 0.222656 -0.5 0.5 c 0 0.582031 0.386719 1.082031 0.914063 1.328124 c 0.53125 0.242188 1.140624 0.242188 1.671874 0 c 0.527344 -0.246093 0.914063 -0.746093 0.914063 -1.328124 c 0 -0.277344 -0.226563 -0.5 -0.5 -0.5 c -0.277344 0 -0.5 0.222656 -0.5 0.5 c 0 0.136718 -0.089844 0.304687 -0.335937 0.417968 c -0.242188 0.113282 -0.582032 0.113282 -0.828126 0 c -0.242187 -0.113281 -0.335937 -0.28125 -0.335937 -0.417968 c 0 -0.277344 -0.222656 -0.5 -0.5 -0.5 z m 0 0"/>
        </g>
    </g>
</svg>
