<?xml version="1.0" encoding="UTF-8"?>
<svg height="16px" viewBox="0 0 16 16" width="16px" xmlns="http://www.w3.org/2000/svg">
    <g fill="#222222">
        <path d="m 7.011719 4.015625 v 3 h -4 s -2 0 -2 2 v 2 l 3.5 1 l 3.5 -1 l 3.5 1 l 3.5 -1 v -2 c 0 -2 -2 -2 -2 -2 h -4 v -3 z m -6 8 v 4 h 14 v -4 l -3.5 1 l -3.5 -1 l -3.5 1 z m 0 0"/>
        <path d="m 8.011719 0.523438 s -1.058594 0.898437 -0.996094 1.496093 c 0.042969 0.464844 0.527344 0.996094 0.996094 0.996094 s 0.949219 -0.53125 0.996093 -0.996094 c 0.058594 -0.597656 -0.996093 -1.496093 -0.996093 -1.496093 z m 0 0"/>
    </g>
</svg>
