<?xml version="1.0" encoding="UTF-8"?>
<svg height="16px" viewBox="0 0 16 16" width="16px" xmlns="http://www.w3.org/2000/svg">
    <g fill="#2e3436">
        <path d="m 4.96875 0.0078125 c -1.332031 0 -2.277344 0.8124995 -2.644531 1.5507815 c -0.371094 0.742187 -0.355469 1.449218 -0.355469 1.449218 l 0.027344 12.46875 l 4.738281 -1.894531 c -0.464844 -0.367187 -0.765625 -0.933593 -0.765625 -1.574219 v -0.269531 l -1.980469 0.789063 l -0.011719 -6.46875 c -0.003906 -0.027344 -0.003906 -0.058594 -0.007812 -0.085938 c 0 -0.027344 0.003906 -0.054687 0.003906 -0.082031 l -0.003906 -2.886719 c -0.007812 -0.648437 0.398438 -0.996094 1 -0.996094 h 6 c 0.695312 0.011719 1.003906 0.367188 1 1 l 0.019531 9.519532 l -2.019531 -0.808594 v 0.289062 c 0 0.632813 -0.292969 1.195313 -0.75 1.5625 l 4.777344 1.910157 l -0.027344 -12.476563 c 0 -0.003906 0.011719 -0.707031 -0.355469 -1.441406 c -0.371093 -0.742188 -1.3125 -1.5546875 -2.644531 -1.5546875 z m 0 0" fill-opacity="0.34902"/>
        <path d="m 8.117188 3.015625 c -0.433594 -0.023437 -0.878907 0.046875 -1.300782 0.222656 c -1.117187 0.460938 -1.851562 1.558594 -1.851562 2.769531 h 2 c 0 -0.40625 0.242187 -0.765624 0.617187 -0.921874 c 0.378907 -0.15625 0.804688 -0.074219 1.089844 0.214843 c 0.289063 0.289063 0.375 0.714844 0.21875 1.089844 c -0.15625 0.378906 -0.515625 0.617187 -0.925781 0.617187 c -0.550782 0 -1 0.449219 -1 1 v 2 h 2 v -1.179687 c 0.789062 -0.277344 1.441406 -0.875 1.773437 -1.671875 c 0.460938 -1.117188 0.207031 -2.414062 -0.652343 -3.269531 c -0.535157 -0.535157 -1.238282 -0.835938 -1.96875 -0.871094 z m -0.152344 7.992187 c -0.550782 0 -1 0.449219 -1 1 c 0 0.554688 0.449218 1 1 1 c 0.554687 0 1 -0.445312 1 -1 c 0 -0.550781 -0.445313 -1 -1 -1 z m 0 0"/>
    </g>
</svg>
