<?xml version="1.0" encoding="UTF-8"?>
<svg height="16px" viewBox="0 0 16 16" width="16px" xmlns="http://www.w3.org/2000/svg">
    <path d="m 3.5 1.003906 c -1.921875 0 -3.5 1.578125 -3.5 3.5 c 0 1.347656 0.871094 2.363282 2 2.949219 v 5.550781 c 0 1.089844 0.910156 2 2 2 h 8 c 1.089844 0 2 -0.910156 2 -2 v -5.550781 c 1.125 -0.585937 2 -1.601563 2 -2.949219 c 0 -1.921875 -1.578125 -3.5 -3.5 -3.5 h -4.5 s -0.667969 0 -1 0 s -1 0 -1 0 z m 0 2 h 7 c 0.847656 0 1.5 0.652344 1.5 1.5 c 0 0.742188 -0.511719 1.332032 -1.199219 1.46875 c -0.464843 0.097656 -0.800781 0.507813 -0.800781 0.980469 v 6.050781 h -6 v -6.050781 c 0 -0.472656 -0.335938 -0.882813 -0.804688 -0.980469 c -0.683593 -0.136718 -1.195312 -0.726562 -1.195312 -1.46875 c 0 -0.847656 0.652344 -1.5 1.5 -1.5 z m 4.96875 3 c -0.042969 0.003906 -0.085938 0.011719 -0.128906 0.027344 l -3 1 c -0.261719 0.085938 -0.402344 0.367188 -0.316406 0.632812 c 0.089843 0.261719 0.371093 0.402344 0.632812 0.316407 l 3 -1 c 0.265625 -0.089844 0.40625 -0.371094 0.316406 -0.632813 c -0.070312 -0.21875 -0.277344 -0.355468 -0.503906 -0.34375 z m 0 2 c -0.042969 0.003906 -0.085938 0.011719 -0.128906 0.027344 l -3 1 c -0.261719 0.085938 -0.402344 0.367188 -0.316406 0.632812 c 0.089843 0.261719 0.371093 0.402344 0.632812 0.316407 l 3 -1 c 0.265625 -0.089844 0.40625 -0.371094 0.316406 -0.632813 c -0.070312 -0.21875 -0.277344 -0.355468 -0.503906 -0.34375 z m 0 2 c -0.042969 0.003906 -0.085938 0.011719 -0.128906 0.027344 l -3 1 c -0.261719 0.085938 -0.402344 0.367188 -0.316406 0.632812 c 0.089843 0.261719 0.371093 0.402344 0.632812 0.316407 l 3 -1 c 0.265625 -0.089844 0.40625 -0.371094 0.316406 -0.632813 c -0.070312 -0.21875 -0.277344 -0.355468 -0.503906 -0.34375 z m 0 0" fill="#222222"/>
</svg>
