<?xml version="1.0" encoding="UTF-8"?>
<svg height="16px" viewBox="0 0 16 16" width="16px" xmlns="http://www.w3.org/2000/svg">
    <path d="m 6.019531 -0.00390625 c -1.109375 0 -2 0.89062525 -2 2.00000025 v 2 h -2 c -1.109375 0 -1.9999998 0.890625 -1.9999998 2 v 7 c 0 1.109375 0.8906248 2 1.9999998 2 h 12 c 1.105469 0 2 -0.890625 2 -2 v -7 c 0 -1.109375 -0.894531 -2 -2 -2 h -2 v -2 c 0 -1.109375 -0.894531 -2.00000025 -2 -2.00000025 z m 0 2.00000025 h 4 v 2 h -4 z m -4 4 h 2 v 7 h -2 z m 4 0 h 4 v 7 h -4 z m 6 0 h 2 v 7 h -2 z m 0 0" fill="#222222"/>
</svg>
