<?xml version="1.0" encoding="UTF-8"?>
<svg height="16px" viewBox="0 0 16 16" width="16px" xmlns="http://www.w3.org/2000/svg">
    <g fill="#222222">
        <path d="m 4.441406 13.988281 c -0.28125 0 -0.492187 -0.210937 -0.492187 -0.492187 c 0 -0.285156 0.210937 -0.496094 0.492187 -0.496094 c 0.285156 0 0.496094 0.210938 0.496094 0.496094 c 0 0.28125 -0.210938 0.492187 -0.496094 0.492187 z m 0 -2.988281 c -1.375 0 -2.492187 1.117188 -2.492187 2.496094 c 0 1.375 1.117187 2.492187 2.492187 2.492187 c 1.378906 0 2.496094 -1.117187 2.496094 -2.492187 c 0 -1.378906 -1.117188 -2.496094 -2.496094 -2.496094 z m 0 0"/>
        <path d="m 2.722656 12.496094 c -0.417968 0 -0.734375 -0.320313 -0.734375 -0.738282 v -4.371093 c 0 -0.222657 0.160157 -0.378907 0.382813 -0.378907 h 11.246094 c 0.222656 0 0.382812 0.15625 0.382812 0.378907 v 4.148437 c 0 0.542969 -0.417969 0.960938 -0.957031 0.960938 c -0.554688 0 -1 0.449218 -1 1 c 0 0.550781 0.449219 1 1 1 c 1.636719 -0.003906 2.960937 -1.328125 2.957031 -2.960938 v -4.148437 c 0 -1.3125 -1.066406 -2.378907 -2.378906 -2.378907 h -11.25 c -1.3125 0 -2.3828128 1.066407 -2.3828128 2.378907 v 4.367187 c 0 1.511719 1.2187498 2.738282 2.7304688 2.742188 c 0.550781 0 1 -0.445313 1 -1 c 0.003906 -0.550782 -0.445312 -1 -0.996094 -1 z m 0 0"/>
        <path d="m 11.515625 13.988281 c -0.285156 0 -0.492187 -0.210937 -0.492187 -0.492187 c 0 -0.285156 0.207031 -0.496094 0.492187 -0.496094 s 0.496094 0.210938 0.496094 0.496094 c 0 0.28125 -0.210938 0.492187 -0.496094 0.492187 z m 0 -2.988281 c -1.375 0 -2.492187 1.117188 -2.492187 2.496094 c 0 1.375 1.117187 2.492187 2.492187 2.492187 s 2.496094 -1.117187 2.496094 -2.492187 c 0 -1.378906 -1.121094 -2.496094 -2.496094 -2.496094 z m 0 0"/>
        <path d="m 2 9.96875 v -7.109375 c 0 -0.488281 0.371094 -0.859375 0.859375 -0.859375 h 8.59375 c 0.6875 0 1.289063 0.429688 1.511719 1.082031 l 0.507812 1.488281 c 0.363282 1.0625 0.546875 2.175782 0.546875 3.296876 v 1.054687 c 0 0.554687 0.449219 1 1 1 c 0.554688 0 1 -0.445313 1 -1 v -1.054687 c 0 -1.34375 -0.21875 -2.671876 -0.652343 -3.941407 l -0.507813 -1.488281 c -0.5 -1.460938 -1.863281 -2.4375 -3.40625 -2.4375 h -8.59375 c -1.582031 0 -2.859375 1.28125 -2.859375 2.859375 v 7.109375 c 0 0.550781 0.445312 1 1 1 c 0.550781 0 1 -0.449219 1 -1 z m 0 0"/>
        <path d="m 4 1 h 1.011719 v 5 h -1.011719 z m 0 0"/>
        <path d="m 7 1 h 1 v 5 h -1 z m 0 0"/>
        <path d="m 10 1 h 1 v 5 h -1 z m 0 0"/>
        <path d="m 6.5 13 h 3 c 0.277344 0 0.5 0.222656 0.5 0.5 s -0.222656 0.5 -0.5 0.5 h -3 c -0.277344 0 -0.5 -0.222656 -0.5 -0.5 s 0.222656 -0.5 0.5 -0.5 z m 0 0"/>
    </g>
</svg>
