<?xml version="1.0" encoding="UTF-8"?>
<svg height="16px" viewBox="0 0 16 16" width="16px" xmlns="http://www.w3.org/2000/svg">
    <path d="m 7.996094 1.003906 c -0.550782 0 -1 0.449219 -1 1 v 3 c 0 0.550782 0.449218 1 1 1 c 0.550781 0 1 -0.449218 1 -1 v -3 c 0 -0.550781 -0.449219 -1 -1 -1 z m -7 2 c -0.265625 0 -0.519532 0.105469 -0.707032 0.292969 c -0.390624 0.390625 -0.390624 1.023437 0 1.414063 l 2 2 c 0.390626 0.390624 1.023438 0.390624 1.414063 0 c 0.390625 -0.390626 0.390625 -1.023438 0 -1.414063 l -2 -2 c -0.1875 -0.1875 -0.441406 -0.292969 -0.707031 -0.292969 z m 14 0 c -0.265625 0 -0.519532 0.105469 -0.707032 0.292969 l -2 2 c -0.390624 0.390625 -0.390624 1.023437 0 1.414063 c 0.390626 0.390624 1.023438 0.390624 1.414063 0 l 2 -2 c 0.390625 -0.390626 0.390625 -1.023438 0 -1.414063 c -0.1875 -0.1875 -0.441406 -0.292969 -0.707031 -0.292969 z m -7 4.992188 c -2.511719 0 -5.027344 0.957031 -6.9375 2.863281 l -0.34375 0.347656 c -0.957032 0.957031 -0.957032 2.511719 0 3.46875 l 1.039062 1.039063 c 0.382813 0.382812 1.003906 0.382812 1.386719 0 l 2.082031 -2.082032 c 0.382813 -0.382812 0.382813 -1 0 -1.386718 l -0.496094 -0.492188 c 2.035157 -1.105468 4.5 -1.105468 6.535157 0 l -0.492188 0.492188 c -0.382812 0.386718 -0.382812 1.003906 0 1.386718 l 1.039063 1.042969 l 1.042968 1.039063 c 0.382813 0.382812 1.003907 0.382812 1.386719 0 l 1.039063 -1.039063 c 0.957031 -0.957031 0.957031 -2.511719 0 -3.46875 l -0.347656 -0.347656 c -1.90625 -1.90625 -4.421876 -2.863281 -6.933594 -2.863281 z m 0 0" fill="#e01b24"/>
</svg>
