<?xml version="1.0" encoding="UTF-8"?>
<svg height="16px" viewBox="0 0 16 16" width="16px" xmlns="http://www.w3.org/2000/svg">
    <path d="m 1.015625 7.992188 h 0.839844 c 0.613281 0.101562 1.167969 -0.378907 1.160156 -1 l -0.019531 -1.574219 l 4 4.03125 v 5.554687 c 0 0.550782 0.449218 1 1 1 c 0.550781 0 1 -0.449218 1 -1 v -6 c 0 -0.449218 -0.457032 -1 -1.019532 -1.40625 l -3.566406 -3.59375 l 1.605469 -0.011718 c 0.625 0.011718 1.105469 -0.550782 1 -1.167969 v -0.832031 l -6.019531 0.011718 z m 7.980469 -5.988282 v 0.832032 c -0.105469 0.617187 0.375 1.175781 1 1.167968 l 1.554687 0.011719 l -2.566406 2.5625 l 1.414063 1.414063 l 2.566406 -2.566407 l 0.03125 1.578125 c -0.007813 0.621094 0.546875 1.097656 1.15625 1 h 0.84375 v -6 z m 0 0" fill="#222222"/>
</svg>
