<?xml version="1.0" encoding="UTF-8"?>
<svg height="16px" viewBox="0 0 16 16" width="16px" xmlns="http://www.w3.org/2000/svg">
    <path d="m 12.976562 -0.0078125 c -0.039062 0 -0.074218 0.00390625 -0.113281 0.0078125 h -4.867187 v 0.832031 c -0.050782 0.292969 0.03125 0.59375 0.226562 0.820313 c 0.191406 0.226562 0.476563 0.351562 0.773438 0.347656 h 1.585937 l -2.585937 2.585938 l -2.292969 -2.292969 c -0.25 -0.261719 -0.625 -0.367188 -0.972656 -0.273438 c -0.351563 0.089844 -0.625 0.363281 -0.714844 0.714844 c -0.09375 0.351563 0.011719 0.722656 0.273437 0.972656 l 3 3 c 0.390626 0.390625 1.023438 0.390625 1.414063 0 l 3.292969 -3.292969 v 1.585938 c -0.003906 0.296875 0.121094 0.578125 0.347656 0.769531 c 0.222656 0.195313 0.519531 0.277344 0.808594 0.230469 h 0.84375 v -4.871094 c 0.011718 -0.09375 0.011718 -0.183594 0 -0.277344 v -0.851562 h -0.855469 c -0.054687 -0.0078125 -0.109375 -0.0117188 -0.164063 -0.0078125 z m 0 0" fill="#222222"/>
    <path d="m 14.238281 15.714844 c -0.386719 0.386718 -1.003906 0.386718 -1.386719 0 l -1.042968 -1.039063 l -1.039063 -1.039062 c -0.382812 -0.386719 -0.382812 -1.003907 0 -1.386719 l 0.492188 -0.496094 c -2.035157 -1.105468 -4.496094 -1.105468 -6.53125 0 l 0.492187 0.496094 c 0.382813 0.382812 0.382813 1 0 1.386719 l -1.042968 1.039062 l -1.039063 1.039063 c -0.382813 0.386718 -1.003906 0.386718 -1.386719 0 l -1.039062 -1.039063 c -0.957032 -0.957031 -0.957032 -2.511719 0 -3.46875 l 0.347656 -0.347656 c 3.816406 -3.816406 10.050781 -3.816406 13.867188 0 l 0.347656 0.347656 c 0.957031 0.957031 0.957031 2.511719 0 3.46875 z m 0 0" fill="#e01b24"/>
</svg>
