<?xml version="1.0" encoding="UTF-8"?>
<svg height="16px" viewBox="0 0 16 16" width="16px" xmlns="http://www.w3.org/2000/svg">
    <path d="m 11 0.00390625 v 2.99999975 h -3 v 2 h 3 v 3 h 2 v -3 h 3 v -2 h -3 v -2.99999975 z m -7.496094 1.99609375 c -1.378906 0 -2.5 1.121094 -2.5 2.5 v 0.5 c 0 5.503906 4.496094 10 10 10 h 0.5 c 1.382813 0 2.5 -1.121094 2.5 -2.5 v -1.5 c 0 -0.554688 -0.445312 -1 -1 -1 h -3 c -0.550781 0 -1 0.445312 -1 1 v 0.710938 c -2.265625 -0.667969 -4.039062 -2.445313 -4.710937 -4.710938 h 0.710937 c 0.554688 0 1 -0.445312 1 -1 v -3 c 0 -0.554688 -0.445312 -1 -1 -1 z m 0 0" fill="#222222"/>
</svg>
