<?xml version="1.0" encoding="UTF-8"?>
<svg height="16px" viewBox="0 0 16 16" width="16px" xmlns="http://www.w3.org/2000/svg">
    <path d="m 2.027344 3.992188 c 0.039062 0 0.074218 0.003906 0.109375 0.007812 h 4.871093 v 0.832031 c 0.105469 0.617188 -0.375 1.179688 -1 1.167969 h -1.585937 l 4.585937 4.585938 l 4.292969 -4.292969 c 0.941407 -0.980469 2.394531 0.472656 1.414063 1.414062 l -5 5 c -0.390625 0.390625 -1.023438 0.390625 -1.414063 0 l -5.292969 -5.292969 v 1.585938 c 0.007813 0.621094 -0.546874 1.097656 -1.160156 1 h -0.839844 v -4.871094 c -0.011718 -0.09375 -0.011718 -0.183594 0 -0.277344 v -0.851562 h 0.851563 c 0.058594 -0.007812 0.113281 -0.011719 0.167969 -0.007812 z m 0 0" fill="#222222"/>
</svg>
