<?xml version="1.0" encoding="UTF-8"?>
<svg height="16px" viewBox="0 0 16 16" width="16px" xmlns="http://www.w3.org/2000/svg">
    <g fill="#222222">
        <path d="m 8 -0.0117188 c -4.417969 0 -8 3.5820308 -8 7.9999998 s 3.582031 8 8 8 s 8 -3.582031 8 -8 s -3.582031 -7.9999998 -8 -7.9999998 z m 0 1.9999998 c 3.3125 0 6 2.6875 6 6 s -2.6875 6 -6 6 s -6 -2.6875 -6 -6 s 2.6875 -6 6 -6 z m 0 0"/>
        <path d="m 7 2.988281 v 0.929688 c -1.464844 0.261719 -2.324219 1.132812 -2.324219 2.433593 c 0 1.1875 0.730469 1.984376 2.042969 2.214844 l 1.777344 0.3125 c 0.808594 0.136719 1.121094 0.355469 1.121094 0.808594 c 0 0.496094 -0.542969 0.785156 -1.453126 0.785156 c -0.933593 0 -1.707031 -0.324218 -2.691406 -1.121094 l -1.105468 1.441407 c 0.742187 0.632812 1.671874 1.066406 2.632812 1.253906 v 0.941406 h 2 v -0.921875 c 1.605469 -0.265625 2.554688 -1.199218 2.554688 -2.574218 c 0 -1.25 -0.816407 -2.042969 -2.375 -2.296876 l -1.675782 -0.277343 c -0.679687 -0.117188 -0.957031 -0.316407 -0.957031 -0.71875 c 0 -0.4375 0.496094 -0.703125 1.304687 -0.703125 c 0.855469 0 1.628907 0.300781 2.480469 0.957031 l 1.050781 -1.464844 c -0.644531 -0.519531 -1.5 -0.890625 -2.382812 -1.054687 v -0.945313 z m 0 0"/>
    </g>
</svg>
