<?xml version="1.0" encoding="UTF-8"?>
<svg height="16px" viewBox="0 0 16 16" width="16px" xmlns="http://www.w3.org/2000/svg">
    <g fill="#222222">
        <path d="m 15.988281 3.5 c 0 -1.921875 -1.574219 -3.5 -3.496093 -3.5 h -9.003907 c -1.917969 0 -3.4999998 1.578125 -3.4999998 3.5 v 9.003906 c 0 1.917969 1.5820308 3.496094 3.4999998 3.496094 h 9.003907 c 1.921874 0 3.496093 -1.578125 3.496093 -3.496094 z m -2 0 v 9.003906 c 0 0.847656 -0.648437 1.496094 -1.496093 1.496094 h -9.003907 c -0.847656 0 -1.5 -0.648438 -1.5 -1.496094 v -9.003906 c 0 -0.847656 0.652344 -1.5 1.5 -1.5 h 9.003907 c 0.847656 0 1.496093 0.652344 1.496093 1.5 z m 0 0"/>
        <path d="m 12.988281 3.5 c 0 0.277344 -0.222656 0.5 -0.5 0.5 h -9 c -0.273437 0 -0.5 -0.222656 -0.5 -0.5 s 0.226563 -0.5 0.5 -0.5 h 9 c 0.277344 0 0.5 0.222656 0.5 0.5 z m 0 0"/>
        <path d="m 12.988281 5.5 c 0 0.277344 -0.222656 0.5 -0.5 0.5 h -9 c -0.273437 0 -0.5 -0.222656 -0.5 -0.5 s 0.226563 -0.5 0.5 -0.5 h 9 c 0.277344 0 0.5 0.222656 0.5 0.5 z m 0 0"/>
        <path d="m 15.003906 9.234375 c 0 -1.242187 -1.015625 -2.261719 -2.261718 -2.261719 h -9.507813 c -1.242187 0 -2.261719 1.019532 -2.261719 2.261719 v 4.023437 c 0 1.242188 1.019532 2.257813 2.261719 2.257813 h 9.507813 c 1.246093 0 2.261718 -1.015625 2.261718 -2.257813 z m -1 0 v 4.023437 c 0 0.707032 -0.554687 1.257813 -1.261718 1.257813 h -9.507813 c -0.707031 0 -1.261719 -0.550781 -1.261719 -1.257813 v -4.023437 c 0 -0.707031 0.554688 -1.261719 1.261719 -1.261719 h 9.507813 c 0.707031 0 1.261718 0.554688 1.261718 1.261719 z m 0 0"/>
        <path d="m 12 10.011719 h 1 v 1 h -1 z m -2 0 h 1 v 1 h -1 z m -2 0 h 1 v 1 h -1 z m -4 0 h 1 v 1 h -1 z m 2 0 h 1 v 1 h -1 z m 0 0" fill-opacity="0.501961"/>
        <path d="m 11.042969 10.992188 h 1 v 1 h -1 z m -2 0 h 1 v 1 h -1 z m -2 0 h 1 v 1 h -1 z m -2 0 h 1 v 1 h -1 z m -2 0 h 1 v 1 h -1 z m 0 0" fill-opacity="0.298039"/>
        <path d="m 11 9.011719 h 1 v 1 h -1 z m -2 0 h 1 v 1 h -1 z m -2 0 h 1 v 1 h -1 z m -2 0 h 1 v 1 h -1 z m -2 0 h 1 v 1 h -1 z m 0 0"/>
    </g>
</svg>
