<?xml version="1.0" encoding="UTF-8"?>
<svg height="16px" viewBox="0 0 16 16" width="16px" xmlns="http://www.w3.org/2000/svg">
    <g fill="#222222">
        <path d="m 2.996094 4 c -0.554688 0 -1 0.03125 -1 0.03125 v 1.96875 h 2 v -1 c 0 -0.554688 -0.445313 -1 -0.996094 -1 z m -2.996094 3 v 0.988281 c 0 0.554688 0.445312 0.996094 1 1 l 6.027344 0.011719 v 1.992188 h 2 v -2.996094 c 0 -0.550782 -0.445313 -0.996094 -1 -0.996094 z m 2 3 v 2.996094 c 0 0.550781 0.445312 0.996094 0.996094 0.996094 c 4.023437 0.007812 8.03125 0 8.03125 0 v -0.988282 c 0 -0.550781 -0.402344 -0.996094 -1 -0.996094 l -6.027344 -0.015624 v -1.992188 z m 5.027344 4.992188 v 0.03125 c 0 0.554687 0.445312 1 0.996094 1 h 0.003906 c 0.554687 0 1 -0.03125 1 -0.03125 v -1 z m 0 0"/>
        <path d="m 14 8 v -3 c 0 -0.550781 -0.449219 -1 -1 -1 c -0.492188 0 -1.085938 0.003906 -1.589844 0.003906 l 0.285156 0.277344 c 0.183594 0.191406 0.3125 0.464844 0.3125 0.71875 v 1 h -1 c -0.3125 0 -0.554687 -0.089844 -0.75 -0.28125 l -2.65625 -2.695312 l 2.65625 -2.742188 c 0.195313 -0.1875 0.4375 -0.28125 0.75 -0.28125 h 1 v 1 c 0 0.257812 -0.132812 0.53125 -0.3125 0.71875 l -0.277343 0.28125 h 1.585937 c 1.652344 0 2.996094 1.34375 2.996094 3 v 2.996094 c 0 0.550781 -0.449219 1 -1 1 c -0.265625 0.003906 -0.519531 -0.101563 -0.707031 -0.289063 s -0.292969 -0.441406 -0.292969 -0.707031 z m 0 0"/>
    </g>
</svg>
