<?xml version="1.0" encoding="UTF-8"?>
<svg height="16px" viewBox="0 0 16 16" width="16px" xmlns="http://www.w3.org/2000/svg">
    <g fill="#222222">
        <path d="m 15 13 h -1 c -0.550781 0 -1 0.445312 -1 1 c 0 0.550781 0.449219 1 1 1 h 1 c 0.550781 0 1 -0.449219 1 -1 c 0 -0.554688 -0.449219 -1 -1 -1 z m -2.753906 -4.664062 l -0.707032 0.707031 c -0.390624 0.390625 -0.390624 1.027343 0 1.414062 c 0.390626 0.390625 1.023438 0.390625 1.414063 0 l 0.707031 -0.707031 c 0.390625 -0.390625 0.390625 -1.023438 0 -1.414062 c -0.390625 -0.390626 -1.023437 -0.390626 -1.414062 0 z m -9.902344 1.40625 l 0.707031 0.707031 c 0.253907 0.253906 0.621094 0.351562 0.964844 0.261719 c 0.347656 -0.09375 0.617187 -0.363282 0.710937 -0.710938 c 0.089844 -0.34375 -0.007812 -0.710938 -0.261718 -0.964844 l -0.707032 -0.707031 c -0.253906 -0.253906 -0.621093 -0.351563 -0.96875 -0.261719 c -0.34375 0.09375 -0.613281 0.363282 -0.707031 0.707032 c -0.089843 0.347656 0.007813 0.714843 0.261719 0.96875 z m -1.347656 5.242187 h 1 c 0.550781 0 1 -0.449219 1 -1 s -0.449219 -1 -1 -1 h -1 c -0.554688 0 -1.00000025 0.449219 -1.00000025 1 s 0.44531225 1 1.00000025 1 z m 0 0"/>
        <path d="m 6 14 c 0 -1.117188 0.882812 -2 2 -2 s 2 0.882812 2 2 c 0 0.550781 0.449219 1 1 1 s 1 -0.449219 1 -1 c 0 -2.207031 -1.792969 -4 -4 -4 s -4 1.792969 -4 4 c 0 0.550781 0.449219 1 1 1 s 1 -0.449219 1 -1 z m 0 0"/>
        <path d="m 8 1 c -0.550781 0 -1 0.445312 -1 1 v 3 h -2 v 1 h 0.003906 c 0 0.261719 0.105469 0.515625 0.289063 0.707031 l 2 2 c 0.390625 0.390625 1.023437 0.390625 1.414062 0 l 2 -2 c 0.183594 -0.191406 0.289063 -0.445312 0.285157 -0.707031 h 0.007812 v -1 h -2 v -3 c 0 -0.554688 -0.449219 -1 -1 -1 z m 0 0"/>
    </g>
</svg>
