<?xml version="1.0" encoding="UTF-8"?>
<svg height="16px" viewBox="0 0 16 16" width="16px" xmlns="http://www.w3.org/2000/svg">
    <path d="m 2.027344 0.988281 c -0.273438 -0.007812 -0.539063 0.097657 -0.734375 0.292969 c -0.390625 0.390625 -0.390625 1.023438 0 1.414062 l 12 12 c 0.390625 0.390626 1.023437 0.390626 1.414062 0 c 0.390625 -0.390624 0.390625 -1.023437 0 -1.414062 l -3.484375 -3.484375 c 1.511719 -1.285156 2.164063 -3.375 1.535156 -5.335937 c -0.652343 -2.015626 -2.507812 -3.40625 -4.632812 -3.460938 c -1.570312 -0.035156 -2.988281 0.65625 -3.929688 1.769531 l -1.488281 -1.488281 c -0.179687 -0.179688 -0.421875 -0.285156 -0.679687 -0.292969 z m 6.050781 2.007813 c 1.253906 0.027344 2.382813 0.847656 2.777344 2.082031 c 0.402343 1.230469 -0.039063 2.554687 -1.042969 3.3125 l -4.195312 -4.199219 c 0.453124 -0.605468 1.125 -1.035156 1.917968 -1.15625 c 0.183594 -0.03125 0.363282 -0.042968 0.542969 -0.039062 z m -4.078125 6.992187 c -0.550781 0 -1 0.449219 -1 1 v 0.007813 v 1 c 0 1.429687 1.054688 2.527344 2.238281 2.753906 c 1.183594 0.226562 2.53125 -0.289062 3.304688 -1.496094 c 0.195312 -0.304687 0.324219 -0.597656 0.433593 -0.875 l -1.5625 -1.5625 c -0.222656 0.574219 -0.359374 1.058594 -0.554687 1.359375 c -0.355469 0.558594 -0.859375 0.683594 -1.246094 0.609375 c -0.378906 -0.074218 -0.613281 -0.21875 -0.613281 -0.789062 v -1 c 0 -0.003906 0 -0.003906 0 -0.007813 c 0 -0.550781 -0.449219 -1 -1 -1 z m 0 0" fill="#222222"/>
</svg>
