<?xml version="1.0" encoding="UTF-8"?>
<svg height="16px" viewBox="0 0 16 16" width="16px" xmlns="http://www.w3.org/2000/svg">
    <g fill="#222222">
        <path d="m 2 2.011719 c -1.09375 0.007812 -2 0.910156 -2 2 v 9 c 0 1.089843 0.90625 2.003906 2 2 l 4 -0.023438 v -2 l -4 0.023438 v -9 l 4 -0.023438 v -2 z m 0 0"/>
        <path d="m 13 2.988281 v 3 h 3 v -3 z m 1 1 h 1 v 1 h -1 z m 0 0"/>
        <path d="m 14 6.988281 v 3 h -3 v -3 z m -1 1 h -1 v 1 h 1 z m 0 0"/>
        <path d="m 13 10.988281 v 3 h 3 v -3 z m 1 1 h 1 v 1 h -1 z m 0 0"/>
        <path d="m 10.5 11.488281 v 0.5 h 0.5 v 2 h 1 v -3 h -1 z m 0 0"/>
        <path d="m 14.5 7.488281 v 0.5 h 0.5 v 2 h 1 v -3 h -1 z m 0 0"/>
        <path d="m 10.5 3.488281 v 0.5 h 0.5 v 2 h 1 v -3 h -1 z m 0 0"/>
        <path d="m 8 0.988281 h 1 v 15 h -1 z m 0 0"/>
        <path d="m 6 0.988281 h 1 v 15 h -1 z m 0 0" fill-opacity="0.34902"/>
    </g>
</svg>
