<?xml version="1.0" encoding="UTF-8"?>
<svg height="16px" viewBox="0 0 16 16" width="16px" xmlns="http://www.w3.org/2000/svg">
    <g fill="#222222">
        <path d="m 8.023438 4.996094 c -0.554688 0 -1 0.449218 -1 1 v 3 c 0 0.554687 0.445312 1 1 1 h 2 c 0.550781 0 1 -0.445313 1 -1 c 0 -0.550782 -0.449219 -1 -1 -1 h -1 v -2 c 0 -0.550782 -0.449219 -1 -1 -1 z m 0 0"/>
        <path d="m 8.023438 0.996094 c -3.621094 0 -6.660157 2.785156 -6.976563 6.390625 c -0.3125 3.609375 2.191406 6.875 5.757813 7.503906 c 3.566406 0.628906 7.039062 -1.585937 7.976562 -5.082031 l -1.929688 -0.519532 c -0.671874 2.515626 -3.136718 4.082032 -5.699218 3.632813 c -2.5625 -0.453125 -4.339844 -2.769531 -4.113282 -5.363281 c 0.226563 -2.589844 2.382813 -4.5625 4.984376 -4.5625 z m 0 0"/>
        <path d="m 9.832031 1.234375 l -0.515625 1.933594 c 0.847656 0.226562 1.621094 0.671875 2.238282 1.292969 l 1.417968 -1.414063 c -0.871094 -0.867187 -1.953125 -1.496094 -3.140625 -1.8125 z m 0 0"/>
        <path d="m 14.082031 4.496094 l -1.730469 1 c 0.4375 0.761718 0.671876 1.625 0.671876 2.5 h 1.996093 c 0 -1.226563 -0.320312 -2.4375 -0.9375 -3.5 z m 0 0"/>
    </g>
</svg>
