<?xml version="1.0" encoding="UTF-8"?>
<svg height="16px" viewBox="0 0 16 16" width="16px" xmlns="http://www.w3.org/2000/svg">
    <g fill="#222222">
        <path d="m 8.019531 4.996094 c -0.550781 0 -1 0.449218 -1 1 v 2 h -1 c -0.550781 0 -1 0.449218 -1 1 c 0 0.550781 0.449219 1 1 1 h 2 c 0.550781 0 1 -0.449219 1 -1 v -3 c 0 -0.550782 -0.449219 -1 -1 -1 z m 0 0"/>
        <path d="m 8.019531 -0.00390625 c -4.40625 0 -7.9999998 3.59375025 -7.9999998 8.00000025 h 1.9999998 c 0 -3.324219 2.675781 -6 6 -6 z m 0 0"/>
        <path d="m 10.089844 0.269531 l -0.519532 1.933594 c 1.019532 0.269531 1.945313 0.804687 2.691407 1.550781 l 1.414062 -1.414062 c -0.992187 -0.992188 -2.230469 -1.707032 -3.585937 -2.070313 z m 0 0"/>
        <path d="m 14.945312 3.996094 l -1.730468 1 c 0.527344 0.914062 0.804687 1.945312 0.804687 3 h 2 c 0 -1.402344 -0.371093 -2.785156 -1.074219 -4 z m 0 0"/>
        <path d="m 13.8125 9.546875 c -0.269531 1.019531 -0.804688 1.945313 -1.550781 2.691406 l 1.414062 1.414063 c 0.992188 -0.992188 1.707031 -2.230469 2.070313 -3.585938 z m 0 0"/>
        <path d="m 11.019531 13.191406 c -0.453125 0.261719 -0.941406 0.464844 -1.449219 0.597656 l 0.519532 1.933594 c 0.675781 -0.179687 1.324218 -0.449218 1.929687 -0.800781 z m 0 0"/>
        <path d="m 6.464844 13.789062 l -0.515625 1.933594 c 0.675781 0.179688 1.371093 0.273438 2.070312 0.273438 v -2 c -0.523437 0 -1.046875 -0.070313 -1.554687 -0.207032 z m 0 0"/>
        <path d="m 2.222656 9.546875 l -1.929687 0.519531 c 0.179687 0.675782 0.449219 1.324219 0.796875 1.929688 l 1.734375 -1 c -0.261719 -0.453125 -0.464844 -0.941406 -0.601563 -1.449219 z m 0 0"/>
        <path d="m 3.777344 12.238281 l -1.414063 1.414063 c 0.492188 0.496094 1.050781 0.921875 1.65625 1.269531 l 1 -1.730469 c -0.453125 -0.261718 -0.871093 -0.582031 -1.242187 -0.953125 z m 0 0"/>
    </g>
</svg>
