<?xml version="1.0" encoding="UTF-8"?>
<svg height="16px" viewBox="0 0 16 16" width="16px" xmlns="http://www.w3.org/2000/svg">
    <path d="m 3.984375 4 c -0.261719 0.003906 -0.515625 0.113281 -0.703125 0.300781 l -2.917969 3 c -0.3749998 0.390625 -0.3749998 1.007813 0 1.398438 l 2.917969 3 c 0.386719 0.394531 1.019531 0.402343 1.414062 0.015625 c 0.398438 -0.382813 0.40625 -1.015625 0.019532 -1.414063 l -1.265625 -1.300781 h 9.183593 l -1.269531 1.300781 c -0.382812 0.398438 -0.375 1.03125 0.019531 1.417969 c 0.398438 0.382812 1.03125 0.375 1.414063 -0.019531 l 2.917969 -3 c 0.378906 -0.390625 0.378906 -1.007813 0 -1.394531 l -2.917969 -3 c -0.183594 -0.191407 -0.4375 -0.300782 -0.703125 -0.300782 c -0.261719 -0.007812 -0.519531 0.09375 -0.710938 0.28125 c -0.394531 0.382813 -0.402343 1.015625 -0.019531 1.414063 l 1.269531 1.300781 h -9.183593 l 1.265625 -1.300781 c 0.386718 -0.398438 0.378906 -1.03125 -0.019532 -1.417969 c -0.1875 -0.183594 -0.445312 -0.285156 -0.710937 -0.28125 z m 0 0" fill="#222222" fill-rule="evenodd"/>
</svg>
