<?xml version="1.0" encoding="UTF-8"?>
<svg height="16px" viewBox="0 0 16 16" width="16px" xmlns="http://www.w3.org/2000/svg">
    <path d="m 11.996094 3.984375 c 0 -0.261719 -0.109375 -0.515625 -0.300782 -0.703125 l -3 -2.917969 c -0.386718 -0.3749998 -1.003906 -0.3749998 -1.394531 0 l -3 2.917969 c -0.394531 0.386719 -0.402343 1.019531 -0.019531 1.414062 c 0.386719 0.398438 1.019531 0.40625 1.414062 0.019532 l 1.304688 -1.265625 v 9.183593 l -1.304688 -1.269531 c -0.394531 -0.382812 -1.027343 -0.375 -1.414062 0.019531 c -0.382812 0.398438 -0.375 1.03125 0.019531 1.414063 l 3 2.917969 c 0.390625 0.378906 1.007813 0.378906 1.394531 0 l 3 -2.917969 c 0.191407 -0.183594 0.300782 -0.4375 0.300782 -0.703125 c 0.007812 -0.261719 -0.09375 -0.519531 -0.28125 -0.710938 c -0.382813 -0.394531 -1.015625 -0.402343 -1.414063 -0.019531 l -1.300781 1.269531 v -9.183593 l 1.300781 1.265625 c 0.398438 0.386718 1.03125 0.378906 1.414063 -0.019532 c 0.1875 -0.1875 0.289062 -0.445312 0.28125 -0.710937 z m 0 0" fill="#222222" fill-rule="evenodd"/>
</svg>
