<?xml version="1.0" encoding="UTF-8"?>
<svg height="16px" viewBox="0 0 16 16" width="16px" xmlns="http://www.w3.org/2000/svg">
    <g fill="#222222">
        <path d="m 2.714844 2.171875 c -0.371094 0.023437 -0.664063 0.421875 -0.492188 0.808594 l 1.023438 2.304687 l 1.472656 -0.566406 l 0.566406 -1.46875 l -2.304687 -1.027344 c -0.089844 -0.039062 -0.179688 -0.054687 -0.265625 -0.046875 z m 10.558594 0.003906 c -0.085938 -0.003906 -0.171876 0.011719 -0.253907 0.050781 l -2.304687 1.023438 l 0.5625 1.46875 l 1.472656 0.566406 l 1.023438 -2.304687 c 0.097656 -0.214844 0.050781 -0.46875 -0.117188 -0.632813 c -0.101562 -0.105468 -0.242188 -0.167968 -0.382812 -0.171875 z m -0.523438 8.539063 l -1.472656 0.566406 l -0.566406 1.46875 l 2.308593 1.027344 c 0.480469 0.210937 0.96875 -0.28125 0.753907 -0.757813 z m -9.5 0 l -1.027344 2.304687 c -0.210937 0.476563 0.28125 0.96875 0.757813 0.757813 l 2.304687 -1.023438 l -0.566406 -1.472656 z m 0 0"/>
        <path d="m 8 0 c -0.234375 0 -0.449219 0.144531 -0.535156 0.367188 l -1.972656 5.128906 l -5.125 1.972656 c -0.488282 0.1875 -0.488282 0.875 0 1.0625 l 5.125 1.972656 l 1.972656 5.128906 c 0.191406 0.488282 0.878906 0.488282 1.066406 0 l 1.972656 -5.128906 l 5.128906 -1.972656 c 0.488282 -0.1875 0.488282 -0.875 0 -1.0625 l -5.128906 -1.972656 l -1.972656 -5.128906 c -0.082031 -0.21875 -0.292969 -0.367188 -0.53125 -0.367188 z m 0 7 c 0.550781 0 1 0.449219 1 1 s -0.449219 1 -1 1 s -1 -0.449219 -1 -1 s 0.449219 -1 1 -1 z m 0 0"/>
    </g>
</svg>
