<?xml version="1.0" encoding="UTF-8"?>
<svg height="16px" viewBox="0 0 16 16" width="16px" xmlns="http://www.w3.org/2000/svg">
    <path d="m 6.703125 0 c -0.3125 0.0273438 -0.527344 0.335938 -0.4375 0.640625 l 0.425781 1.542969 c -0.421875 0.109375 -0.835937 0.261718 -1.238281 0.457031 l -1.019531 -1.765625 c -0.09375 -0.164062 -0.269532 -0.261719 -0.457032 -0.253906 c -0.382812 0.011718 -0.605468 0.429687 -0.410156 0.757812 l 1.015625 1.757813 c -0.335937 0.214843 -0.664062 0.449219 -0.976562 0.703125 l -1.253907 -1.253906 c -0.09375 -0.097657 -0.222656 -0.152344 -0.359374 -0.152344 c -0.445313 0.003906 -0.664063 0.546875 -0.347657 0.859375 l 1.222657 1.21875 c -0.28125 0.265625 -0.546876 0.523437 -0.792969 0.792969 l -0.722657 -0.71875 c -0.09375 -0.097657 -0.222656 -0.152344 -0.359374 -0.152344 c -0.445313 0.003906 -0.664063 0.546875 -0.347657 0.859375 l 0.765625 0.761719 c -0.886718 1.078124 -1.410156 1.945312 -1.410156 1.945312 s 3.582031 6 8 6 s 8 -6 8 -6 s -0.523438 -0.867188 -1.410156 -1.945312 l 0.761718 -0.761719 c 0.328126 -0.320313 0.09375 -0.871094 -0.363281 -0.859375 c -0.128906 0.003906 -0.25 0.058594 -0.34375 0.152344 l -0.71875 0.71875 c -0.199219 -0.21875 -0.410156 -0.425782 -0.636719 -0.644532 l 1.105469 -1.414062 c 0.269531 -0.335938 0.015625 -0.835938 -0.417969 -0.8125 c -0.144531 0.007812 -0.28125 0.078125 -0.371093 0.199218 l -1.050781 1.34375 c -0.261719 -0.21875 -0.527344 -0.433593 -0.808594 -0.628906 l 1.070312 -1.738281 c 0.21875 -0.34375 -0.042968 -0.792969 -0.449218 -0.765625 c -0.164063 0.007812 -0.3125 0.097656 -0.398438 0.242188 l -1.078125 1.738281 c -0.363281 -0.203125 -0.738281 -0.371094 -1.125 -0.503907 l 0.570313 -1.648437 c 0.117187 -0.324219 -0.117188 -0.6640625 -0.460938 -0.671875 c -0.21875 -0.00390625 -0.414062 0.136719 -0.484375 0.34375 l -0.597656 1.722656 c -0.257813 -0.042968 -0.523438 -0.066406 -0.792969 -0.066406 c -0.105469 0 -0.207031 0.019531 -0.3125 0.027344 l -0.457031 -1.652344 c -0.054688 -0.21875 -0.25 -0.37109375 -0.476563 -0.375 c -0.015625 0 -0.03125 0 -0.050781 0 z m 1.296875 4 c 3.867188 0 6 4 6 4 s -2.132812 4 -6 4 s -6 -4 -6 -4 s 2.132812 -4 6 -4 z m 0 1 c -1.65625 0 -3 1.34375 -3 3 s 1.34375 3 3 3 s 3 -1.34375 3 -3 s -1.34375 -3 -3 -3 z m 0 0" fill="#222222"/>
</svg>
