<?xml version="1.0" encoding="UTF-8"?>
<svg height="16px" viewBox="0 0 16 16" width="16px" xmlns="http://www.w3.org/2000/svg">
    <g fill="#222222">
        <path d="m 2 0 s -0.457031 -0.015625 -0.949219 0.230469 c -0.488281 0.246093 -1.050781 0.9375 -1.050781 1.769531 v 3 h 2 v -3 h 3 v -2 z m 9 0 v 2 h 3 v 3 h 2 v -3 c 0 -0.832031 -0.5625 -1.523438 -1.054688 -1.769531 c -0.488281 -0.246094 -0.945312 -0.230469 -0.945312 -0.230469 z m -11 11 v 3 c 0 0.832031 0.5625 1.523438 1.050781 1.769531 c 0.492188 0.246094 0.949219 0.230469 0.949219 0.230469 h 3 v -2 h -3 v -3 z m 14 0 v 3 h -3 v 2 h 3 s 0.457031 0.015625 0.945312 -0.230469 c 0.492188 -0.246093 1.054688 -0.9375 1.054688 -1.769531 v -3 z m 0 0"/>
        <path d="m 4 5 h 3 v 1 h -3 z m 0 0"/>
        <path d="m 9 5 h 3 v 1 h -3 z m 0 0"/>
        <path d="m 3.699219 10.839844 c 2.171875 1.648437 6.5 1.621094 8.605469 -0.003906 c 0.140624 -0.105469 0.214843 -0.285157 0.191406 -0.460938 c -0.023438 -0.175781 -0.140625 -0.328125 -0.304688 -0.398438 c -0.167968 -0.066406 -0.355468 -0.039062 -0.496094 0.070313 c -0.828124 0.636719 -2.242187 1.015625 -3.667968 1.019531 c -1.425782 0.003906 -2.855469 -0.367187 -3.726563 -1.023437 c -0.21875 -0.167969 -0.53125 -0.125 -0.699219 0.097656 c -0.167968 0.21875 -0.125 0.53125 0.097657 0.699219 z m 0 0"/>
    </g>
</svg>
