<?xml version="1.0" encoding="UTF-8"?>
<svg height="16px" viewBox="0 0 16 16" width="16px" xmlns="http://www.w3.org/2000/svg">
    <path d="m 6.007812 4.832031 l 0.527344 -0.878906 l -4.003906 2.160156 l 0.03125 -0.019531 c -0.472656 0.238281 -0.835938 0.582031 -1.074219 0.996094 c -1.019531 1.753906 0.367188 4.0625 2.703125 3.558594 l -0.023437 0.003906 l 3.03125 -0.582032 l -1.191407 -0.984374 v 2.28125 l 0.503907 -0.867188 l -1.585938 0.90625 l -0.015625 0.011719 c -1.863281 1.171875 -1.074218 3.558593 1.183594 3.558593 l 4.820312 0.007813 c 2.242188 0 2.789063 -2.40625 1.230469 -3.53125 l -0.015625 -0.011719 l -0.050781 -0.03125 l -1.589844 -0.914062 l 0.5 0.871094 v -2.28125 l -1.195312 0.980468 l 2.972656 0.601563 l -0.058594 -0.011719 c 1.511719 0.40625 2.984375 -0.546875 3.183594 -1.960938 c 0.140625 -0.980468 -0.367187 -1.933593 -1.417969 -2.542968 l -0.007812 -0.003906 l -3.992188 -2.191407 l 0.515625 0.878907 v -2.039063 c 0 -2.242187 -1.9375 -3.382813 -3.550781 -2.566406 c -0.378906 0.191406 -0.707031 0.480469 -0.953125 0.859375 c -0.3125 0.476562 -0.476563 1.058594 -0.476563 1.707031 z m 2 -2.035156 c 0 -0.394531 0.109376 -0.582031 0.203126 -0.683594 c 0.097656 -0.105469 0.199218 -0.140625 0.300781 -0.140625 c 0.097656 -0.003906 0.1875 0.027344 0.277343 0.125 c 0.089844 0.09375 0.199219 0.285156 0.199219 0.699219 v 2.628906 l 4.503907 2.472657 l -0.019532 -0.011719 c 0.3125 0.179687 0.398438 0.332031 0.425782 0.410156 c 0.027343 0.082031 0.023437 0.125 -0.011719 0.195313 c -0.070313 0.144531 -0.273438 0.335937 -0.664063 0.230468 l -0.027344 -0.007812 l -4.207031 -0.847656 v 4.078124 l 2.066407 1.183594 l -0.058594 -0.035156 l 0.007812 0.003906 l -0.03125 -0.023437 c 0.011719 0.007812 0.019532 0.015625 0.023438 0.019531 c 0.007812 0.007812 0.011718 0.011719 0.019531 0.019531 c 0.003906 0.003907 0.003906 0.007813 0.007813 0.011719 c 0.003906 0.003906 0.003906 0.007812 0.007812 0.011719 v 0.003906 c 0.003906 0.003906 0.003906 0.003906 0.003906 0.003906 c 0 -0.003906 -0.007812 -0.0625 0.03125 -0.125 c 0.019532 -0.035156 0.054688 -0.0625 0.058594 -0.066406 h 0.003906 h -0.003906 s -0.003906 0.003906 -0.003906 0.003906 c -0.003906 0 -0.007813 0.003907 -0.015625 0.003907 c -0.003907 0 -0.011719 0.003906 -0.019531 0.003906 c -0.011719 0.003906 -0.023438 0.007812 -0.035157 0.007812 c -0.035156 0.003906 -0.078125 0.011719 -0.136719 0.011719 l -4.820312 -0.007813 c -0.085938 0 -0.152344 -0.007812 -0.203125 -0.019531 c -0.015625 -0.003906 -0.035156 -0.007812 -0.046875 -0.015625 c -0.011719 -0.003906 -0.023438 -0.007812 -0.03125 -0.007812 c -0.003906 -0.003906 -0.007812 -0.007813 -0.011719 -0.007813 c -0.003906 -0.003906 -0.007812 -0.003906 -0.007812 -0.003906 h 0.003906 s 0 0.003906 0.003906 0.003906 c 0.019531 0.019531 0.070313 0.105469 0.070313 0.183594 c 0.003906 0.058594 -0.015625 0.101563 -0.019532 0.105469 c 0.003907 -0.003906 0.003907 -0.003906 0.003907 -0.003906 c 0.003906 -0.003907 0.003906 -0.007813 0.007812 -0.007813 c 0 -0.003906 0.003907 -0.007813 0.011719 -0.015625 c 0.003906 -0.003906 0.011719 -0.011719 0.019531 -0.015625 c 0.007813 -0.011719 0.019531 -0.019531 0.03125 -0.027344 c 0.011719 -0.011719 0.03125 -0.019531 0.046875 -0.03125 l -0.035156 0.019531 l 2.070312 -1.1875 v -4.070312 l -4.226562 0.816406 h -0.011719 c -0.277343 0.0625 -0.390625 0.015625 -0.453125 -0.023437 c -0.066406 -0.039063 -0.113281 -0.097657 -0.144531 -0.195313 c -0.027344 -0.097656 -0.023437 -0.21875 0.015625 -0.320312 c 0.039062 -0.101563 0.101562 -0.1875 0.261719 -0.265625 l 0.015625 -0.007813 l 4.542968 -2.449218 z m 0 0" fill="#222222"/>
</svg>
