<?xml version="1.0" encoding="UTF-8"?>
<svg height="16px" viewBox="0 0 16 16" width="16px" xmlns="http://www.w3.org/2000/svg">
    <path d="m 10.011719 2.015625 c -0.550781 0 -1 0.445313 -1 1 v 11 c 0 0.550781 0.449219 1 1 1 h 3 c 1.640625 0 2.988281 -1.347656 2.988281 -2.984375 v -2.042969 c 0 -1.636719 -1.347656 -2.988281 -2.988281 -2.988281 h -2 v -3.984375 c 0 -0.554687 -0.445313 -1 -1 -1 z m -8 3 c -0.550781 0 -1 0.445313 -1 1 c 0 0.550781 0.449219 1 1 1 h 2 c 0.5625 0 0.996093 0.425781 1 0.984375 h -1.402344 c -1.921875 -0.039062 -3.5390625 1.507812 -3.5820312 3.433594 v 0.019531 c 0 1.953125 1.6093752 3.5625 3.5625002 3.5625 h 2.421875 c 0.554687 0 1 -0.449219 1 -1 v -6 c 0 -1.644531 -1.351563 -3 -3 -3 z m 9 3.984375 h 2 c 0.558593 0 0.988281 0.429688 0.988281 0.988281 v 2.042969 c 0 0.554688 -0.429688 0.984375 -0.988281 0.984375 h -2 z m -7.445313 1 h 0.023438 h 1.421875 v 3.015625 h -1.421875 c -0.871094 0 -1.550782 -0.683594 -1.558594 -1.550781 c 0.027344 -0.839844 0.695312 -1.480469 1.535156 -1.464844 z m 0 0" fill="#222222"/>
</svg>
