<?xml version="1.0" encoding="UTF-8"?>
<svg height="16px" viewBox="0 0 16 16" width="16px" xmlns="http://www.w3.org/2000/svg">
    <path d="m 15.011719 0.015625 c -5.132813 0 -8.945313 1.03125 -11.457031 3.542969 c -2.511719 2.511718 -3.5429692 6.324218 -3.5429692 11.457031 c 0 0.550781 0.4492192 1 1.0000002 1 c 5.132812 0 8.945312 -1.03125 11.457031 -3.542969 c 2.511719 -2.511718 3.542969 -6.324218 3.542969 -11.457031 c 0 -0.550781 -0.449219 -1 -1 -1 z m -1.136719 2.136719 c -0.058594 1.433594 -0.199219 2.726562 -0.433594 3.878906 l -3.445312 -3.445312 c 1.152344 -0.234376 2.445312 -0.375 3.878906 -0.433594 z m -5.191406 0.863281 l 4.328125 4.253906 c -0.292969 1.746094 -1.214844 3.046875 -1.957031 3.789063 c -0.742188 0.742187 -2.042969 1.542968 -3.804688 1.957031 l -4.238281 -4.179687 c 0.398437 -1.578126 1.214843 -3.121094 1.957031 -3.863282 c 0.742188 -0.742187 2.296875 -1.519531 3.714844 -1.957031 z m -6.101563 6.984375 l 3.445313 3.445312 c -1.15625 0.234376 -2.445313 0.375 -3.878906 0.433594 c 0.058593 -1.433594 0.199218 -2.726562 0.433593 -3.878906 z m 0 0" fill="#222222"/>
</svg>
