<?xml version="1.0" encoding="UTF-8"?>
<svg height="16px" viewBox="0 0 16 16" width="16px" xmlns="http://www.w3.org/2000/svg">
    <path d="m 12.734375 0 c -0.082031 0.359375 -0.160156 0.707031 -0.246094 1.066406 c -0.855469 0.226563 -1.488281 1.011719 -1.488281 1.933594 c 0 0.511719 0.195312 0.980469 0.515625 1.332031 c -0.371094 0.964844 -0.828125 1.917969 -1.414063 2.804688 c -0.207031 0.316406 -0.433593 0.617187 -0.679687 0.910156 c -0.136719 -0.03125 -0.277344 -0.046875 -0.421875 -0.046875 c -1.097656 0 -2 0.902344 -2 2 c 0 0.082031 0.003906 0.160156 0.011719 0.238281 c -0.785157 0.5 -1.691407 0.917969 -2.746094 1.21875 c -0.347656 -0.285156 -0.785156 -0.457031 -1.265625 -0.457031 c -0.714844 0 -1.347656 0.382812 -1.703125 0.953125 c -0.414063 0.03125 -0.84375 0.046875 -1.296875 0.046875 v 2 c 0.429688 0 0.84375 -0.015625 1.246094 -0.042969 c 0.339844 0.621094 1 1.042969 1.753906 1.042969 c 1 0 1.835938 -0.746094 1.976562 -1.707031 c 1.203126 -0.371094 2.265626 -0.871094 3.195313 -1.472657 c 0.253906 0.117188 0.535156 0.179688 0.828125 0.179688 c 1.097656 0 2 -0.902344 2 -2 c 0 -0.214844 -0.035156 -0.421875 -0.101562 -0.617188 c 0.320312 -0.371093 0.613281 -0.75 0.875 -1.144531 c 0.703124 -1.066406 1.234374 -2.183593 1.652343 -3.285156 c 0.898438 -0.199219 1.574219 -1 1.574219 -1.953125 c 0 -0.542969 -0.21875 -1.039062 -0.578125 -1.398438 c 0.136719 -0.566406 0.257813 -1.09375 0.371094 -1.601562 z m 0.265625 2 c 0.558594 0 1 0.441406 1 1 s -0.441406 1 -1 1 s -1 -0.441406 -1 -1 s 0.441406 -1 1 -1 z m -4 7 c 0.558594 0 1 0.441406 1 1 s -0.441406 1 -1 1 s -1 -0.441406 -1 -1 s 0.441406 -1 1 -1 z m -6 3 c 0.558594 0 1 0.441406 1 1 s -0.441406 1 -1 1 s -1 -0.441406 -1 -1 s 0.441406 -1 1 -1 z m 0 0" fill="#222222"/>
</svg>
