<?xml version="1.0" encoding="UTF-8"?>
<svg height="16px" viewBox="0 0 16 16" width="16px" xmlns="http://www.w3.org/2000/svg">
    <g fill="#222222">
        <path d="m 2 4 v 8 h 1 v -8 z m 11 0 v 8 h 1 v -8 z m -13 2 v 4 h 1 v -4 z m 15 0 v 4 h 1 v -4 z m 0 0"/>
        <path d="m 7.902344 0.984375 c -0.226563 0.027344 -0.4375 0.128906 -0.597656 0.285156 l -1.289063 1.285157 l -1.253906 -1.238282 c -0.394531 -0.386718 -1.027344 -0.386718 -1.414063 0.007813 c -0.390625 0.394531 -0.386718 1.027343 0.007813 1.414062 l 1.246093 1.234375 l -1.25 1.246094 c -0.390624 0.386719 -0.390624 1.019531 0 1.414062 c 0.390626 0.390626 1.023438 0.390626 1.414063 0 l 1.257813 -1.257812 l 1.332031 1.316406 c 0.390625 0.386719 1.023437 0.382813 1.414062 -0.011718 c 0.386719 -0.390626 0.382813 -1.023438 -0.007812 -1.414063 l -1.320313 -1.304687 l 1.277344 -1.273438 c 0.390625 -0.390625 0.390625 -1.023438 0 -1.414062 c -0.214844 -0.214844 -0.515625 -0.320313 -0.816406 -0.285157 z m 0 0"/>
        <path d="m 7.5 6 c -0.8125 0 -1.5 0.6875 -1.5 1.5 v 3 c 0 0.8125 0.6875 1.5 1.5 1.5 h 3 c 0.8125 0 1.5 -0.6875 1.5 -1.5 v -3 c 0 -0.8125 -0.6875 -1.5 -1.5 -1.5 z m 0.5 2 h 2 v 2 h -2 z m 0 0"/>
        <path d="m 5.5 10 c -0.316406 0 -0.613281 0.148438 -0.800781 0.398438 l -2.996094 4 c -0.226563 0.304687 -0.261719 0.710937 -0.09375 1.050781 c 0.171875 0.335937 0.515625 0.550781 0.894531 0.550781 h 5.996094 c 0.378906 0 0.726562 -0.214844 0.894531 -0.550781 c 0.167969 -0.339844 0.132813 -0.746094 -0.09375 -1.050781 l -3 -4 c -0.1875 -0.25 -0.484375 -0.398438 -0.800781 -0.398438 z m 0 2.667969 l 1 1.332031 h -1.996094 z m 0 0"/>
    </g>
</svg>
