<?xml version="1.0" encoding="UTF-8"?>
<svg height="16px" viewBox="0 0 16 16" width="16px" xmlns="http://www.w3.org/2000/svg">
    <g fill="#222222">
        <path d="m 2 4 v 8 h 1 v -8 z m 11 0 v 8 h 1 v -8 z m -13 2 v 4 h 1 v -4 z m 15 0 v 4 h 1 v -4 z m 0 0"/>
        <path d="m 8 1.976562 c -2.203125 0 -4.011719 1.808594 -4.011719 4.011719 s 1.808594 4.011719 4.011719 4.011719 s 4.011719 -1.808594 4.011719 -4.011719 s -1.808594 -4.011719 -4.011719 -4.011719 z m 0 1.996094 c 1.121094 0 2.015625 0.894532 2.015625 2.015625 c 0 1.125 -0.894531 2.015625 -2.015625 2.015625 c -1.125 0 -2.015625 -0.890625 -2.015625 -2.015625 c 0 -1.121093 0.890625 -2.015625 2.015625 -2.015625 z m 0 0"/>
        <path d="m 7 8 v 7 h 2 v -7 z m 0 0"/>
        <path d="m 14 16 h -12.042969 c 0 -0.96875 1.042969 -2 2.042969 -2 h 8 c 1.003906 0 2 0.980469 2 2 z m 0 0"/>
        <path d="m 5.484375 13 h 5.015625 c 0.277344 0 0.5 0.222656 0.5 0.5 s -0.222656 0.5 -0.5 0.5 h -5.015625 c -0.273437 0 -0.5 -0.222656 -0.5 -0.5 s 0.226563 -0.5 0.5 -0.5 z m 0 0"/>
        <path d="m 6.484375 12 h 3.015625 c 0.277344 0 0.5 0.222656 0.5 0.5 s -0.222656 0.5 -0.5 0.5 h -3.015625 c -0.273437 0 -0.5 -0.222656 -0.5 -0.5 s 0.226563 -0.5 0.5 -0.5 z m 0 0"/>
    </g>
</svg>
