<?xml version="1.0" encoding="UTF-8"?>
<svg height="16px" viewBox="0 0 16 16" width="16px" xmlns="http://www.w3.org/2000/svg">
    <path d="m 8.015625 0.371094 l -0.890625 2.261718 c -0.878906 2.246094 -2.015625 2.722657 -3.328125 3.484376 c -0.652344 0.382812 -1.378906 0.828124 -1.933594 1.605468 c -0.550781 0.777344 -0.859375 1.828125 -0.867187 3.207032 c -0.011719 1.816406 1.199218 3.1875 2.59375 3.976562 c 1.394531 0.789062 3.023437 1.140625 4.441406 1.09375 c 1.429688 -0.050781 3.011719 -0.503906 4.351562 -1.320312 c 1.34375 -0.8125 2.515626 -2.070313 2.609376 -3.75 c 0.070312 -1.234376 -0.191407 -2.242188 -0.707032 -3.003907 c -0.511718 -0.757812 -1.199218 -1.234375 -1.851562 -1.671875 c -1.300782 -0.867187 -2.550782 -1.542968 -3.457032 -3.648437 z m 0.054687 4.789062 c 0.402344 0.582032 0.832032 0.816406 1.257813 1.261719 c 0.53125 1.59375 0.914063 3.140625 0.707031 4.300781 c -0.15625 0.878906 -0.347656 1.867188 -0.675781 2.578125 c -0.101563 0.21875 -0.222656 0.398438 -0.347656 0.554688 c -0.367188 0.078125 -0.726563 0.136719 -1.050781 0.148437 c -0.242188 0.007813 -0.511719 -0.007812 -0.789063 -0.039062 c -0.144531 -0.171875 -0.28125 -0.398438 -0.390625 -0.6875 c -0.277344 -0.722656 -0.410156 -1.726563 -0.558594 -2.609375 c -0.199218 -1.175781 0.167969 -2.730469 0.671875 -4.324219 c 0.402344 -0.414062 0.800781 -0.625 1.175781 -1.183594 z m -2.566406 2.226563 c -0.285156 1.191406 -0.445312 2.398437 -0.269531 3.445312 c 0.144531 0.847657 0.265625 1.902344 0.609375 2.800781 c 0.007812 0.019532 0.019531 0.035157 0.027344 0.054688 c -0.457032 -0.136719 -0.902344 -0.300781 -1.292969 -0.523438 c -1.007813 -0.570312 -1.589844 -1.277343 -1.582031 -2.222656 c 0.007812 -1.105468 0.21875 -1.667968 0.5 -2.0625 c 0.28125 -0.390625 0.695312 -0.675781 1.304687 -1.03125 c 0.21875 -0.128906 0.457031 -0.285156 0.703125 -0.460937 z m 5.242188 0.113281 c 0.199218 0.148438 0.402344 0.296875 0.582031 0.417969 c 0.609375 0.40625 1.042969 0.746093 1.300781 1.128906 c 0.257813 0.382813 0.421875 0.847656 0.367188 1.769531 c -0.042969 0.785156 -0.640625 1.546875 -1.648438 2.15625 c -0.296875 0.179688 -0.632812 0.332032 -0.972656 0.46875 c 0.332031 -0.824218 0.503906 -1.746094 0.644531 -2.539062 c 0.183594 -1.03125 0.019531 -2.222656 -0.273437 -3.402344 z m 0 0" fill="#222222"/>
</svg>
