<?xml version="1.0" encoding="UTF-8"?>
<svg height="16px" viewBox="0 0 16 16" width="16px" xmlns="http://www.w3.org/2000/svg">
    <path d="m 7.519531 -0.00390625 c -4.128906 0 -7.4999998 3.37109425 -7.4999998 7.50000025 s 3.3710938 7.5 7.4999998 7.5 c 4.128907 0 7.5 -3.371094 7.5 -7.5 s -3.371093 -7.50000025 -7.5 -7.50000025 z m 1.84375 2.31250025 c 0.949219 0.335937 1.78125 0.925781 2.40625 1.6875 h -1.226562 c -0.304688 -0.609375 -0.699219 -1.179688 -1.179688 -1.6875 z m -3.71875 0.011718 c -0.472656 0.507813 -0.867187 1.070313 -1.171875 1.675782 h -1.207031 c 0.621094 -0.753906 1.441406 -1.335938 2.378906 -1.675782 z m 1.375 0.097657 v 1.578125 h -1.398437 c 0.363281 -0.59375 0.828125 -1.128906 1.398437 -1.578125 z m 1 0.015625 c 0.558594 0.445312 1.019531 0.976562 1.378907 1.5625 h -1.378907 z m -5.402343 2.5625 h 1.441406 c -0.214844 0.644531 -0.347656 1.320312 -0.390625 2 h -1.625 c 0.0625 -0.714844 0.265625 -1.390625 0.574219 -2 z m 2.503906 0 h 1.898437 v 2 h -2.347656 c 0.050781 -0.683594 0.199219 -1.359375 0.449219 -2 z m 2.898437 0 h 1.875 c 0.253907 0.640625 0.402344 1.316406 0.449219 2 h -2.324219 z m 2.941407 0 h 1.460937 c 0.308594 0.609375 0.511719 1.285156 0.574219 2 h -1.648438 c -0.039062 -0.679688 -0.171875 -1.355469 -0.386718 -2 z m -8.917969 3 h 1.625 c 0.042969 0.679687 0.175781 1.355468 0.394531 2 h -1.445312 c -0.308594 -0.609375 -0.511719 -1.285156 -0.574219 -2 z m 2.632812 0 h 2.34375 v 2 h -1.890625 c -0.253906 -0.636719 -0.402344 -1.316406 -0.453125 -2 z m 3.34375 0 h 2.324219 c -0.050781 0.683594 -0.199219 1.363281 -0.453125 2 h -1.871094 z m 3.328125 0 h 1.648438 c -0.0625 0.714844 -0.265625 1.390625 -0.574219 2 h -1.464844 c 0.21875 -0.644532 0.347657 -1.320313 0.390625 -2 z m -8.082031 3 h 1.214844 c 0.3125 0.609375 0.707031 1.179687 1.195312 1.6875 c -0.953125 -0.335938 -1.78125 -0.925782 -2.410156 -1.6875 z m 2.363281 0 h 1.390625 v 1.550781 c -0.5625 -0.441406 -1.027343 -0.96875 -1.390625 -1.550781 z m 2.390625 0 h 1.367188 c -0.355469 0.578125 -0.8125 1.097656 -1.367188 1.535156 z m 2.519531 0 h 1.230469 c -0.632812 0.769531 -1.472656 1.363281 -2.4375 1.695312 c 0.492188 -0.507812 0.894531 -1.082031 1.207031 -1.695312 z m 0 0" fill="#222222"/>
</svg>
