<?xml version="1.0" encoding="UTF-8"?>
<svg height="16px" viewBox="0 0 16 16" width="16px" xmlns="http://www.w3.org/2000/svg">
    <g fill="#222222">
        <path d="m 7.519531 -0.00390625 c -4.128906 0 -7.4999998 3.37109425 -7.4999998 7.50000025 s 3.3710938 7.5 7.4999998 7.5 c 4.128907 0 7.5 -3.371094 7.5 -7.5 s -3.371093 -7.50000025 -7.5 -7.50000025 z m 0 2.00000025 c 3.050781 0 5.5 2.449218 5.5 5.5 c 0 3.050781 -2.449219 5.5 -5.5 5.5 s -5.5 -2.449219 -5.5 -5.5 c 0 -3.050782 2.449219 -5.5 5.5 -5.5 z m 0 0"/>
        <path d="m 4.226562 3.09375 c -1.332031 1 -2.144531 2.542969 -2.207031 4.203125 l 0.210938 0.214844 l 0.882812 0.878906 v 0.886719 l 0.882813 0.878906 v 1.589844 c 0.273437 0.230468 0.570312 0.433594 0.882812 0.605468 v -0.429687 l 0.882813 -0.878906 v -0.886719 l 0.882812 -0.878906 l -0.882812 -0.886719 l -0.882813 -0.878906 h -1.765625 v -0.886719 h 0.882813 v -0.878906 l 0.882812 -0.886719 h 0.882813 v -0.878906 l -0.882813 -0.886719 z m 5.066407 0 v 0.886719 h -0.882813 l -0.882812 0.878906 l 0.882812 0.886719 l 0.882813 -0.886719 h 1.765625 l 0.910156 1.324219 v 0.441406 l 0.855469 0.886719 v -1.535157 c -0.335938 -1.152343 -1.039063 -2.164062 -2 -2.882812 z m 3.53125 4.417969 l -0.910157 0.050781 l -0.855468 -0.9375 v -0.21875 h -1.078125 l -0.441407 -0.664062 h -1.128906 l -0.882812 0.882812 v 0.882812 l 0.882812 0.882813 h 0.882813 l 0.46875 0.664063 v 1.765624 l 1.191406 1.011719 c 0.371094 -0.296875 0.703125 -0.640625 0.988281 -1.023437 v -2.417969 z m 0 0" fill-opacity="0.34902"/>
    </g>
</svg>
