<?xml version="1.0" encoding="UTF-8"?>
<svg height="16px" viewBox="0 0 16 16" width="16px" xmlns="http://www.w3.org/2000/svg">
    <g fill="#222222">
        <path d="m 7.5 10.996094 c -1.945312 0 -3.5 -1.554688 -3.5 -3.5 c 0 -1.945313 1.554688 -3.5 3.5 -3.5 s 3.5 1.554687 3.5 3.5 c 0 1.945312 -1.554688 3.5 -3.5 3.5 z m 0 -9 c -3.039062 0 -5.5 2.460937 -5.5 5.5 c 0 3.039062 2.460938 5.5 5.5 5.5 s 5.5 -2.460938 5.5 -5.5 c 0 -3.039063 -2.460938 -5.5 -5.5 -5.5 z m 0 0"/>
        <path d="m 3 6.996094 h 9 v 1 h -9 z m 0 0"/>
        <path d="m 4.199219 6.203125 c 2.199219 -0.292969 4.519531 -0.292969 6.714843 0 c 0.273438 0.035156 0.527344 -0.15625 0.5625 -0.429687 c 0.039063 -0.273438 -0.15625 -0.523438 -0.429687 -0.5625 c -2.285156 -0.304688 -4.691406 -0.304688 -6.980469 0 c -0.273437 0.039062 -0.464844 0.289062 -0.425781 0.5625 c 0.035156 0.273437 0.285156 0.464843 0.558594 0.429687 z m 0 0"/>
        <path d="m 4.199219 8.808594 c 2.199219 0.296875 4.519531 0.296875 6.714843 0 c 0.273438 -0.035156 0.527344 0.15625 0.5625 0.429687 c 0.039063 0.273438 -0.15625 0.527344 -0.429687 0.5625 c -2.285156 0.304688 -4.691406 0.304688 -6.980469 0 c -0.273437 -0.035156 -0.464844 -0.289062 -0.425781 -0.5625 c 0.035156 -0.273437 0.285156 -0.464843 0.558594 -0.429687 z m 0 0"/>
        <path d="m 6.976562 10.75 c -0.679687 -1.054688 -1.007812 -2.105469 -1.007812 -3.152344 s 0.328125 -2.097656 1.007812 -3.152344 c 0.097657 -0.148437 0.105469 -0.339843 0.027344 -0.5 c -0.082031 -0.160156 -0.242187 -0.261718 -0.421875 -0.269531 c -0.179687 -0.011719 -0.347656 0.078125 -0.445312 0.226563 c -1.558594 2.410156 -1.558594 4.980468 0 7.390625 c 0.097656 0.152343 0.265625 0.238281 0.445312 0.230469 c 0.179688 -0.011719 0.339844 -0.113282 0.417969 -0.273438 c 0.082031 -0.160156 0.074219 -0.347656 -0.023438 -0.5 z m 0 0"/>
        <path d="m 7.949219 10.75 c 0.679687 -1.054688 1.003906 -2.105469 1.003906 -3.152344 s -0.324219 -2.097656 -1.003906 -3.152344 c -0.097657 -0.148437 -0.109375 -0.339843 -0.027344 -0.5 c 0.082031 -0.15625 0.242187 -0.261718 0.421875 -0.269531 c 0.179688 -0.011719 0.347656 0.078125 0.445312 0.226563 c 1.554688 2.410156 1.554688 4.980468 0 7.390625 c -0.097656 0.152343 -0.265624 0.238281 -0.445312 0.230469 c -0.179688 -0.011719 -0.339844 -0.113282 -0.421875 -0.273438 s -0.070313 -0.347656 0.027344 -0.5 z m 0 0"/>
    </g>
</svg>
