<?xml version="1.0" encoding="UTF-8"?>
<svg height="16px" viewBox="0 0 16 16" width="16px" xmlns="http://www.w3.org/2000/svg">
    <path d="m 5.085938 1.9375 c -3.136719 -0.3125 -5.875 3.914062 -2.820313 6.613281 l 5.746094 5.117188 l 5.742187 -5.117188 c 2.589844 -2.238281 1.074219 -6.492187 -2.347656 -6.585937 c -0.972656 -0.027344 -1.921875 0.324218 -2.640625 0.984375 l -0.753906 0.675781 l -0.757813 -0.675781 c -0.699218 -0.628907 -1.445312 -0.941407 -2.167968 -1.011719 z m -0.097657 0.988281 c 0.507813 0.046875 1.039063 0.265625 1.597657 0.769531 h 0.003906 l 1.421875 1.269532 l 1.425781 -1.273438 l 0.003906 -0.007812 c 0.527344 -0.480469 1.222656 -0.738282 1.9375 -0.71875 c 1.300782 0.035156 2.15625 0.816406 2.511719 1.824218 c 0.359375 1.007813 0.195313 2.15625 -0.789063 3.003907 l -0.007812 0.007812 l -5.082031 4.527344 l -5.082031 -4.527344 c -0.753907 -0.664062 -0.992188 -1.332031 -0.996094 -2 c 0 -0.667969 0.285156 -1.351562 0.761718 -1.890625 c 0.480469 -0.535156 1.128907 -0.898437 1.789063 -0.976562 c 0.167969 -0.015625 0.335937 -0.019532 0.503906 -0.007813 z m 0 0" fill="#222222"/>
</svg>
