<?xml version="1.0" encoding="UTF-8"?>
<svg height="16px" viewBox="0 0 16 16" width="16px" xmlns="http://www.w3.org/2000/svg">
    <g fill="#222222">
        <path d="m 3.863281 0.0273438 c -0.105469 0.015625 -0.203125 0.046875 -0.300781 0.0937502 c -0.492188 0.246094 -0.691406 0.847656 -0.445312 1.339844 l 3.21875 6.4375 l 1.117187 -2.238282 l -2.546875 -5.09375 c -0.195312 -0.386718 -0.613281 -0.6054685 -1.042969 -0.5390622 z m 5.824219 10.1054682 l -1.117188 2.238282 l 1.546876 3.09375 c 0.171874 0.332031 0.519531 0.542968 0.894531 0.539062 v 0.011719 h 3.5 v -3 h -3.382813 z m 5.324219 2.882813 v 3 h 1 v -3 z m 0 0"/>
        <path d="m 12.160156 0.0273438 c -0.429687 -0.0664063 -0.847656 0.1523442 -1.042968 0.5390622 l -6.222657 12.449219 h -3.484375 v 3 h 3.601563 v -0.011719 c 0.375 0.003906 0.722656 -0.207031 0.894531 -0.539062 l 7 -14 c 0.246094 -0.496094 0.046875 -1.097656 -0.449219 -1.34375 c -0.09375 -0.0468752 -0.191406 -0.0781252 -0.296875 -0.0937502 z m -12.1484372 12.9882812 v 3 h 1.0000002 v -3 z m 0 0"/>
    </g>
</svg>
