<?xml version="1.0" encoding="UTF-8"?>
<svg height="16px" viewBox="0 0 16 16" width="16px" xmlns="http://www.w3.org/2000/svg">
    <path d="m 2 15 c 0 0.550781 0.449219 1 1 1 h 10 c 0.550781 0 1 -0.449219 1 -1 v -4 c 0 -2.046875 -1.941406 -3.964844 -3.949219 -4.015625 l -2.046875 -0.054687 c -0.011718 0 -0.019531 0 -0.027344 0 c -0.660156 0 -1.171874 -0.515626 -1.171874 -1.171876 c 0 -0.660156 0.511718 -1.171874 1.171874 -1.171874 c 0.523438 0 0.910157 0.269531 1.082032 0.746093 c 0.140625 0.402344 0.515625 0.667969 0.941406 0.667969 h 3 c 0.550781 0 1 -0.449219 1 -1 v -4 c 0 -0.550781 -0.449219 -1 -1 -1 h -10 c -0.550781 0 -1 0.449219 -1 1 z m 11 -13 l -1 -1 v 4 l 1 -1 h -3 l 0.941406 0.667969 c -0.449218 -1.277344 -1.628906 -2.082031 -2.964844 -2.082031 c -1.753906 0 -3.171874 1.417968 -3.171874 3.171874 c 0 1.753907 1.417968 3.171876 3.171874 3.171876 h -0.027343 l 2.050781 0.054687 c 0.410156 0.007813 0.953125 0.257813 1.355469 0.664063 c 0.40625 0.40625 0.644531 0.933593 0.644531 1.351562 v 4 l 1 -1 h -10 l 1 1 v -14 l -1 1 z m 0 0" fill="#222222"/>
</svg>
