<?xml version="1.0" encoding="UTF-8"?>
<svg height="16px" viewBox="0 0 16 16" width="16px" xmlns="http://www.w3.org/2000/svg">
    <g fill="#222222">
        <path d="m 6.015625 5.03125 c -0.550781 0 -1 0.449219 -1 1 c 0 0.554688 0.449219 1 1 1 s 1 -0.445312 1 -1 c 0 -0.550781 -0.449219 -1 -1 -1 z m 3.164063 2.175781 l -1.75 2.4375 c -0.101563 0.144531 -0.265626 0.234375 -0.4375 0.246094 c -0.175782 0.015625 -0.347657 -0.050781 -0.472657 -0.175781 l -0.410156 -0.417969 c -0.183594 -0.191406 -0.445313 -0.285156 -0.707031 -0.261719 c -0.261719 0.027344 -0.5 0.167969 -0.644532 0.386719 l -0.742187 1.109375 v 1 c 0 0.5 0.5 0.5 0.5 0.5 h 7 s 0.472656 -0.03125 0.5 -0.5 v -2.148438 c 0 -0.242187 -0.085937 -0.476562 -0.238281 -0.664062 l -1.277344 -1.554688 c -0.164062 -0.199218 -0.410156 -0.308593 -0.667969 -0.300781 c -0.261719 0.007813 -0.5 0.136719 -0.652343 0.34375 z m 0 0"/>
        <path d="m 4.015625 1.03125 c -1.644531 0 -3 1.355469 -3 3 v 8 c 0 1.648438 1.355469 3 3 3 h 8 c 1.644531 0 3 -1.351562 3 -3 v -8 c 0 -1.644531 -1.355469 -3 -3 -3 z m 0 2 h 8 c 0.570313 0 1 0.429688 1 1 v 8 c 0 0.574219 -0.429687 1 -1 1 h -8 c -0.570313 0 -1 -0.425781 -1 -1 v -8 c 0 -0.570312 0.429687 -1 1 -1 z m 0 0"/>
    </g>
</svg>
