<?xml version="1.0" encoding="UTF-8"?>
<svg height="16px" viewBox="0 0 16 16" width="16px" xmlns="http://www.w3.org/2000/svg">
    <path d="m 8 0 c -4.410156 0 -8 3.589844 -8 8 s 3.589844 8 8 8 s 8 -3.589844 8 -8 s -3.589844 -8 -8 -8 z m 0 2 c 1.234375 0 2.378906 0.367188 3.332031 1 h -2.832031 c -0.277344 0 -0.5 0.222656 -0.5 0.5 s 0.222656 0.5 0.5 0.5 h 3.980469 c 0.273437 0.304688 0.515625 0.640625 0.722656 1 h -5.703125 c -0.277344 0 -0.5 0.222656 -0.5 0.5 s 0.222656 0.5 0.5 0.5 h 6.160156 c 0.113282 0.320312 0.199219 0.65625 0.257813 1 h -7.417969 c -0.277344 0 -0.5 0.222656 -0.5 0.5 s 0.222656 0.5 0.5 0.5 h 7.5 c 0 0.339844 -0.027344 0.675781 -0.082031 1 h -7.417969 c -0.277344 0 -0.5 0.222656 -0.5 0.5 s 0.222656 0.5 0.5 0.5 h 7.160156 c -0.121094 0.351562 -0.277344 0.683594 -0.457031 1 h -5.703125 c -0.277344 0 -0.5 0.222656 -0.5 0.5 s 0.222656 0.5 0.5 0.5 h 4.980469 c -0.335938 0.378906 -0.722657 0.71875 -1.148438 1 h -2.832031 c -0.277344 0 -0.5 0.222656 -0.5 0.5 v 0.5 c -3.332031 0 -6 -2.667969 -6 -6 s 2.667969 -6 6 -6 z m 0 0" fill="#222222"/>
</svg>
