<?xml version="1.0" encoding="UTF-8"?>
<svg height="16px" viewBox="0 0 16 16" width="16px" xmlns="http://www.w3.org/2000/svg">
    <path d="m 8 -0.0117188 c -0.550781 0 -1 0.4492188 -1 0.9999998 v 14 c 0 0.550781 0.449219 1 1 1 s 1 -0.449219 1 -1 v -14 c 0 -0.550781 -0.449219 -0.9999998 -1 -0.9999998 z m 0 0"/>
    <path d="m 4 13.988281 c -0.550781 0 -1 0.449219 -1 1 s 0.449219 1 1 1 h 8 c 0.550781 0 1 -0.449219 1 -1 s -0.449219 -1 -1 -1 z m 0 0"/>
    <path d="m 8.035156 -0.0117188 c -0.394531 0.00781255 -0.746094 0.2460938 -0.902344 0.6093748 c -0.238281 0.566406 -0.875 0.933594 -1.882812 1.152344 c -1.007812 0.222656 -2.253906 0.238281 -3.25 0.238281 c -0.550781 0 -1 0.449219 -1 1 s 0.449219 1 1 1 c 1.003906 0 2.367188 0.003907 3.675781 -0.28125 c 0.875 -0.191406 1.695313 -0.648437 2.382813 -1.277343 c 0.6875 0.632812 1.496094 1.09375 2.355468 1.285156 c 1.273438 0.285156 2.585938 0.273437 3.585938 0.273437 c 0.550781 0 1 -0.449219 1 -1 s -0.449219 -1 -1 -1 c -1 0 -2.1875 -0.007812 -3.152344 -0.226562 c -0.960937 -0.214844 -1.589844 -0.570313 -1.890625 -1.203125 c -0.167969 -0.355469 -0.527343 -0.5781252 -0.921875 -0.5703128 z m 0 0"/>
    <path d="m 3 3.988281 c -0.222656 0 -0.417969 0.148438 -0.480469 0.363281 l -2 7 c -0.066406 0.234376 0.042969 0.480469 0.261719 0.585938 c 1.394531 0.679688 2.933594 0.765625 4.445312 -0.003906 c 0.210938 -0.109375 0.320313 -0.351563 0.253907 -0.582032 l -2 -7 c -0.0625 -0.214843 -0.257813 -0.363281 -0.480469 -0.363281 z m 0 2.320313 l 1.378906 4.832031 c -0.949218 0.378906 -1.851562 0.355469 -2.761718 0 z m 0 0"/>
    <path d="m 13 3.988281 c -0.222656 0 -0.417969 0.148438 -0.480469 0.363281 l -2 7 c -0.066406 0.234376 0.042969 0.480469 0.261719 0.585938 c 1.394531 0.679688 2.933594 0.765625 4.445312 -0.003906 c 0.210938 -0.109375 0.320313 -0.351563 0.253907 -0.582032 l -2 -7 c -0.0625 -0.214843 -0.257813 -0.363281 -0.480469 -0.363281 z m 0 2.320313 l 1.378906 4.832031 c -0.949218 0.378906 -1.851562 0.355469 -2.761718 0 z m 0 0"/>
    <path d="m 1.4375 10.589844 c -0.496094 -0.242188 -1.09375 -0.035156 -1.335938 0.460937 c -0.117187 0.238281 -0.132812 0.511719 -0.0468745 0.765625 c 0.0859375 0.25 0.2695315 0.457032 0.5078125 0.570313 c 1.503906 0.730469 3.253906 0.828125 4.890625 -0.007813 c 0.492187 -0.25 0.6875 -0.851562 0.4375 -1.34375 c -0.121094 -0.238281 -0.328125 -0.417968 -0.582031 -0.5 c -0.253906 -0.082031 -0.527344 -0.058594 -0.765625 0.0625 c -1.121094 0.574219 -2.027344 0.515625 -3.105469 -0.007812 z m 0 0"/>
    <path d="m 11.4375 10.589844 c -0.496094 -0.242188 -1.09375 -0.035156 -1.335938 0.460937 c -0.117187 0.238281 -0.132812 0.511719 -0.046874 0.765625 c 0.085937 0.25 0.269531 0.457032 0.507812 0.570313 c 1.503906 0.730469 3.253906 0.828125 4.890625 -0.007813 c 0.492187 -0.25 0.6875 -0.851562 0.4375 -1.34375 c -0.121094 -0.238281 -0.328125 -0.417968 -0.582031 -0.5 c -0.253906 -0.082031 -0.527344 -0.058594 -0.765625 0.0625 c -1.121094 0.574219 -2.027344 0.515625 -3.105469 -0.007812 z m 0 0"/>
</svg>
