<?xml version="1.0" encoding="UTF-8"?>
<svg height="16px" viewBox="0 0 16 16" width="16px" xmlns="http://www.w3.org/2000/svg">
    <g fill="#222222">
        <path d="m 5.652344 3.210938 c 1.984375 -1.980469 5.171875 -1.980469 7.15625 0 c 1.980468 1.984374 1.980468 5.171874 0 7.15625 l -4.175782 4.171874 h 1.195313 l -2.386719 -2.382812 v 1.191406 l 4.175782 -4.175781 c 1.3125 -1.3125 1.3125 -3.453125 0 -4.765625 c -1.316407 -1.316406 -3.457032 -1.3125 -4.769532 0.003906 l -4.164062 4.179688 h 1.191406 l -2.394531 -2.398438 v 1.195313 z m -2.96875 6.570312 c 0.160156 0.15625 0.375 0.246094 0.597656 0.246094 s 0.4375 -0.089844 0.597656 -0.246094 l 4.164063 -4.183594 c 0.664062 -0.664062 1.714843 -0.664062 2.378906 0 c 0.667969 0.664063 0.667969 1.71875 0 2.382813 l -4.171875 4.175781 c -0.328125 0.328125 -0.328125 0.859375 0 1.191406 l 2.382812 2.382813 c 0.332032 0.328125 0.863282 0.328125 1.195313 0 l 4.171875 -4.171875 c 2.632812 -2.632813 2.632812 -6.90625 0 -9.539063 c -2.632812 -2.632812 -6.90625 -2.632812 -9.539062 0 l -4.171876 4.171875 c -0.3281245 0.332032 -0.3281245 0.863282 0 1.195313 z m 0 0"/>
        <path d="m 2.34375 4.804688 l 0.707031 -0.707032 l 2.125 2.121094 l -0.707031 0.707031 z m 0 0"/>
        <path d="m 8.179688 10.726562 l 0.707031 -0.707031 l 2.472656 2.472657 l -0.707031 0.707031 z m 0 0"/>
    </g>
</svg>
