<?xml version="1.0" encoding="UTF-8"?>
<svg height="16px" viewBox="0 0 16 16" width="16px" xmlns="http://www.w3.org/2000/svg">
    <path d="m 12.5 0.00390625 c -0.828125 0 -1.5 0.67187475 -1.5 1.49999975 c 0 0.546875 0.296875 1.046875 0.773438 1.3125 l -2.25 2.25 c -0.132813 0.109375 -0.070313 0.214844 -0.015626 0.3125 c 0.148438 0.234375 0.304688 0.4375 0.460938 0.59375 c 0.171875 0.171875 0.410156 0.347656 0.683594 0.519532 c 0.175781 0.125 0.304687 -0.03125 0.304687 -0.03125 l 2.230469 -2.230469 c 0.265625 0.476562 0.765625 0.773437 1.3125 0.773437 c 0.828125 0 1.5 -0.671875 1.5 -1.5 s -0.671875 -1.5 -1.5 -1.5 c -0.5 0 -0.5 -0.5 -0.5 -0.5 c 0 -0.828125 -0.671875 -1.49999975 -1.5 -1.49999975 z m -4.714844 2.40234375 c -0.324218 -0.019531 -0.636718 0.261719 -0.71875 0.667969 c -0.144531 0.71875 -0.164062 1.132812 -1.066406 1.929687 c -0.558594 0.492188 -3 0.738282 -3 2 c 0 0 0 2 2 4 s 4 2 4 2 c 1 0 1.507812 -2.441406 2 -3 c 0.796875 -0.902344 0.851562 -0.417968 2.066406 -0.929687 c 0.472656 -0.203125 0.832032 -0.800781 0.644532 -1.277344 c -0.234376 -0.601563 -1.296876 -1.101563 -1.839844 -1.015625 c -0.519532 0.085938 -1.121094 1.003906 -1.398438 0.839844 c -0.644531 -0.382813 -0.796875 -0.488282 -1.171875 -0.859375 c -0.164062 -0.164063 -0.890625 -0.824219 -0.910156 -1.371094 c -0.015625 -0.523437 0.890625 -0.785156 0.785156 -1.363281 c -0.113281 -0.644532 -0.679687 -1.582032 -1.390625 -1.621094 z m -4.136718 8.535156 l -0.835938 0.835938 c -0.265625 -0.476563 -0.765625 -0.773438 -1.3125 -0.773438 c -0.828125 0 -1.5 0.671875 -1.5 1.5 s 0.671875 1.5 1.5 1.5 c 0.5 0 0.5 0.335938 0.5 0.5 c 0 0.828125 0.671875 1.5 1.5 1.5 s 1.5 -0.671875 1.5 -1.5 c 0 -0.546875 -0.296875 -1.046875 -0.773438 -1.3125 l 0.835938 -0.835937 c -0.246094 -0.191407 -0.5 -0.414063 -0.75 -0.664063 s -0.472656 -0.503906 -0.664062 -0.75 z m 0 0" fill="#222222"/>
</svg>
