<?xml version="1.0" encoding="UTF-8"?>
<svg height="16px" viewBox="0 0 16 16" width="16px" xmlns="http://www.w3.org/2000/svg">
    <g fill="#222222">
        <path d="m 2.019531 -0.00390625 c -1.214843 0 -1.9999998 0.82812525 -1.9999998 2.00000025 v 2.027344 h 13.9804688 v 9.972656 h -8.050781 v 2 h 8.050781 c 1 0 2 -1 2 -2 v -12 c 0 -1.238282 -0.824219 -2.00000025 -2 -2.00000025 z m 0 0"/>
        <path d="m 3.019531 12.996094 v -1 c 0 -0.257813 0.128907 -0.527344 0.3125 -0.71875 l 1.28125 -1.28125 h -4.5937498 v -2 h 4.5937498 l -1.28125 -1.28125 c -0.183593 -0.191406 -0.3125 -0.460938 -0.3125 -0.71875 v -1 h 1 c 0.308594 0 0.550781 0.089844 0.75 0.28125 l 3.65625 3.71875 l -3.65625 3.71875 c -0.199219 0.191406 -0.441406 0.28125 -0.75 0.28125 z m 0 0"/>
    </g>
</svg>
