<?xml version="1.0" encoding="UTF-8"?>
<svg height="16px" viewBox="0 0 16 16" width="16px" xmlns="http://www.w3.org/2000/svg">
    <path d="m 8.019531 15.996094 c 1.105469 0 2 -0.894532 2 -2 c 0 -1.105469 -0.894531 -2 -2 -2 s -2 0.894531 -2 2 c 0 1.105468 0.894531 2 2 2 z m 0 -5 c 0.410157 0 0.777344 -0.25 0.925781 -0.628906 c 2.027344 -5.0625 3.042969 -9.128907 3.042969 -9.128907 c 0.109375 -0.4375 -0.085937 -0.890625 -0.476562 -1.113281 c -0.390625 -0.21875 -0.882813 -0.1523438 -1.199219 0.164062 l -2.292969 2.292969 l -2.292969 -2.292969 c -0.316406 -0.3164058 -0.808593 -0.382812 -1.199218 -0.164062 c -0.390625 0.222656 -0.585938 0.675781 -0.480469 1.113281 c 0 0 1.019531 4.066407 3.042969 9.128907 c 0.152344 0.378906 0.519531 0.628906 0.929687 0.628906 z m 0 0" fill="#222222"/>
</svg>
