<?xml version="1.0" encoding="UTF-8"?>
<svg height="16px" viewBox="0 0 16 16" width="16px" xmlns="http://www.w3.org/2000/svg">
    <path d="m 1.570312 1.582031 c 0.78125 -0.78125 2.046876 -0.78125 2.828126 0 s 0.78125 2.046875 0 2.828125 s -2.046876 0.78125 -2.828126 0 s -0.78125 -2.046875 0 -2.828125 z m 3.5 3.464844 c 0.289063 -0.289063 0.722657 -0.371094 1.101563 -0.210937 c 5.011719 2.148437 8.605469 4.300781 8.605469 4.300781 c 0.871094 0.523437 0.5 1.859375 -0.515625 1.859375 h -3.242188 v 3.242187 c 0 1.015625 -1.335937 1.386719 -1.859375 0.515625 c 0 0 -2.152344 -3.59375 -4.300781 -8.605468 c -0.160156 -0.375 -0.078125 -0.8125 0.210937 -1.101563 z m 0 0" fill="#222222"/>
</svg>
