<?xml version="1.0" encoding="UTF-8"?>
<svg height="16px" viewBox="0 0 16 16" width="16px" xmlns="http://www.w3.org/2000/svg">
    <path d="m 8.019531 -0.00390625 c -1.105469 0 -2 0.89453125 -2 2.00000025 c 0 1.105468 0.894531 2 2 2 s 2 -0.894532 2 -2 c 0 -1.105469 -0.894531 -2.00000025 -2 -2.00000025 z m 0 5.00000025 c -0.410156 0 -0.777343 0.25 -0.929687 0.628906 c -2.023438 5.0625 -3.042969 9.128906 -3.042969 9.128906 c -0.105469 0.4375 0.089844 0.890625 0.480469 1.113282 c 0.390625 0.222656 0.882812 0.152343 1.199218 -0.164063 l 2.292969 -2.292969 l 2.292969 2.292969 c 0.316406 0.316406 0.808594 0.386719 1.199219 0.164063 c 0.390625 -0.222657 0.585937 -0.675782 0.476562 -1.113282 c 0 0 -1.015625 -4.066406 -3.042969 -9.128906 c -0.148437 -0.378906 -0.515624 -0.628906 -0.925781 -0.628906 z m 0 0" fill="#222222"/>
</svg>
