<?xml version="1.0" encoding="UTF-8"?>
<svg height="16px" viewBox="0 0 16 16" width="16px" xmlns="http://www.w3.org/2000/svg">
    <g fill="#222222">
        <path d="m 7.992188 12 c -0.699219 0 -1.351563 0.371094 -1.714844 0.972656 h -3.285156 c -0.550782 0 -1 0.449219 -1 1 c 0 0.550782 0.449218 1 1 1 h 3.25 c 0.351562 0.640625 1.023437 1.035156 1.75 1.039063 c 0.730468 -0.003907 1.402343 -0.398438 1.753906 -1.039063 h 3.257812 c 0.554688 0 1 -0.449218 1 -1 c 0 -0.550781 -0.445312 -1 -1 -1 h -3.292968 c -0.359376 -0.601562 -1.011719 -0.972656 -1.71875 -0.972656 z m 0 1 c 0.558593 0 1.007812 0.449219 1.007812 1.007812 c 0 0.554688 -0.449219 1.003907 -1.007812 1.003907 c -0.554688 0 -1.003907 -0.449219 -1.003907 -1.003907 c 0 -0.558593 0.449219 -1.007812 1.003907 -1.007812 z m 0 0"/>
        <path d="m 6.992188 10 h 2.007812 v 3 h -2.007812 z m 0 0"/>
        <path d="m 11.992188 2 c 1.128906 0 2.007812 0.878906 2.007812 2.007812 v 2.972657 c 0 1.128906 -0.878906 2.003906 -2.007812 2.003906 h -7.988282 c -1.125 0 -2.003906 -0.875 -2.003906 -2.003906 v -2.972657 c 0 -1.128906 0.878906 -2.007812 2.003906 -2.007812 z m -11.992188 2.007812 v 2.972657 c 0 2.21875 1.785156 4.003906 4.003906 4.003906 h 7.988282 c 2.222656 0 4.007812 -1.785156 4.007812 -4.003906 v -2.972657 c 0 -2.222656 -1.785156 -4.007812 -4.007812 -4.007812 h -7.988282 c -2.21875 0 -4.003906 1.785156 -4.003906 4.007812 z m 0 0"/>
        <path d="m 5 4 c 0.550781 0 1 0.449219 1 1 s -0.449219 1 -1 1 s -1 -0.449219 -1 -1 s 0.449219 -1 1 -1 z m 0 0"/>
        <path d="m 8 4 c 0.550781 0 1 0.449219 1 1 s -0.449219 1 -1 1 s -1 -0.449219 -1 -1 s 0.449219 -1 1 -1 z m 0 0"/>
    </g>
</svg>
