<?xml version="1.0" encoding="UTF-8"?>
<svg height="16px" viewBox="0 0 16 16" width="16px" xmlns="http://www.w3.org/2000/svg">
    <g fill="#222222">
        <path d="m 3.019531 1 c -1.652343 0 -3.0117185 1.363281 -3.0117185 3.015625 s 1.3593755 3.011719 3.0117185 3.011719 h 9.960938 c 1.652343 0 3.011719 -1.359375 3.011719 -3.011719 s -1.359376 -3.015625 -3.011719 -3.015625 z m 0 2 h 9.960938 c 0.578125 0 1.011719 0.4375 1.011719 1.015625 s -0.433594 1.011719 -1.011719 1.011719 h -9.960938 c -0.578125 0 -1.011719 -0.433594 -1.011719 -1.011719 s 0.433594 -1.015625 1.011719 -1.015625 z m 0 0"/>
        <path d="m 2 9 c 1.097656 0 2 0.902344 2 2 c 0 1.101562 -0.902344 2 -2 2 s -2 -0.898438 -2 -2 c 0 -1.097656 0.902344 -2 2 -2 z m 0 1 c -0.558594 0 -1 0.441406 -1 1 s 0.441406 1 1 1 s 1 -0.441406 1 -1 s -0.441406 -1 -1 -1 z m 0 0"/>
        <path d="m 7 6 v 2 c 0 1.117188 -0.882812 2 -2 2 h -1.5 v 2 h 1.5 c 1.191406 0 2.265625 -0.527344 3 -1.363281 c 0.734375 0.835937 1.808594 1.363281 3 1.363281 h 2 v -2 h -2 c -1.117188 0 -2 -0.882812 -2 -2 v -2 z m 0 0"/>
        <path d="m 7 5.875 v 6.5 h 2 v -6.5 z m 0 0"/>
        <path d="m 6 13.875 c 0 1.097656 0.902344 2 2 2 s 2 -0.902344 2 -2 s -0.902344 -2 -2 -2 s -2 0.902344 -2 2 z m 1 0 c 0 -0.558594 0.441406 -1 1 -1 s 1 0.441406 1 1 s -0.441406 1 -1 1 s -1 -0.441406 -1 -1 z m 0 0"/>
        <path d="m 14 9 c 1.097656 0 2 0.902344 2 2 c 0 1.101562 -0.902344 2 -2 2 s -2 -0.898438 -2 -2 c 0 -1.097656 0.902344 -2 2 -2 z m 0 1 c -0.558594 0 -1 0.441406 -1 1 s 0.441406 1 1 1 s 1 -0.441406 1 -1 s -0.441406 -1 -1 -1 z m 0 0"/>
        <path d="m 2.992188 1.992188 c -1.097657 0 -2 0.902343 -2 2 c 0 1.097656 0.902343 2 2 2 c 1.097656 0 2 -0.902344 2 -2 c 0 -1.097657 -0.902344 -2 -2 -2 z m 0 1 c 0.558593 0 1 0.441406 1 1 c 0 0.558593 -0.441407 1 -1 1 c -0.558594 0 -1 -0.441407 -1 -1 c 0 -0.558594 0.441406 -1 1 -1 z m 0 0"/>
    </g>
</svg>
