<?xml version="1.0" encoding="UTF-8"?>
<svg height="16px" viewBox="0 0 16 16" width="16px" xmlns="http://www.w3.org/2000/svg">
    <path d="m 3.492188 4 c -1.933594 0 -3.5000005 1.566406 -3.5000005 3.5 s 1.5664065 3.5 3.5000005 3.5 c 1.351562 0 2.578124 -0.777344 3.15625 -2 h 2.683593 c 0.582031 1.222656 1.808594 2 3.160157 2 c 1.933593 0 3.5 -1.566406 3.5 -3.5 s -1.566407 -3.5 -3.5 -3.5 c -0.136719 0.003906 -0.269532 0.011719 -0.40625 0.027344 c -0.042969 -0.011719 -0.085938 -0.027344 -0.136719 -0.027344 h -7.914063 c -0.046875 0 -0.089844 0.015625 -0.136718 0.027344 c -0.132813 -0.015625 -0.269532 -0.027344 -0.40625 -0.027344 z m 7.5 1 c 0.550781 0 1 0.449219 1 1 c 0 0.554688 -0.449219 1 -1 1 c -0.550782 0 -1 -0.445312 -1 -1 c 0 -0.550781 0.449218 -1 1 -1 z m -7.867188 1 h 0.734375 c 0.074219 0 0.132813 0.058594 0.132813 0.132812 v 0.867188 h 0.867187 c 0.074219 0 0.132813 0.058594 0.132813 0.132812 v 0.734376 c 0 0.074218 -0.058594 0.132812 -0.132813 0.132812 h -0.867187 v 0.867188 c 0 0.074218 -0.058594 0.132812 -0.132813 0.132812 h -0.734375 c -0.074219 0 -0.132812 -0.058594 -0.132812 -0.132812 v -0.867188 h -0.867188 c -0.074219 0 -0.132812 -0.058594 -0.132812 -0.132812 v -0.734376 c 0 -0.074218 0.058593 -0.132812 0.132812 -0.132812 h 0.867188 v -0.867188 c 0 -0.074218 0.058593 -0.132812 0.132812 -0.132812 z m 9.867188 1 c 0.550781 0 1 0.449219 1 1 c 0 0.554688 -0.449219 1 -1 1 c -0.550782 0 -1 -0.445312 -1 -1 c 0 -0.550781 0.449218 -1 1 -1 z m 0 0" fill="#222222"/>
</svg>
