<?xml version="1.0" encoding="UTF-8"?>
<svg height="16px" viewBox="0 0 16 16" width="16px" xmlns="http://www.w3.org/2000/svg">
    <g fill="#222222">
        <path d="m 2 0.988281 c -0.265625 0 -0.519531 0.105469 -0.707031 0.292969 c -0.390625 0.390625 -0.390625 1.023438 0 1.414062 l 12 12 c 0.390625 0.390626 1.023437 0.390626 1.414062 0 c 0.390625 -0.390624 0.390625 -1.023437 0 -1.414062 l -12 -12 c -0.1875 -0.1875 -0.441406 -0.292969 -0.707031 -0.292969 z m 0 0"/>
        <path d="m 5.949219 0.113281 c -0.753907 0.019531 -1.433594 0.460938 -1.757813 1.140625 c -0.203125 0.191406 -0.316406 0.457032 -0.316406 0.734375 v 0.5 c 0 0.128907 0.023438 0.253907 0.070312 0.371094 l 4.070313 6.238281 c 0.152344 0.378906 0.519531 0.625 0.929687 0.628906 l 2.234376 1.261719 l 2.046874 3.191407 c 0.144532 0.386718 0.40625 0.808593 0.824219 0.808593 h 0.824219 c 0.550781 0 1 -0.449219 1 -1 s -0.449219 -1 -1 -1 h -0.808594 l -1.257812 -3.351562 c -0.144532 -0.390625 -0.515625 -0.648438 -0.933594 -0.648438 h -3.324219 l -0.398437 -1 h 2.847656 c 0.550781 0 1 -0.449219 1 -1 s -0.449219 -1 -1 -1 h -3.648438 l -0.785156 -1.957031 c 0.851563 -0.253906 1.433594 -1.03125 1.433594 -1.917969 c 0 -1.105469 -0.894531 -2 -2 -2 c -0.015625 0 -0.03125 0 -0.050781 0 z m 0 0"/>
        <path d="m 2.851562 6.660156 c -0.257812 0.246094 -0.496093 0.519532 -0.703124 0.8125 l 1.398437 1.402344 c 0.179687 -0.320312 0.394531 -0.617188 0.660156 -0.859375 z m -1.269531 1.839844 c -0.164062 0.394531 -0.277343 0.8125 -0.339843 1.25 l 2.203124 2.203125 c -0.207031 -0.441406 -0.335937 -0.929687 -0.335937 -1.453125 c 0 -0.148438 0.027344 -0.289062 0.042969 -0.429688 z m -0.328125 2.851562 c 0.367188 2.234376 2.140625 4.007813 4.375 4.375 z m 7.710938 1.421876 c -0.242188 0.269531 -0.535156 0.484374 -0.855469 0.664062 l 1.375 1.371094 c 0.289063 -0.210938 0.554687 -0.453125 0.796875 -0.722656 z m -3.9375 0.761718 l 2.203125 2.203125 c 0.4375 -0.066406 0.851562 -0.183593 1.238281 -0.351562 l -1.558594 -1.558594 c -0.140625 0.019531 -0.277344 0.042969 -0.425781 0.042969 c -0.523437 0 -1.015625 -0.125 -1.457031 -0.335938 z m 0 0"/>
    </g>
</svg>
