<?xml version="1.0" encoding="UTF-8"?>
<svg height="16px" viewBox="0 0 16 16" width="16px" xmlns="http://www.w3.org/2000/svg">
    <g fill="#222222">
        <path d="m 1.019531 3.996094 v 1 h 1 v -1 z m 2 0 v 1 h 1 v -1 z m 8.96875 0 v 1 h 1 v -1 z m 2.03125 0 v 1 h 1 v -1 z m -13 8 v 1 h 1 v -1 z m 2 0 v 1 h 1 v -1 z m 8.96875 0 v 1 h 1 v -1 z m 2.03125 0 v 1 h 1 v -1 z m 0 0"/>
        <path d="m 5.019531 1.996094 h 6 v 12 h -6 z m 0 0"/>
        <path d="m 2.34375 6.289062 l -2.265625 2.222657 l 2.226563 2.148437 c 0.476562 0.550782 1.171874 0.503906 1.683593 -0.007812 l -2.214843 -2.140625 l 2.261718 -2.214844 c -0.511718 -0.574219 -1.222656 -0.46875 -1.691406 -0.007813 z m 0 0"/>
        <path d="m 13.675781 6.289062 l 2.265625 2.222657 l -2.226562 2.148437 c -0.476563 0.550782 -1.167969 0.503906 -1.683594 -0.007812 l 2.214844 -2.140625 l -2.261719 -2.214844 c 0.511719 -0.574219 1.226563 -0.46875 1.691406 -0.007813 z m 0 0"/>
    </g>
</svg>
