<?xml version="1.0" encoding="UTF-8"?>
<svg height="16px" viewBox="0 0 16 16" width="16px" xmlns="http://www.w3.org/2000/svg">
    <path d="m 7.519531 -0.00390625 c -4.15625 0 -7.4999998 3.34375025 -7.4999998 7.50000025 c 0 3.714844 2.6718748 6.777344 6.2070308 7.386718 c 0.328126 0.660157 1.003907 1.113282 1.792969 1.113282 h 5.980469 c 1.109375 0 2 -0.890625 2 -2 v -6 c 0 -0.78125 -0.441406 -1.453125 -1.09375 -1.78125 c -0.605469 -3.539063 -3.671875 -6.21875025 -7.386719 -6.21875025 z m -1.875 2.32421825 c -0.476562 0.503907 -0.867187 1.070313 -1.171875 1.675782 h -1.203125 v -0.003906 c 0.621094 -0.75 1.441407 -1.335938 2.375 -1.671876 z m 2.375 0.039063 c 0.605469 0.460937 1.101563 1.015625 1.480469 1.636719 h -1.480469 z m 1.496094 0.015625 c 0.886719 0.339844 1.65625 0.902344 2.246094 1.621094 h -1.121094 c -0.296875 -0.585938 -0.667969 -1.132813 -1.125 -1.621094 z m -2.496094 0.042969 v 1.578125 h -1.398437 c 0.363281 -0.59375 0.828125 -1.128906 1.398437 -1.578125 z m -4.402343 2.578125 h 1.441406 c -0.214844 0.644531 -0.347656 1.320312 -0.390625 2 h -1.625 c 0.0625 -0.714844 0.265625 -1.390625 0.574219 -2 z m 2.503906 0 h 1.898437 v 1.269531 c -0.304687 0.171875 -0.558593 0.425781 -0.734375 0.730469 h -1.613281 c 0.050781 -0.683594 0.199219 -1.359375 0.449219 -2 z m 2.898437 0 h 1.976563 c 0.128906 0.324218 0.230468 0.660156 0.304687 1 h -2.28125 z m 3.039063 0 h 1.363281 c 0.160156 0.316406 0.289063 0.652344 0.386719 1 h -1.488282 c -0.066406 -0.339844 -0.152343 -0.671875 -0.261718 -1 z m -9.019532 3 h 1.628907 c 0.042969 0.679687 0.175781 1.355468 0.394531 2 h -1.441406 c -0.3125 -0.609375 -0.515625 -1.285156 -0.582032 -2 z m 2.636719 0 h 1.34375 v 2 h -0.890625 c -0.253906 -0.636719 -0.402344 -1.316406 -0.453125 -2 z m 3.34375 0 h 1 c 0.242188 0.007812 0.421875 0.082031 0.6875 0.3125 l 1.3125 1.28125 l 1.28125 -1.28125 c 0.175781 -0.183594 0.433594 -0.300782 0.6875 -0.3125 h 1.03125 v 1 c 0.023438 0.28125 -0.070312 0.554687 -0.28125 0.75 l -1.28125 1.28125 l 1.28125 1.25 c 0.1875 0.1875 0.28125 0.453125 0.28125 0.71875 v 1 h -1 c -0.265625 -0.007813 -0.53125 -0.09375 -0.71875 -0.28125 l -1.28125 -1.28125 l -1.28125 1.28125 c -0.175781 0.199218 -0.453125 0.28125 -0.71875 0.28125 h -1 v -1 c -0.003906 -0.265625 0.09375 -0.53125 0.28125 -0.71875 l 1.25 -1.25 l -1.28125 -1.28125 c -0.214843 -0.199219 -0.25 -0.464844 -0.25 -0.75 z m -4.75 3 h 1.210938 c 0.308593 0.605468 0.703125 1.175781 1.1875 1.675781 c -0.945313 -0.335937 -1.773438 -0.917969 -2.398438 -1.675781 z m 2.359375 0 h 0.390625 v 0.554687 c -0.140625 -0.179687 -0.269531 -0.363281 -0.390625 -0.554687 z m 0 0" fill="#222222"/>
</svg>
