<?xml version="1.0" encoding="UTF-8"?>
<svg height="16px" viewBox="0 0 16 16" width="16px" xmlns="http://www.w3.org/2000/svg">
    <path d="m 2.992188 -0.0078125 c -0.796876 0 -1.558594 0.3164065 -2.121094 0.8789065 s -0.8789065 1.324218 -0.8789065 2.121094 v 6 c 0 0.519531 0.1328125 1.035156 0.4023435 1.5 c 0.535157 0.925781 1.527344 1.5 2.597657 1.5 h 7 v 4 h 3 c 1.070312 0 2.0625 -0.574219 2.597656 -1.5 c 0.269531 -0.464844 0.402344 -0.984376 0.402344 -1.5 h 0.007812 l -0.007812 -7 c 0 -0.003907 0 -0.007813 0 -0.015626 c 0 -0.792968 -0.316407 -1.558593 -0.878907 -2.121093 c -0.5625 -0.558594 -1.324219 -0.878907 -2.121093 -0.878907 c -0.058594 0 -0.121094 0.003907 -0.179688 0.015626 h -6.820312 v -3.0000005 z m 0 2.0000005 h 1 v 4 h -1 c -0.347657 0 -0.683594 0.066406 -1 0.175781 v -3.175781 c 0 -0.265626 0.105468 -0.519532 0.292968 -0.707032 s 0.441406 -0.292968 0.707032 -0.292968 z m 10 2.988281 c 0.265624 0 0.519531 0.101562 0.707031 0.292969 c 0.1875 0.1875 0.292969 0.441406 0.292969 0.707031 v 0.066406 l 0.003906 4.125 c -0.316406 -0.113281 -0.65625 -0.179687 -1.003906 -0.179687 h -10 c -0.359376 0 -0.6875 -0.1875 -0.867188 -0.5 c -0.089844 -0.15625 -0.132812 -0.328126 -0.132812 -0.5 c 0 -0.171876 0.042968 -0.34375 0.132812 -0.5 c 0.179688 -0.3125 0.507812 -0.5 0.867188 -0.5 h 3 v -3 h 7 z m -1 7.011719 h 1 c 0.359374 0 0.6875 0.1875 0.867187 0.5 s 0.179687 0.6875 0 1 s -0.507813 0.5 -0.867187 0.5 h -1 z m 0 0" fill="#222222"/>
</svg>
