<?xml version="1.0" encoding="UTF-8"?>
<svg height="16px" viewBox="0 0 16 16" width="16px" xmlns="http://www.w3.org/2000/svg">
    <g fill="#222222">
        <path d="m 7 5 c 0.195312 0 0.390625 0.058594 0.554688 0.167969 l 3 2 c 0.59375 0.394531 0.59375 1.269531 0 1.664062 l -3 2 c -0.164063 0.109375 -0.359376 0.167969 -0.554688 0.167969 c 0 0 -1 0 -1 -1 v -4 c 0 -1 1 -1 1 -1 z m 0 0"/>
        <path d="m 10.464844 3.570312 c 2.117187 1.253907 3.027344 3.824219 2.171875 6.128907 c -0.859375 2.308593 -3.230469 3.65625 -5.648438 3.222656 c -2.421875 -0.4375 -4.171875 -2.527344 -4.171875 -4.988281 c 0 -0.550782 -0.449218 -1 -1 -1 c -0.550781 0 -1 0.449218 -1 1 c 0 3.421875 2.449219 6.351562 5.816406 6.957031 c 3.367188 0.605469 6.683594 -1.285156 7.875 -4.492187 c 1.195313 -3.207032 -0.078124 -6.804688 -3.023437 -8.546876 c -0.476563 -0.28125 -1.089844 -0.125 -1.371094 0.351563 c -0.28125 0.472656 -0.121093 1.085937 0.351563 1.367187 z m 0 0"/>
        <path d="m 3.40625 8.949219 h -2.804688 c -0.210937 0 -0.40625 -0.109375 -0.5156245 -0.289063 c -0.109375 -0.183594 -0.1132813 -0.40625 -0.015625 -0.59375 l 1.4140625 -2.644531 c 0.09375 -0.175781 0.273437 -0.285156 0.476563 -0.289063 c 0.199218 0 0.382812 0.105469 0.480468 0.28125 l 1.480469 2.664063 c 0.101563 0.179687 0.097656 0.402344 -0.007813 0.582031 c -0.105468 0.179688 -0.296874 0.289063 -0.507812 0.289063 z m 0 0"/>
        <path d="m 3.625 5.390625 l -2.085938 -1.628906 c -0.167968 -0.128907 -0.253906 -0.335938 -0.226562 -0.546875 c 0.027344 -0.207032 0.160156 -0.386719 0.351562 -0.472656 l 2.375 -1.046876 c 0.1875 -0.082031 0.40625 -0.058593 0.570313 0.0625 c 0.167969 0.121094 0.253906 0.324219 0.230469 0.527344 l -0.3125 2.726563 c -0.023438 0.199219 -0.152344 0.375 -0.339844 0.453125 s -0.402344 0.050781 -0.5625 -0.074219 z m 0 0"/>
        <path d="m 5.835938 3.304688 l -0.269532 -2.535157 c -0.023437 -0.210937 0.066406 -0.421875 0.234375 -0.550781 c 0.167969 -0.1328125 0.394531 -0.1640625 0.59375 -0.089844 l 2.65625 1.007813 c 0.183594 0.070312 0.3125 0.234375 0.335938 0.429687 c 0.023437 0.195313 -0.0625 0.386719 -0.222657 0.496094 l -2.402343 1.667969 c -0.171875 0.117187 -0.394531 0.136719 -0.585938 0.050781 c -0.1875 -0.085938 -0.320312 -0.269531 -0.339843 -0.476562 z m 0 0"/>
    </g>
</svg>
