<?xml version="1.0" encoding="UTF-8"?>
<svg height="16px" viewBox="0 0 16 16" width="16px" xmlns="http://www.w3.org/2000/svg">
    <g fill="#222222">
        <path d="m 2 0 c -0.550781 0 -1 0.449219 -1 1 v 0.695312 c 0 0.535157 0.4375 1.058594 0.753906 1.230469 c 0.101563 0.058594 0.140625 0.054688 0.222656 0.085938 c -0.121093 0.050781 -0.195312 0.050781 -0.339843 0.15625 c -0.335938 0.25 -0.636719 0.796875 -0.636719 1.296875 s 0.257812 1.027344 0.574219 1.304687 c 0.167969 0.148438 0.285156 0.171875 0.429687 0.242188 c -0.128906 0.054687 -0.222656 0.0625 -0.382812 0.1875 c -0.335938 0.257812 -0.621094 0.800781 -0.621094 1.300781 s 0.316406 1.089844 0.710938 1.332031 c 0.394531 0.246094 0.714843 0.257813 0.9375 0.277344 c 0.082031 0.011719 0.054687 0.007813 0.109374 0.011719 c 0.179688 0.230468 0.453126 0.367187 0.742188 0.378906 c 0.550781 0 1 -0.445312 1 -1 c 0 -0.265625 -0.097656 -0.601562 -0.296875 -0.835938 c -0.140625 -0.171874 -0.292969 -0.230468 -0.441406 -0.300781 c 0.046875 -0.03125 0.070312 -0.019531 0.117187 -0.054687 c 0.335938 -0.261719 0.621094 -0.808594 0.621094 -1.308594 s -0.320312 -1.03125 -0.640625 -1.269531 c -0.179687 -0.132813 -0.289063 -0.152344 -0.425781 -0.210938 c 0.148437 -0.058593 0.261718 -0.070312 0.441406 -0.210937 c 0.339844 -0.261719 0.625 -0.808594 0.625 -1.308594 s -0.269531 -1.03125 -0.601562 -1.300781 c -0.328126 -0.269531 -0.636719 -0.355469 -0.855469 -0.421875 c -0.027344 -0.007813 -0.015625 -0.003906 -0.042969 -0.015625 v -0.261719 c 0 -0.550781 -0.449219 -1 -1 -1 z m 0.5 8.5 c 0.023438 0.167969 0.089844 0.324219 0.1875 0.457031 c -0.007812 -0.007812 -0.011719 -0.003906 -0.023438 -0.015625 c -0.113281 -0.136718 -0.164062 -0.34375 -0.164062 -0.441406 z m 0 0"/>
        <path d="m 12.351562 0.0078125 c -0.972656 -0.0585937 -2.023437 0.3164065 -2.855468 1.1484375 l -8.339844 8.339844 c -0.832031 0.835937 -1.2070312 1.886718 -1.15234375 2.855468 c 0.05859375 0.972657 0.50390575 1.84375 1.15234375 2.492188 c 0.652344 0.652344 1.523438 1.09375 2.492188 1.152344 c 0.972656 0.058594 2.023437 -0.316406 2.855468 -1.152344 l 8.339844 -8.335938 c 0.832031 -0.835937 1.210938 -1.886718 1.152344 -2.855468 c -0.058594 -0.972656 -0.503906 -1.84375 -1.152344 -2.496094 c -0.648438 -0.648438 -1.519531 -1.0898438 -2.492188 -1.1484375 z m -0.117187 1.9960935 c 0.421875 0.023438 0.859375 0.234375 1.195313 0.566406 c 0.335937 0.335938 0.546874 0.777344 0.570312 1.195313 c 0.023438 0.421875 -0.089844 0.847656 -0.570312 1.324219 l -8.339844 8.339844 c -0.476563 0.480468 -0.902344 0.59375 -1.324219 0.570312 c -0.417969 -0.023438 -0.859375 -0.234375 -1.195313 -0.570312 c -0.332031 -0.335938 -0.542968 -0.773438 -0.570312 -1.195313 c -0.023438 -0.417969 0.09375 -0.84375 0.570312 -1.320313 l 8.339844 -8.34375 c 0.480469 -0.476562 0.902344 -0.589843 1.324219 -0.566406 z m 0 0"/>
        <path d="m 14 3.996094 l -0.050781 8.09375 c -0.007813 0.921875 -1.019531 1.910156 -1.949219 1.910156 v -5 h -2 v 7 h 2 c 2.128906 0 3.9375 -1.757812 3.949219 -3.898438 l 0.050781 -8.09375 z m 0 0"/>
        <path d="m 5 12 c 0 0.554688 -0.449219 1 -1 1 s -1 -0.445312 -1 -1 c 0 -0.550781 0.449219 -1 1 -1 s 1 0.449219 1 1 z m 0 0"/>
        <path d="m 13 4 c 0 0.554688 -0.449219 1 -1 1 s -1 -0.445312 -1 -1 c 0 -0.550781 0.449219 -1 1 -1 s 1 0.449219 1 1 z m 0 0"/>
    </g>
</svg>
