<?xml version="1.0" encoding="UTF-8"?>
<svg height="16px" viewBox="0 0 16 16" width="16px" xmlns="http://www.w3.org/2000/svg">
    <path d="m 2.976562 1 c -1.085937 0 -1.964843 0.878906 -1.964843 1.96875 v 9.0625 c 0 1.089844 0.878906 1.96875 1.964843 1.96875 h 3.027344 l 2.007813 2.007812 l 2.003906 -2.007812 h 3.027344 c 1.089843 0 1.96875 -0.878906 1.96875 -1.96875 v -9.0625 c 0 -1.089844 -0.878907 -1.96875 -1.96875 -1.96875 z m 7.445313 3 c 1.097656 0.03125 2.066406 0.734375 2.433594 1.765625 c 0.371093 1.035156 0.066406 2.191406 -0.765625 2.910156 l -4.074219 3.628907 l -4.074219 -3.628907 c -1.097656 -0.980469 -1.195312 -2.660156 -0.21875 -3.757812 c 0.976563 -1.097657 2.660156 -1.195313 3.757813 -0.21875 l 0.535156 0.476562 l 0.535156 -0.476562 c 0.511719 -0.464844 1.183594 -0.714844 1.871094 -0.699219 z m 0 0" fill="#222222"/>
</svg>
