<?xml version="1.0" encoding="UTF-8"?>
<svg height="16px" viewBox="0 0 16 16" width="16px" xmlns="http://www.w3.org/2000/svg">
    <g fill="#222222">
        <path d="m 3.992188 9 c -1.089844 0 -2 -0.910156 -2 -2 v -5 c 0 -1.089844 0.910156 -2 2 -2 h 6.078124 c 0.578126 0 1.132813 0.246094 1.515626 0.679688 l 1.816406 2.046874 c 0.378906 0.429688 0.589844 0.980469 0.589844 1.550782 v 2.722656 c 0 1.089844 -0.910157 2 -2 2 z m 0 -2.980469 h 8 v -2.023437 l -1.933594 -1.996094 h -6.066406 z m 0 0"/>
        <path d="m 1.992188 10.988281 c -1.109376 0 -2.0000005 -0.890625 -2.0000005 -2 v -1.988281 c 0 -1.109375 0.8906245 -2 2.0000005 -2 h 1 v 2 c 0 0.554688 0.445312 1 1 1 h 8 c 0.554687 0 1 -0.445312 1 -1 v -2 h 1 c 1.109374 0 2 0.890625 2 2 v 1.988281 c 0 1.109375 -0.890626 2 -2 2 z m 0 0"/>
        <path d="m 7.984375 12 c -0.699219 0 -1.351563 0.371094 -1.714844 0.972656 h -3.285156 c -0.550781 0 -1 0.449219 -1 1 c 0 0.550782 0.449219 1 1 1 h 3.25 c 0.351563 0.640625 1.023437 1.035156 1.75 1.039063 c 0.730469 -0.003907 1.402344 -0.398438 1.753906 -1.039063 h 3.257813 c 0.554687 0 1 -0.449218 1 -1 c 0 -0.550781 -0.445313 -1 -1 -1 h -3.292969 c -0.359375 -0.601562 -1.011719 -0.972656 -1.71875 -0.972656 z m 0 1 c 0.558594 0 1.007813 0.449219 1.007813 1.003906 c 0 0.558594 -0.449219 1.007813 -1.007813 1.007813 c -0.554687 0 -1.003906 -0.449219 -1.003906 -1.007813 c 0 -0.554687 0.449219 -1.003906 1.003906 -1.003906 z m 0 0"/>
        <path d="m 6.984375 10 h 2.007813 v 3 h -2.007813 z m 0 0"/>
    </g>
</svg>
