<?xml version="1.0" encoding="UTF-8"?>
<svg height="16px" viewBox="0 0 16 16" width="16px" xmlns="http://www.w3.org/2000/svg">
    <path d="m 3 1 c -1.664062 0 -3 1.339844 -3 3 v 7 c 0 1.660156 1.335938 3 3 3 h 10 c 1.660156 0 3 -1.339844 3 -3 v -7 c 0 -1.660156 -1.339844 -3 -3 -3 z m 0 2 h 10 c 0.554688 0 1 0.445312 1 1 v 7 c 0 0.554688 -0.445312 1 -1 1 h -10 c -0.554688 0 -1 -0.445312 -1 -1 v -7 c 0 -0.554688 0.445312 -1 1 -1 z m 4.976562 1 c -1.101562 0 -2 0.894531 -2 2 c 0.003907 0.71875 0.394532 1.382812 1.023438 1.738281 v 2.261719 c 0 0.554688 0.445312 1 1 1 s 1 -0.445312 1 -1 v -2.285156 c 0.605469 -0.359375 0.976562 -1.011719 0.976562 -1.714844 c 0 -1.105469 -0.894531 -2 -2 -2 z m -3.976562 11 s 1 1 4 1 s 4 -1 4 -1 z m 0 0" fill="#222222"/>
</svg>
