<?xml version="1.0" encoding="UTF-8"?>
<svg height="16px" viewBox="0 0 16 16" width="16px" xmlns="http://www.w3.org/2000/svg">
    <g fill="#222222">
        <path d="m 10.042969 6.992188 c -0.566407 0 -1.023438 0.425781 -1.042969 0.964843 h -0.988281 c -1.113281 0 -2.011719 0.898438 -2.011719 2.011719 v 4.011719 c 0 1.113281 0.898438 2.011719 2.011719 2.011719 h 5.976562 c 1.113281 0 2.011719 -0.898438 2.011719 -2.011719 v -4.011719 c 0 -1.113281 -0.898438 -2.011719 -2.011719 -2.011719 h -0.992187 c -0.019532 -0.539062 -0.472656 -0.964843 -1.039063 -0.964843 z m 0.957031 3 c 1.105469 0 2 0.894531 2 2 c 0 1.105468 -0.894531 2 -2 2 s -2 -0.894532 -2 -2 c 0 -1.105469 0.894531 -2 2 -2 z m 0 0"/>
        <path d="m 3.007812 11.976562 h -0.316406 c -1.503906 0 -2.722656 -1.21875 -2.722656 -2.722656 v -0.269531 c 0 -0.550781 0.445312 -1 1 -1 c 0.550781 0 1 0.449219 1 1 v 0.269531 c 0 0.414063 0.3125 0.722656 0.722656 0.722656 h 0.316406 c 0.550782 0 1 0.449219 1 1 c 0 0.554688 -0.449218 1 -1 1 z m 0 0"/>
        <path d="m 14 3.03125 v -0.316406 c 0 -0.410156 -0.3125 -0.722656 -0.722656 -0.722656 h -0.273438 c -0.550781 0 -1 -0.449219 -1 -1 c 0 -0.550782 0.449219 -1.0000005 1 -1.0000005 h 0.273438 c 1.503906 0 2.722656 1.2187505 2.722656 2.7226565 v 0.316406 c 0 0.554688 -0.449219 1 -1 1 s -1 -0.445312 -1 -1 z m 0 0"/>
        <path d="m 0 3.03125 v -0.316406 c 0 -1.503906 1.21875 -2.7226565 2.722656 -2.7226565 h 0.269532 c 0.554687 0 1 0.4492185 1 1.0000005 c 0 0.550781 -0.445313 1 -1 1 h -0.269532 c -0.410156 0 -0.722656 0.3125 -0.722656 0.722656 v 0.316406 c 0 0.554688 -0.449219 1 -1 1 s -1 -0.445312 -1 -1 z m 0 0"/>
    </g>
</svg>
