<?xml version="1.0" encoding="UTF-8"?>
<svg height="16px" viewBox="0 0 16 16" width="16px" xmlns="http://www.w3.org/2000/svg">
    <path d="m 2.992188 0.992188 c -0.796876 0 -1.558594 0.316406 -2.121094 0.878906 s -0.8789065 1.324218 -0.8789065 2.121094 v 8 c 0 0.519531 0.1328125 1.035156 0.4023435 1.5 c 0.535157 0.925781 1.527344 1.5 2.597657 1.5 h 10 c 1.070312 0 2.0625 -0.574219 2.597656 -1.5 c 0.269531 -0.464844 0.402344 -0.980469 0.402344 -1.5 v -8 c 0 -0.796876 -0.316407 -1.558594 -0.878907 -2.121094 s -1.324219 -0.878906 -2.121093 -0.878906 h -3 v 4 h -4 v -4 z m 0 2 h 1 v 6 h -1 c -0.347657 0 -0.683594 0.066406 -1 0.175781 v -5.175781 c 0 -0.265626 0.105468 -0.519532 0.292968 -0.707032 s 0.441406 -0.292968 0.707032 -0.292968 z m 9 0 h 1 c 0.265624 0 0.519531 0.105468 0.707031 0.292968 s 0.292969 0.441406 0.292969 0.707032 v 5.175781 c -0.316407 -0.109375 -0.652344 -0.175781 -1 -0.175781 h -1 z m -6 4 h 4 v 4 h 3 c 0.359374 0 0.6875 0.1875 0.867187 0.5 c 0.085937 0.152343 0.128906 0.316406 0.132813 0.484374 v 0.015626 c 0 0.171874 -0.042969 0.34375 -0.132813 0.5 c -0.179687 0.3125 -0.507813 0.5 -0.867187 0.5 h -10 c -0.359376 0 -0.6875 -0.1875 -0.867188 -0.5 c -0.175781 -0.3125 -0.175781 -0.6875 0 -1 c 0.179688 -0.3125 0.507812 -0.5 0.867188 -0.5 h 3 z m 0 0" fill="#222222"/>
</svg>
