<?xml version="1.0" encoding="UTF-8"?>
<svg height="16px" viewBox="0 0 16 16" width="16px" xmlns="http://www.w3.org/2000/svg">
    <g fill="#222222">
        <path d="m 3 4 c -0.5625 0 -1 -0.4375 -1 -1 s 0.4375 -1 1 -1 s 1 0.4375 1 1 s -0.4375 1 -1 1 z m 0 -4 c -1.65625 0 -3 1.34375 -3 3 s 1.34375 3 3 3 s 3 -1.34375 3 -3 s -1.34375 -3 -3 -3 z m 0 0"/>
        <path d="m 5 8 l 0.28125 -0.699219 l -0.984375 1.015625 c -0.832031 0.855469 -1.296875 2 -1.296875 3.191406 v 0.070313 c 0.179688 2.617187 2.449219 4.597656 5.066406 4.417969 l -0.066406 0.003906 h 7.972656 v -3 c 0 -2.207031 -1.796875 -4 -4 -4 h -0.972656 l 1 1 v -1.355469 c 0 -2.179687 -1.382812 -4.113281 -3.441406 -4.824219 l -3.558594 -1.222656 z m 2.90625 -2.285156 c 1.257812 0.429687 2.09375 1.601562 2.09375 2.929687 v 2.355469 h 1.972656 c 1.117188 0 2 0.882812 2 2 v 2 l 1 -1 h -7.007812 l -0.03125 0.003906 c -1.53125 0.101563 -2.832032 -1.035156 -2.9375 -2.5625 l 0.003906 0.066406 c 0 -0.671874 0.261719 -1.316406 0.730469 -1.796874 l 1.269531 -1.304688 v -4.40625 l -1.324219 0.945312 z m 0 0"/>
        <path d="m 7.976562 15 h 2.945313 c 0.027344 -0.164062 0.039063 -0.332031 0.039063 -0.5 c 0 -1.730469 -1.453126 -2.46875 -2.984376 -2.46875 c -0.273437 0 -0.5 0.226562 -0.5 0.5 c 0 0.277344 0.226563 0.5 0.5 0.5 c 0.589844 0 1.113282 0.136719 1.453126 0.375 c 0.167968 0.117188 0.296874 0.257812 0.386718 0.433594 c 0.089844 0.171875 0.144532 0.382812 0.144532 0.660156 l 0.5 -0.5 h -2.484376 c -0.273437 0 -0.5 0.222656 -0.5 0.5 s 0.226563 0.5 0.5 0.5 z m 0 0"/>
        <path d="m 9 7.5 c 0 0.277344 -0.222656 0.5 -0.5 0.5 s -0.5 -0.222656 -0.5 -0.5 s 0.222656 -0.5 0.5 -0.5 s 0.5 0.222656 0.5 0.5 z m 0 0" fill-rule="evenodd"/>
    </g>
</svg>
