<?xml version="1.0" encoding="UTF-8"?>
<svg height="16px" viewBox="0 0 16 16" width="16px" xmlns="http://www.w3.org/2000/svg">
    <g fill="#222222">
        <path d="m 3.519531 0.00390625 c -0.257812 0 -0.511719 0.09765575 -0.707031 0.29296875 l -2.5 2.5 c -0.390625 0.386719 -0.390625 1.023437 0 1.414063 l 2.5 2.496093 c 0.390625 0.390625 1.023438 0.390625 1.414062 0 l 2.5 -2.496093 c 0.390626 -0.390626 0.390626 -1.027344 0 -1.414063 l -2.5 -2.5 c -0.195312 -0.195313 -0.453124 -0.29296875 -0.707031 -0.29296875 z m 0 1.99218775 l 1.503907 1.503906 l -1.503907 1.503906 l -1.503906 -1.503906 z m 0 0"/>
        <path d="m 12.519531 0 c -1.929687 0 -3.496093 1.566406 -3.496093 3.5 c 0 1.929688 1.566406 3.496094 3.496093 3.496094 c 1.933594 0 3.5 -1.566406 3.5 -3.496094 c 0 -1.933594 -1.566406 -3.5 -3.5 -3.5 z m 0 1.996094 c 0.832031 0 1.503907 0.671875 1.503907 1.503906 c 0 0.828125 -0.671876 1.5 -1.503907 1.5 c -0.828125 0 -1.5 -0.671875 -1.5 -1.5 c 0 -0.832031 0.671875 -1.503906 1.5 -1.503906 z m 0 0"/>
        <path d="m 7.957031 9 c -0.339843 0.015625 -0.644531 0.203125 -0.8125 0.496094 l -2.320312 4 c -0.386719 0.664062 0.09375 1.5 0.863281 1.5 h 4.644531 c 0.769531 0 1.25 -0.835938 0.863281 -1.5 l -2.320312 -4 c -0.1875 -0.328125 -0.542969 -0.519532 -0.917969 -0.496094 z m 0 0"/>
        <path d="m 2.019531 6.996094 h 12 c 0.550781 0 1 0.449218 1 1 c 0 0.550781 -0.449219 1 -1 1 h -12 c -0.550781 0 -1 -0.449219 -1 -1 c 0 -0.550782 0.449219 -1 1 -1 z m 0 0"/>
    </g>
</svg>
