<?xml version="1.0" encoding="UTF-8"?>
<svg height="16px" viewBox="0 0 16 16" width="16px" xmlns="http://www.w3.org/2000/svg">
    <g fill="#222222">
        <path d="m -0.0195312 0 v 15.96875 h 15.9687502 v -15.96875 z m 2.0312502 2.992188 h 12 v 11.007812 h -12 v -2.007812 h 0.003906 h 0.984375 c 0.5625 0 1.015625 -0.453126 1.015625 -1.015626 v -4.96875 c 0 -0.5625 -0.453125 -1.015624 -1.015625 -1.015624 h -0.984375 h -0.003906 z m 0 0"/>
        <path d="m 9.039062 3.992188 h 0.660157 h 0.023437 c 0.167969 0.007812 0.335938 0.085937 0.453125 0.207031 l 0.84375 0.84375 l 0.867188 -0.84375 c 0.175781 -0.152344 0.292969 -0.203125 0.453125 -0.207031 h 0.660156 v 0.660156 c 0 0.1875 -0.023438 0.363281 -0.164062 0.496094 l -0.847657 0.84375 l 0.824219 0.824218 c 0.125 0.125 0.1875 0.300782 0.1875 0.476563 v 0.65625 h -0.660156 c -0.175782 0 -0.351563 -0.058594 -0.472656 -0.183594 l -0.847657 -0.84375 l -0.84375 0.84375 c -0.125 0.125 -0.300781 0.183594 -0.476562 0.183594 h -0.660157 v -0.65625 c 0 -0.175781 0.0625 -0.351563 0.1875 -0.476563 l 0.84375 -0.824218 l -0.84375 -0.84375 c -0.140624 -0.128907 -0.199218 -0.3125 -0.1875 -0.496094 z m 0 0"/>
        <path d="m 6.046875 4.992188 c -0.578125 0 -1.046875 0.46875 -1.046875 1.046874 v 4.902344 c 0 0.582032 0.46875 1.050782 1.046875 1.050782 h 4.902344 c 0.582031 0 1.050781 -0.46875 1.050781 -1.050782 v -1.949218 h -2.953125 c -0.578125 0 -1.046875 -0.46875 -1.046875 -1.050782 v -2.949218 z m 0 0"/>
    </g>
</svg>
