<?xml version="1.0" encoding="UTF-8"?>
<svg height="16px" viewBox="0 0 16 16" width="16px" xmlns="http://www.w3.org/2000/svg">
    <path d="m 4 0 c -2 0 -2 2 -2 2 v 12 c 0 2 2 2 2 2 h 8 s 2 0 2 -2 v -11 l -3 -3 z m 1 6 l 0.996094 0.007812 v 2 h -2 l 0.003906 -1.007812 s 0 -1 1 -1 z m 6 0 c 1 0 1 1 1 1 l -0.003906 1 h -2 v -2 z m -4.003906 0.007812 h 2 v 2 h -2 z m -3 2.996094 h 8 v 1.996094 h 0.003906 v 2 c 0 1 -1 1 -1 1 l -1.003906 -0.003906 l 0.003906 -2.996094 h -6.003906 z m 6.003906 2 h 1.996094 v -0.003906 h -1.996094 z m -6.003906 1 h 2 v 2 l -0.996094 -0.003906 c -1 0 -1 -1 -1 -1 z m 3 0 h 2 v 2 h -2 z m 0 0" fill="#222222"/>
</svg>
