<?xml version="1.0" encoding="UTF-8"?>
<svg height="16px" viewBox="0 0 16 16" width="16px" xmlns="http://www.w3.org/2000/svg">
    <path d="m 8.25 1 c -0.132812 0.007812 -0.265625 0.046875 -0.375 0.117188 l -3.75 2.25 c -0.210938 0.140624 -0.335938 0.382812 -0.328125 0.632812 c 0 0.25 0.113281 0.5 0.328125 0.636719 l 3.75 2.25 c 0.109375 0.070312 0.238281 0.109375 0.375 0.113281 h 0.75 v -2 c 1.746094 -0.003906 3.292969 1.132812 3.816406 2.800781 c 0.523438 1.664063 -0.089844 3.480469 -1.523437 4.480469 c -0.296875 0.203125 -0.460938 0.546875 -0.429688 0.90625 s 0.25 0.671875 0.574219 0.824219 c 0.328125 0.152343 0.710938 0.113281 1.003906 -0.09375 c 2.140625 -1.503907 3.066406 -4.222657 2.28125 -6.71875 c -0.789062 -2.5 -3.105468 -4.195313 -5.722656 -4.199219 v -2 z m -1.09375 7.898438 c -1.535156 0 -2.566406 1.25 -2.566406 3.121093 c 0 1.839844 1.015625 3.066407 2.523437 3.066407 c 1.523438 0 2.554688 -1.246094 2.554688 -3.128907 c 0 -1.835937 -1.015625 -3.058593 -2.511719 -3.058593 z m -4.875 0.089843 l -2.070312 1.195313 l 0.5625 1.074218 l 0.902343 -0.46875 v 2.929688 h -1.160156 v 1.285156 h 3.726563 v -1.285156 h -1.066407 v -4.730469 z m 4.839844 1.195313 c 0.597656 0 1.003906 0.734375 1.003906 1.84375 c 0 1.066406 -0.398438 1.777344 -0.976562 1.777344 h -0.003907 c -0.613281 -0.003907 -1.011719 -0.738282 -1.011719 -1.835938 c 0 -1.074219 0.398438 -1.785156 0.988282 -1.785156 z m 0 0" fill="#222222"/>
</svg>
