<?xml version="1.0" encoding="UTF-8"?>
<svg height="16px" viewBox="0 0 16 16" width="16px" xmlns="http://www.w3.org/2000/svg">
    <g fill="#222222">
        <path d="m 7 1 v 2 c -2.621094 0.003906 -4.933594 1.699219 -5.722656 4.199219 c -0.785156 2.496093 0.136718 5.214843 2.28125 6.71875 c 1.09375 0.78125 2.253906 -0.878907 1.144531 -1.636719 c -1.433594 -1 -2.046875 -2.816406 -1.519531 -4.480469 c 0.519531 -1.667969 2.066406 -2.804687 3.816406 -2.800781 v 2 h 0.75 c 0.132812 -0.003906 0.261719 -0.046875 0.375 -0.117188 l 3.75 -2.25 c 0.207031 -0.140624 0.332031 -0.378906 0.328125 -0.632812 c 0.003906 -0.253906 -0.121094 -0.492188 -0.328125 -0.632812 l -3.75 -2.25 c -0.113281 -0.070313 -0.242188 -0.113282 -0.375 -0.117188 z m 0 0"/>
        <path d="m 7.375 15.085938 c 1.625 0 2.691406 -0.699219 2.691406 -1.769532 c 0 -0.761718 -0.511718 -1.335937 -1.3125 -1.492187 c 0.601563 -0.15625 0.972656 -0.640625 0.972656 -1.320313 c 0 -1.003906 -0.796874 -1.613281 -2.132812 -1.613281 c -0.714844 0 -1.425781 0.175781 -2.085938 0.53125 l 0.339844 1.117187 c 0.539063 -0.234374 1.007813 -0.363281 1.433594 -0.363281 c 0.535156 0 0.882812 0.207031 0.882812 0.554688 c 0 0.398437 -0.441406 0.667969 -1.101562 0.667969 h -0.417969 v 1.128906 h 0.417969 c 0.878906 0 1.441406 0.285156 1.441406 0.71875 c 0 0.359375 -0.382812 0.558594 -1.066406 0.558594 c -0.53125 0 -1.121094 -0.113282 -1.625 -0.324219 l -0.347656 1.171875 c 0.644531 0.304687 1.199218 0.433594 1.910156 0.433594 z m 0 0"/>
        <path d="m 13.136719 15.085938 c 1.527343 0 2.5625 -1.246094 2.5625 -3.132813 c 0 -1.839844 -1.015625 -3.0625 -2.519531 -3.0625 c -1.535157 0 -2.566407 1.25 -2.566407 3.125 c 0 1.839844 1.015625 3.070313 2.523438 3.070313 z m 0.035156 -1.28125 c -0.613281 0 -1.015625 -0.738282 -1.015625 -1.839844 c 0 -1.078125 0.402344 -1.789063 0.992188 -1.789063 c 0.597656 0 1.003906 0.738281 1.003906 1.847657 c 0 1.066406 -0.398438 1.78125 -0.980469 1.78125 z m 0 0"/>
    </g>
</svg>
