<?xml version="1.0" encoding="UTF-8"?>
<svg height="16px" viewBox="0 0 16 16" width="16px" xmlns="http://www.w3.org/2000/svg">
    <g fill="#222222">
        <path d="m 0 7 c 0 2.414062 1.058594 3.660156 2.5 4.492188 l -0.5 -0.867188 v 2.875 c 0 1.382812 1.117188 2.5 2.5 2.5 s 2.5 -1.117188 2.5 -2.5 v -0.5 h -2 v 0.5 c 0 1.382812 1.117188 2.5 2.5 2.5 s 2.5 -1.117188 2.5 -2.5 v -0.5 h -2 v 0.5 c 0 1.382812 1.117188 2.5 2.5 2.5 s 2.5 -1.117188 2.5 -2.496094 l 0.007812 -1.9375 l -0.558593 0.894532 c 2.941406 -1.445313 3.550781 -3.132813 3.550781 -5.460938 c 0 -3.957031 -3.65625 -7 -8 -7 c -4.347656 0 -8 3.042969 -8 7 z m 14 0 c 0 0.933594 -0.105469 1.546875 -0.410156 2.0625 c -0.300782 0.515625 -0.859375 1.03125 -2.023438 1.605469 c -0.183594 0.089843 -0.367187 0.171875 -0.554687 0.253906 l -0.011719 2.578125 c 0 0.292969 -0.207031 0.5 -0.5 0.5 s -0.5 -0.207031 -0.5 -0.5 v -0.5 h -2 v 0.5 c 0 0.292969 -0.207031 0.5 -0.5 0.5 s -0.5 -0.207031 -0.5 -0.5 v -0.5 h -2 v 0.5 c 0 0.292969 -0.207031 0.5 -0.5 0.5 s -0.5 -0.207031 -0.5 -0.5 v -3.480469 c -0.171875 -0.082031 -0.335938 -0.167969 -0.5 -0.261719 c -0.507812 -0.292968 -0.851562 -0.585937 -1.09375 -0.976562 s -0.40625 -0.917969 -0.40625 -1.78125 c 0 -2.699219 2.582031 -5 6 -5 s 6 2.300781 6 5 z m 0 0"/>
        <g fill-rule="evenodd">
            <path d="m 6 7 c 0 0.550781 -0.449219 1 -1 1 s -1 -0.449219 -1 -1 s 0.449219 -1 1 -1 s 1 0.449219 1 1 z m 0 0"/>
            <path d="m 12 7 c 0 0.550781 -0.449219 1 -1 1 s -1 -0.449219 -1 -1 s 0.449219 -1 1 -1 s 1 0.449219 1 1 z m 0 0"/>
        </g>
    </g>
</svg>
