<?xml version="1.0" encoding="UTF-8"?>
<svg height="16px" viewBox="0 0 16 16" width="16px" xmlns="http://www.w3.org/2000/svg">
    <g fill="#222222">
        <path d="m 1 4.5 c 0 1.921875 1.578125 3.5 3.5 3.5 s 3.5 -1.578125 3.5 -3.5 s -1.578125 -3.5 -3.5 -3.5 s -3.5 1.578125 -3.5 3.5 z m 2 0 c 0 -0.839844 0.660156 -1.5 1.5 -1.5 s 1.5 0.660156 1.5 1.5 s -0.660156 1.5 -1.5 1.5 s -1.5 -0.660156 -1.5 -1.5 z m 0 0"/>
        <path d="m 8 11.5 c 0 1.921875 1.578125 3.5 3.5 3.5 s 3.5 -1.578125 3.5 -3.5 c 0 -1.386719 -0.820312 -2.59375 -2 -3.15625 v -5.84375 c 0 -0.832031 -0.667969 -1.5 -1.5 -1.5 s -1.5 0.667969 -1.5 1.5 v 5.84375 c -1.179688 0.5625 -2 1.769531 -2 3.15625 z m 2 0 c 0 -0.839844 0.660156 -1.5 1.5 -1.5 s 1.5 0.660156 1.5 1.5 s -0.660156 1.5 -1.5 1.5 s -1.5 -0.660156 -1.5 -1.5 z m 0 0"/>
        <path d="m 3 13.5 c 0 0.832031 0.667969 1.5 1.5 1.5 s 1.5 -0.667969 1.5 -1.5 v -4.765625 c -0.480469 0.171875 -0.988281 0.261719 -1.5 0.265625 c -0.511719 0 -1.019531 -0.09375 -1.5 -0.265625 z m 0 0" fill-opacity="0.34902"/>
    </g>
</svg>
