<?xml version="1.0" encoding="UTF-8"?>
<svg height="16px" viewBox="0 0 16 16" width="16px" xmlns="http://www.w3.org/2000/svg">
    <g fill="#222222">
        <path d="m 5.019531 0.996094 v 2.261718 c -1.609375 1.015626 -2.585937 2.785157 -2.585937 4.6875 v 0.050782 h -2.4140628 l 7.9257808 8.003906 l 8.074219 -8.003906 h -2.492187 c 0 -0.015625 0 -0.03125 0 -0.046875 c 0 -1.871094 -0.941406 -3.617188 -2.507813 -4.640625 v -2.3125 z m 2.867188 2.910156 h 0.09375 c 2.230469 0 4.039062 1.808594 4.039062 4.039062 c 0 2.234376 -1.808593 4.042969 -4.039062 4.042969 s -4.042969 -1.808593 -4.042969 -4.042969 c 0 -2.195312 1.753906 -3.988281 3.949219 -4.039062 z m 0 0"/>
        <path d="m 8.019531 4.496094 c -0.550781 0 -1 0.449218 -1 1 v 2.863281 l 1.234375 1.46875 c 0.171875 0.207031 0.414063 0.332031 0.679688 0.355469 c 0.265625 0.023437 0.527344 -0.0625 0.730468 -0.230469 c 0.421876 -0.359375 0.476563 -0.988281 0.121094 -1.410156 l -0.765625 -0.910157 v -2.136718 c 0 -0.550782 -0.449219 -1 -1 -1 z m 0 0"/>
    </g>
</svg>
