<?xml version="1.0" encoding="UTF-8"?>
<svg height="16px" viewBox="0 0 16 16" width="16px" xmlns="http://www.w3.org/2000/svg">
    <path d="m 8.019531 1.003906 c -2.050781 0 -4.097656 0.777344 -5.65625 2.335938 c -3.117187 3.117187 -3.117187 8.195312 0 11.3125 c 0.390625 0.390625 1.023438 0.390625 1.414063 0 c 0.25 -0.253906 0.351562 -0.621094 0.257812 -0.964844 l 0.800782 -0.804688 l -0.707032 -0.707031 l -0.6875 0.691407 c -0.835937 -0.984376 -1.304687 -2.164063 -1.40625 -3.371094 h 0.984375 v -1 h -0.984375 c 0.097656 -1.148438 0.527344 -2.273438 1.285156 -3.226563 c 0.039063 0.097657 0.097657 0.183594 0.167969 0.257813 l 2.6875 2.6875 c -0.101562 0.246094 -0.15625 0.511718 -0.15625 0.78125 c 0 1.105468 0.894531 2 2 2 s 2 -0.894532 2 -2 c 0 -1.105469 -0.894531 -2 -2 -2 c -0.265625 0 -0.53125 0.054687 -0.777343 0.160156 l -2.691407 -2.691406 c -0.074219 -0.074219 -0.164062 -0.128906 -0.261719 -0.167969 c 0.957032 -0.761719 2.082032 -1.1875 3.230469 -1.28125 v 0.980469 h 1 v -0.980469 c 1.207031 0.097656 2.386719 0.566406 3.371094 1.402344 l -0.691406 0.691406 l 0.707031 0.707031 l 0.691406 -0.691406 c 0.835938 0.984375 1.304688 2.164062 1.402344 3.371094 h -0.980469 v 1 h 0.980469 c -0.097656 1.207031 -0.566406 2.386718 -1.402344 3.371094 l -0.691406 -0.691407 l -0.707031 0.707031 l 0.804687 0.804688 c -0.09375 0.34375 0.003906 0.710938 0.257813 0.964844 c 0.390625 0.390625 1.023437 0.390625 1.414062 0 c 3.117188 -3.117188 3.117188 -8.195313 0 -11.3125 c -1.558593 -1.558594 -3.605469 -2.335938 -5.65625 -2.335938 z m 0 0" fill="#222222"/>
</svg>
