<?xml version="1.0" encoding="UTF-8"?>
<svg height="16px" viewBox="0 0 16 16" width="16px" xmlns="http://www.w3.org/2000/svg">
    <path d="m 7.976562 1.054688 c -0.089843 0 -0.179687 0.007812 -0.269531 0.023437 c -2.996093 0.160156 -5.625 2.222656 -6.449219 5.128906 c -0.761718 3.019531 0.570313 6.234375 3.242188 7.828125 c 2.71875 1.519532 6.167969 1.066406 8.398438 -1.105468 c 2.171874 -2.230469 2.625 -5.679688 1.105468 -8.398438 c 1.507813 2.726562 1.035156 6.164062 -1.132812 8.371094 c -2.226563 2.148437 -5.652344 2.578125 -8.332032 1.0625 c -2.617187 -1.574219 -3.914062 -4.730469 -3.179687 -7.671875 c -0.707031 2.949219 0.625 6.074219 3.222656 7.601562 c 2.652344 1.472657 6.023438 1.007813 8.171875 -1.109375 c 2.097656 -2.164062 2.515625 -5.527344 1.039063 -8.132812 c 1.453125 2.621094 0.992187 5.957031 -1.097657 8.074218 c -2.136718 2.070313 -5.464843 2.484376 -8.03125 1.027344 c -2.519531 -1.507812 -3.777343 -4.570312 -3.066406 -7.398437 c -0.683594 2.832031 0.605469 5.863281 3.105469 7.328125 c 2.546875 1.417968 5.820313 0.964844 7.878906 -1.070313 c 2.015625 -2.078125 2.421875 -5.339843 0.996094 -7.835937 c 1.402344 2.511718 0.953125 5.75 -1.054687 7.777344 c -2.046876 1.988281 -5.277344 2.390624 -7.738282 0.984374 c -2.417968 -1.441406 -3.636718 -4.414062 -2.949218 -7.121093 c -0.660157 2.714843 0.589843 5.65625 2.988281 7.050781 c 2.441406 1.367188 5.617187 0.925781 7.582031 -1.03125 c 1.9375 -1.984375 2.332031 -5.148438 0.960938 -7.539062 c 1.34375 2.402343 0.910156 5.542968 -1.019532 7.480468 c -1.957031 1.910156 -5.085937 2.300782 -7.441406 0.949219 c -2.316406 -1.378906 -3.496094 -4.257813 -2.832031 -6.847656 c -0.636719 2.597656 0.574219 5.445312 2.875 6.777343 c 2.332031 1.308594 5.40625 0.882813 7.285156 -0.992187 c 1.855469 -1.898437 2.234375 -4.964844 0.917969 -7.246094 c 1.292968 2.296875 0.871094 5.339844 -0.976563 7.1875 c -1.867187 1.828125 -4.898437 2.207031 -7.144531 0.90625 c -2.21875 -1.308593 -3.359375 -4.097656 -2.71875 -6.574219 c -0.617188 2.484376 0.558594 5.238282 2.757812 6.503907 c 2.226563 1.257812 5.203126 0.84375 6.988282 -0.953125 c 1.777344 -1.804688 2.144531 -4.773438 0.882812 -6.945313 c 1.238282 2.1875 0.828125 5.128907 -0.941406 6.886719 c -1.773438 1.75 -4.707031 2.113281 -6.847656 0.871094 c -2.117188 -1.246094 -3.222656 -3.941406 -2.601563 -6.300782 c -0.59375 2.367188 0.542969 5.03125 2.644531 6.230469 c 2.117188 1.203125 4.992188 0.800781 6.691407 -0.914062 c 1.695312 -1.71875 2.050781 -4.585938 0.839843 -6.652344 c 1.1875 2.082031 0.789063 4.925781 -0.898437 6.59375 s -4.519531 2.019531 -6.550781 0.828125 c -2.019532 -1.175781 -3.085938 -3.785156 -2.488282 -6.023438 c -0.570312 2.246094 0.527344 4.820313 2.527344 5.953126 c 2.007813 1.152343 4.789063 0.761718 6.394532 -0.875 c 1.617187 -1.625 1.960937 -4.394532 0.804687 -6.351563 c 1.132813 1.972656 0.746094 4.71875 -0.863281 6.292969 c -1.59375 1.589844 -4.328125 1.929687 -6.253906 0.792968 c -1.917969 -1.113281 -2.945313 -3.628906 -2.371094 -5.753906 c -0.546875 2.132813 0.511718 4.617188 2.414062 5.683594 c 1.898438 1.09375 4.582032 0.71875 6.097656 -0.835938 c 1.535157 -1.535156 1.863282 -4.207031 0.761719 -6.058593 c 1.078125 1.867187 0.707031 4.511719 -0.820312 6 c -1.507813 1.511719 -4.140625 1.835937 -5.957031 0.75 c -1.820313 -1.046875 -2.808594 -3.46875 -2.257813 -5.476563 c -0.523437 2.015625 0.496094 4.40625 2.296875 5.40625 c 1.792969 1.042969 4.375 0.679688 5.800781 -0.796875 c 1.457031 -1.445312 1.773438 -4.015625 0.726563 -5.757812 c 1.023437 1.757812 0.667968 4.304687 -0.785156 5.699219 c -1.414063 1.433593 -3.953126 1.746093 -5.660157 0.714843 c -1.71875 -0.980469 -2.667969 -3.3125 -2.144531 -5.203125 c -0.5 1.894532 0.484375 4.195313 2.1875 5.132813 c 1.683594 0.988281 4.167969 0.636719 5.503906 -0.757813 c 1.378906 -1.355468 1.679688 -3.828125 0.683594 -5.464844 c 0.972656 1.652344 0.628906 4.097657 -0.742188 5.40625 c -1.328124 1.351563 -3.765624 1.648438 -5.363281 0.671876 c -1.621093 -0.914063 -2.535156 -3.152344 -2.03125 -4.925782 c -0.476562 1.777344 0.46875 3.988282 2.070313 4.855469 c 1.578125 0.9375 3.960937 0.601563 5.207031 -0.71875 c 1.300781 -1.265625 1.589844 -3.636719 0.648437 -5.164063 c 0.917969 1.542969 0.585938 3.890626 -0.707031 5.105469 c -1.234375 1.273438 -3.574219 1.558594 -5.066406 0.636719 c -1.519531 -0.847656 -2.394531 -3 -1.914063 -4.65625 c -0.453124 1.664062 0.457032 3.78125 1.957032 4.582031 c 1.46875 0.882813 3.753906 0.558594 4.90625 -0.679687 c 1.21875 -1.175782 1.496094 -3.445313 0.609375 -4.863282 c 0.875 1.425782 0.578125 3.683594 -0.636719 4.835938 c -1.152344 1.214844 -3.410156 1.511719 -4.835938 0.636719 c -1.46875 -0.796875 -2.34375 -2.90625 -1.867187 -4.507813 c 0.390625 -1.625 2.199219 -3.011718 3.867187 -2.96875 v -0.003906 h 0.003907 c 0.8125 0 1.472656 -0.660156 1.472656 -1.472656 s -0.660156 -1.472656 -1.472656 -1.472656 c 0 0 0 0 -0.003907 0 z m 0 0" fill="#222222"/>
</svg>
