<?xml version="1.0" encoding="UTF-8"?>
<svg height="16px" viewBox="0 0 16 16" width="16px" xmlns="http://www.w3.org/2000/svg">
    <g fill="#222222">
        <path d="m 12.84375 2.777344 l -1.5 1.488281 c -1.074219 -0.785156 -2.394531 -1.257813 -3.824219 -1.257813 c -3.578125 0 -6.5 2.921876 -6.5 6.5 c 0 3.578126 2.921875 6.5 6.5 6.5 s 6.5 -2.921874 6.5 -6.5 c 0 -1.429687 -0.472656 -2.75 -1.261719 -3.824218 l 1.496094 -1.488282 z m -5.324219 2.230468 c 2.496094 0 4.5 2.003907 4.5 4.5 c 0 2.496094 -2.003906 4.5 -4.5 4.5 c -2.496093 0 -4.5 -2.003906 -4.5 -4.5 c 0 -2.496093 2.003907 -4.5 4.5 -4.5 z m 0 0"/>
        <path d="m 4.898438 0 c -0.359376 -0.00390625 -0.695313 0.183594 -0.875 0.496094 c -0.183594 0.3125 -0.183594 0.699218 0 1.007812 c 0.179687 0.3125 0.515624 0.503906 0.875 0.496094 h 5.238281 c 0.363281 0.007812 0.699219 -0.183594 0.878906 -0.496094 c 0.183594 -0.308594 0.183594 -0.695312 0 -1.007812 c -0.179687 -0.3125 -0.515625 -0.50000025 -0.878906 -0.496094 z m 0 0"/>
        <path d="m 7.019531 9.996094 h 1 v -4 h -1 z m 0 0"/>
    </g>
</svg>
