<?xml version="1.0" encoding="UTF-8"?>
<svg height="16px" viewBox="0 0 16 16" width="16px" xmlns="http://www.w3.org/2000/svg">
    <g fill="#222222">
        <path d="m 5.996094 3 c -1.644532 0 -3 1.355469 -3 3 v 7 c 0 1.644531 1.355468 3 3 3 h 7 c 1.644531 0 3 -1.355469 3 -3 v -7 c 0 -1.644531 -1.355469 -3 -3 -3 z m 0 2 h 7 c 0.570312 0 1 0.429688 1 1 v 7 c 0 0.570312 -0.429688 1 -1 1 h -7 c -0.570313 0 -1 -0.429688 -1 -1 v -7 c 0 -0.570312 0.429687 -1 1 -1 z m 0 0"/>
        <path d="m 2.996094 0 c -1.644532 0 -3.00000025 1.355469 -3.00000025 3 v 7 c 0 1.292969 0.83984425 2.40625 2.00000025 2.824219 v -9.824219 c 0 -0.570312 0.429687 -1 1 -1 h 9.820312 c -0.414062 -1.160156 -1.527344 -2 -2.820312 -2 z m 0 0"/>
    </g>
</svg>
