<svg width="16" height="17" viewBox="0 0 16 17" fill="none" xmlns="http://www.w3.org/2000/svg">
<g clip-path="url(#clip0_412_3770)">
<path d="M16 0H0V16H16V0Z" fill="#808080" fill-opacity="0.01"/>
<path d="M7.96997 -1.20801e-05C6.90097 -0.0280121 5.94197 0.930988 5.96997 1.99999H1.96997C1.96997 1.99999 0.969971 1.99999 0.969971 2.99999V14C0.969971 15 1.96997 15 1.96997 15H9.96997V12H3.96997V11H9.96997V9.99999H14.97V2.99999C14.97 1.99999 13.97 1.99999 13.97 1.99999H9.96997C10.017 0.917988 9.03997 -0.0220121 7.96997 -1.20801e-05ZM7.96997 0.999988C8.80697 0.969988 9.32397 2.15299 8.68897 2.71899C8.14597 3.32099 7.01097 2.90299 6.96997 2.09399C6.89797 1.52099 7.39297 0.986988 7.96997 0.999988ZM3.96997 4.99999H11.97V5.99999H3.96997V4.99999ZM3.96997 7.99999H11.97V8.99999H3.96997V7.99999Z" fill="#232323"/>
<path d="M10.9699 11V12C10.9699 12.276 11.0699 12.538 11.2509 12.719L12.0329 13.5L11.2509 14.281C11.0662 14.4743 10.9652 14.7327 10.9699 15V16H11.9699C12.2459 16 12.5079 15.9 12.6889 15.719L13.4699 14.938L14.2509 15.718C14.4319 15.9 14.6939 16 14.9699 16H15.9699V15C15.9699 14.724 15.8699 14.462 15.6889 14.281L14.9079 13.5L15.6879 12.719C15.8699 12.538 15.9699 12.276 15.9699 12V11H14.9699C14.6939 11 14.4319 11.1 14.2509 11.281L13.4699 12.062L12.6889 11.282C12.4957 11.0969 12.2373 10.9956 11.9699 11H10.9699Z" fill="#232323"/>
</g>
<defs>
<clipPath id="clip0_412_3770">
<rect width="16" height="16.003" fill="white"/>
</clipPath>
</defs>
</svg>
