<?xml version="1.0" encoding="UTF-8"?>
<svg height="16px" viewBox="0 0 16 16" width="16px" xmlns="http://www.w3.org/2000/svg">
    <g fill="#222222">
        <path d="m 3 9 c -0.261719 0 -0.527344 0.09375 -0.71875 0.28125 l -2.28125 2.28125 v 0.875 l 2.28125 2.28125 c 0.191406 0.1875 0.457031 0.28125 0.71875 0.28125 h 1 v -1 c 0 -0.265625 -0.089844 -0.53125 -0.28125 -0.71875 l -0.28125 -0.28125 h 11.546875 v -2 h -11.546875 l 0.28125 -0.28125 c 0.191406 -0.1875 0.285156 -0.453125 0.28125 -0.71875 v -1 z m 0 0"/>
        <path d="m 7.007812 2 h 5 c 0.566407 0 1 0.433594 1 1 v 3.925781 c 0 0.605469 -0.46875 1.074219 -1.074218 1.074219 h -3.917969 c -0.605469 0 -1.074219 -0.46875 -1.078125 -1.074219 v 0.035157 c 0.019531 -0.5625 0.46875 -0.980469 1.035156 -0.960938 h 0.035156 h 6 c 0.550782 0 1 -0.449219 1 -1 s -0.449218 -1 -1 -1 h -6 h 0.035157 c -1.65625 -0.058594 -3.046875 1.234375 -3.105469 2.894531 v 0.035157 c 0.003906 1.699218 1.378906 3.070312 3.078125 3.070312 h 3.917969 c 1.699218 0 3.074218 -1.375 3.074218 -3.074219 v -3.925781 c 0 -1.65625 -1.339843 -3 -3 -3 h -5 c -0.550781 0 -1 0.449219 -1 1 s 0.449219 1 1 1 z m 0 0"/>
    </g>
</svg>
