<?xml version="1.0" encoding="UTF-8"?>
<svg height="16px" viewBox="0 0 16 16" width="16px" xmlns="http://www.w3.org/2000/svg">
    <path d="m 2 1 l -1 1 h 11 c -0.03125 0 -0.058594 -0.007812 -0.070312 -0.011719 c 0 0 -0.003907 0 -0.003907 -0.003906 c 0 0 0 0 -0.003906 0 c 0 -0.003906 0 -0.003906 0 -0.003906 v 0.003906 s 0.003906 0 0.003906 0.003906 c 0.019531 0.015625 0.066407 0.078125 0.09375 0.210938 l 1 4.96875 l -0.019531 -0.199219 v 2.0625 v 0.007812 c 0 0.007813 -0.003906 0.003907 0.003906 0 c 0.007813 -0.007812 0.027344 -0.007812 -0.003906 -0.007812 h -3.398438 c -0.285156 0 -0.558593 0.121094 -0.746093 0.335938 c -0.191407 0.210937 -0.28125 0.496093 -0.25 0.777343 l 0.402343 3.46875 c 0.003907 0.050781 0.015626 0.097657 0.027344 0.144531 c 0.039063 0.148438 -0.003906 0.179688 -0.054687 0.226563 c -0.003907 0 -0.007813 0.003906 -0.007813 0.007813 c -0.003906 0 -0.007812 0.003906 -0.011718 0.003906 c 0 0.003906 -0.003907 0.003906 -0.003907 0.003906 c -0.003906 0 -0.003906 0.003906 -0.003906 0.003906 c -0.003906 0 -0.003906 0 -0.003906 0 c 0 0.003906 0 0.003906 -0.003907 0.003906 c 0 0 0.015626 -0.007812 0.054688 -0.007812 h -2 l 0.917969 0.601562 l -3.042969 -7 c -0.15625 -0.367187 -0.519531 -0.601562 -0.917969 -0.601562 h -2.957031 l 1 1 z m 1.957031 8 l -0.914062 -0.601562 l 3.039062 7 c 0.160157 0.367187 0.519531 0.601562 0.917969 0.601562 h 2 c 1.300781 0 2.339844 -1.363281 1.964844 -2.757812 l 0.027344 0.144531 l -0.398438 -3.46875 l -0.996094 1.113281 h 3.402344 c 1.152344 0 2 -0.925781 2 -2 v -2.0625 c 0 -0.066406 -0.007812 -0.132812 -0.019531 -0.199219 l -1 -4.964843 c -0.199219 -0.992188 -0.96875 -1.804688 -1.980469 -1.804688 h -11 c -0.550781 0 -1 0.449219 -1 1 v 7 c 0 0.550781 0.449219 1 1 1 z m 0 0"/>
</svg>
