<?xml version="1.0" encoding="UTF-8"?>
<svg height="16px" viewBox="0 0 16 16" width="16px" xmlns="http://www.w3.org/2000/svg">
    <path d="m 0 15 c 0 0.550781 0.449219 1 1 1 h 11 c 1.011719 0 1.78125 -0.8125 1.980469 -1.800781 l 1 -4.96875 c 0.011719 -0.066407 0.019531 -0.132813 0.019531 -0.199219 v -2.0625 c 0 -1.074219 -0.847656 -2 -2 -2 h -3.402344 l 0.996094 1.113281 l 0.398438 -3.46875 l -0.027344 0.144531 c 0.375 -1.394531 -0.664063 -2.757812 -1.964844 -2.757812 h -2 c -0.398438 0 -0.757812 0.234375 -0.917969 0.601562 l -3.039062 7 l 0.914062 -0.601562 h -2.957031 c -0.550781 0 -1 0.449219 -1 1 z m 3.957031 -6 c 0.398438 0 0.761719 -0.234375 0.917969 -0.601562 l 3.042969 -7 l -0.917969 0.601562 h 2 c -0.039062 0 -0.054688 -0.007812 -0.054688 -0.007812 s 0 0 0.003907 0.003906 c 0.003906 0 0.003906 0.003906 0.007812 0.003906 c 0 0 0.003907 0.003906 0.003907 0.003906 c 0.003906 0 0.003906 0.003906 0.007812 0.003906 c 0.003906 0.003907 0.007812 0.007813 0.011719 0.007813 c 0.046875 0.046875 0.09375 0.078125 0.054687 0.226563 c -0.015625 0.046874 -0.023437 0.09375 -0.027344 0.144531 l -0.402343 3.46875 c -0.03125 0.28125 0.058593 0.566406 0.246093 0.777343 c 0.191407 0.214844 0.460938 0.335938 0.746094 0.335938 h 3.402344 c 0.03125 0 0.011719 0 0.003906 -0.007812 c -0.007812 -0.003907 -0.007812 -0.007813 -0.003906 0 v 0.007812 v 2.0625 l 0.019531 -0.199219 l -1 4.972657 c -0.027343 0.128906 -0.078125 0.191406 -0.09375 0.207031 c -0.003906 0.003906 -0.003906 0.003906 -0.003906 0.003906 s -0.003906 0 -0.003906 0.003906 c 0 0 0.003906 0 0.003906 -0.003906 h 0.003906 s 0 -0.003906 0.003907 -0.003906 c 0.011718 -0.003907 0.039062 -0.011719 0.070312 -0.011719 h -11 l 1 1 v -7 l -1 1 z m 0 0"/>
</svg>
