<?xml version="1.0" encoding="UTF-8"?>
<svg height="16px" viewBox="0 0 16 16" width="16px" xmlns="http://www.w3.org/2000/svg">
    <g fill="#222222">
        <path d="m -0.00390625 4.015625 v 2 c 0 0.550781 0.44921825 1 1.00000025 1 c 0.5625 0 1 0.4375 1 1 s -0.4375 1 -1 1 c -0.550782 0 -1.00000025 0.449219 -1.00000025 1 v 2 c 0 1.65625 1.34375025 3 3.00000025 3 h 10.011718 c 1.65625 0 3 -1.34375 3 -3 v -2 c 0 -0.550781 -0.449218 -1 -1 -1 c -0.566406 0 -1 -0.4375 -1 -1 s 0.433594 -1 1 -1 c 0.550782 0 1 -0.449219 1 -1 v -2 c 0 -1.65625 -1.34375 -3 -3 -3 h -10.011718 c -1.65625 0 -3.00000025 1.34375 -3.00000025 3 z m 13.01171825 -1 c 0.570313 0 1 0.429687 1 1 v 2 l 1 -1 c -1.660156 0 -3 1.34375 -3 3 s 1.339844 3 3 3 l -1 -1 v 2 c 0 0.570313 -0.429687 1 -1 1 h -10.011718 c -0.570313 0 -1 -0.429687 -1 -1 v -2 l -1 1 c 1.65625 0 3 -1.34375 3 -3 s -1.34375 -3 -3 -3 l 1 1 v -2 c 0 -0.570313 0.429687 -1 1 -1 z m 0 0"/>
        <path d="m 5.027344 12.015625 v -1.535156 l 3.460937 -3.164063 c 0.375 -0.375 0.210938 -0.996094 -0.210937 -1.210937 c -0.480469 -0.246094 -1.265625 -0.007813 -1.265625 0.910156 h -2 c 0 -0.554687 -0.007813 -1.351563 0.238281 -1.75 c 0.25 -0.398437 0.605469 -0.707031 1.0625 -0.921875 c 0.453125 -0.21875 0.988281 -0.328125 1.597656 -0.328125 c 0.632813 0 1.179688 0.101563 1.644532 0.300781 c 0.460937 0.203125 0.816406 0.488282 1.070312 0.855469 c 0.253906 0.363281 0.378906 0.789063 0.378906 1.28125 c 0 0.304687 -0.0625 0.605469 -0.191406 0.90625 c -0.121094 0.296875 -0.347656 0.625 -0.671875 0.988281 c -0.324219 0.367188 -0.789063 0.796875 -1.394531 1.292969 l -0.464844 0.386719 l 2.71875 -0.011719 v 2 z m 0 0"/>
    </g>
</svg>
