<?xml version="1.0" encoding="UTF-8"?>
<svg height="16px" viewBox="0 0 16 16" width="16px" xmlns="http://www.w3.org/2000/svg">
    <g fill="#222222">
        <path d="m -0.00390625 4.015625 v 2 c 0 0.550781 0.44921825 1 1.00000025 1 c 0.5625 0 1 0.4375 1 1 s -0.4375 1 -1 1 c -0.550782 0 -1.00000025 0.449219 -1.00000025 1 v 2 c 0 1.65625 1.34375025 3 3.00000025 3 h 10.011718 c 1.65625 0 3 -1.34375 3 -3 v -2 c 0 -0.550781 -0.449218 -1 -1 -1 c -0.566406 0 -1 -0.4375 -1 -1 s 0.433594 -1 1 -1 c 0.550782 0 1 -0.449219 1 -1 v -2 c 0 -1.65625 -1.34375 -3 -3 -3 h -10.011718 c -1.65625 0 -3.00000025 1.34375 -3.00000025 3 z m 13.01171825 -1 c 0.570313 0 1 0.429687 1 1 v 2 l 1 -1 c -1.660156 0 -3 1.34375 -3 3 s 1.339844 3 3 3 l -1 -1 v 2 c 0 0.570313 -0.429687 1 -1 1 h -10.011718 c -0.570313 0 -1 -0.429687 -1 -1 v -2 l -1 1 c 1.65625 0 3 -1.34375 3 -3 s -1.34375 -3 -3 -3 l 1 1 v -2 c 0 -0.570313 0.429687 -1 1 -1 z m 0 0"/>
        <path d="m 9.011719 3.015625 h 1 v 3 h -1 z m 0 0"/>
        <path d="m 9.011719 7.015625 h 1 v 3 h -1 z m 0 0"/>
        <path d="m 9.011719 11.015625 h 1 v 3 h -1 z m 0 0"/>
    </g>
</svg>
