<?xml version="1.0" encoding="UTF-8"?>
<svg height="15.976562px" viewBox="0 0 16 15.976562" width="16px" xmlns="http://www.w3.org/2000/svg">
    <path d="m 5 -0.00390625 v 2.98046825 c 0 1.28125 0.507812 2.507813 1.414062 3.414063 l 0.585938 0.585937 v 1 c 0 0.550782 0.449219 1 1 1 s 1 -0.449218 1 -1 v -1 l 0.585938 -0.585937 c 0.90625 -0.90625 1.414062 -2.132813 1.414062 -3.414063 v -2.98046825 z m -3 9.98046825 c -0.550781 0 -1 0.449219 -1 1 c 0 0.550782 0.449219 1 1 1 h 12 c 0.550781 0 1 -0.449218 1 -1 c 0 -0.550781 -0.449219 -1 -1 -1 z m 0 3 c -0.550781 0 -1 0.449219 -1 1 c 0 0.550782 0.449219 1 1 1 h 12 c 0.550781 0 1 -0.449218 1 -1 c 0 -0.550781 -0.449219 -1 -1 -1 z m 0 0" fill="#222222"/>
</svg>
