<?xml version="1.0" encoding="UTF-8"?>
<svg height="15.976562px" viewBox="0 0 16 15.976562" width="16px" xmlns="http://www.w3.org/2000/svg">
    <path d="m 5 -0.00390625 v 3.98046825 c 0 1.28125 0.507812 2.507813 1.414062 3.414063 l 0.585938 0.585937 v 1 c 0 0.550782 0.449219 1 1 1 s 1 -0.449218 1 -1 v -1 l 0.585938 -0.585937 c 0.90625 -0.90625 1.414062 -2.132813 1.414062 -3.414063 v -3.98046825 z m -3 8.98046825 c -0.550781 0 -1 0.449219 -1 1 c 0 0.550782 0.449219 1 1 1 c 0.507812 0 1.015625 0.113282 1.472656 0.332032 l 1.492188 0.710937 c 1.90625 0.90625 4.121094 0.90625 6.03125 0.007813 l 1.863281 -0.878906 c 0.238281 -0.113282 0.5 -0.171876 0.765625 -0.171876 h 0.375 c 0.550781 0 1 -0.449218 1 -1 c 0 -0.550781 -0.449219 -1 -1 -1 h -0.375 c -0.558594 0 -1.113281 0.125 -1.621094 0.363282 l -1.863281 0.878906 c -1.367187 0.644531 -2.949219 0.640625 -4.316406 -0.007812 l -1.492188 -0.710938 c -0.730469 -0.34375 -1.523437 -0.523438 -2.332031 -0.523438 z m 0 4 c -0.550781 0 -1 0.449219 -1 1 c 0 0.550782 0.449219 1 1 1 h 1.9375 c 0.636719 0 1.269531 0.054688 1.894531 0.15625 l 0.921875 0.15625 c 0.789063 0.132813 1.589844 0.136719 2.375 0.007813 l 0.976563 -0.164063 c 0.625 -0.105468 1.257812 -0.15625 1.894531 -0.15625 h 2 c 0.550781 0 1 -0.449218 1 -1 c 0 -0.550781 -0.449219 -1 -1 -1 h -2 c -0.746094 0 -1.488281 0.0625 -2.222656 0.183594 l -0.976563 0.160156 c -0.566406 0.09375 -1.144531 0.09375 -1.714843 0 l -0.921876 -0.15625 c -0.734374 -0.125 -1.480468 -0.1875 -2.226562 -0.1875 z m 0 0" fill="#222222"/>
</svg>
