<?xml version="1.0" encoding="UTF-8"?>
<svg height="16px" viewBox="0 0 16 16" width="16px" xmlns="http://www.w3.org/2000/svg">
    <path d="m 4 2 c -2.199219 0 -4 1.800781 -4 4 v 5 c 0 2.199219 1.800781 4 4 4 h 8 c 2.199219 0 4 -1.800781 4 -4 v -5 c 0 -2.199219 -1.800781 -4 -4 -4 z m 0 2 h 8 c 1.125 0 2 0.875 2 2 v 5 c 0 1.125 -0.875 2 -2 2 h -8 c -1.125 0 -2 -0.875 -2 -2 v -5 c 0 -1.125 0.875 -2 2 -2 z m 0 0"/>
    <path d="m 4 5 h 3 c 0.550781 0 1 0.449219 1 1 v 5 c 0 0.550781 -0.449219 1 -1 1 h -3 c -0.550781 0 -1 -0.449219 -1 -1 v -5 c 0 -0.550781 0.449219 -1 1 -1 z m 0 0" fill="#222222" fill-opacity="0.34902"/>
</svg>
