<?xml version="1.0" encoding="UTF-8"?>
<svg height="15.976562px" viewBox="0 0 16 15.976562" width="16px" xmlns="http://www.w3.org/2000/svg">
    <g fill="#222222">
        <path d="m 4 -0.0234375 v 3.5351565 c 1.097656 -0.988281 2.523438 -1.53125 4 -1.535157 v -1.9999995 z m 8 0 v 3.5312495 c 0.164062 0.144532 0.324219 0.304688 0.46875 0.46875 h 3.53125 v -3.9999995 z m -12 3.9999995 v 4 h 2 c 0 -1.476562 0.546875 -2.902343 1.535156 -4 z m 14 4 c -0.003906 1.476563 -0.546875 2.902344 -1.535156 4 h 3.535156 v -4 z m -14 4 v 4 h 4 v -3.535156 c -0.164062 -0.144531 -0.320312 -0.300781 -0.464844 -0.464844 z m 12 0.464844 c -1.097656 0.988282 -2.523438 1.53125 -4 1.535156 v 2 h 4 z m 0 0" fill-opacity="0.34902"/>
        <path d="m 14 7.976562 c 0 3.3125 -2.6875 6 -6 6 s -6 -2.6875 -6 -6 s 2.6875 -6 6 -6 s 6 2.6875 6 6 z m 0 0"/>
    </g>
</svg>
