<?xml version="1.0" encoding="UTF-8"?>
<svg height="16px" viewBox="0 0 16 16" width="16px" xmlns="http://www.w3.org/2000/svg">
    <g fill="#222222">
        <path d="m 4.441406 13.988281 c -0.28125 0 -0.492187 -0.210937 -0.492187 -0.492187 c 0 -0.285156 0.210937 -0.496094 0.492187 -0.496094 c 0.285156 0 0.496094 0.210938 0.496094 0.496094 c 0 0.28125 -0.210938 0.492187 -0.496094 0.492187 z m 0 -2.988281 c -1.375 0 -2.492187 1.117188 -2.492187 2.496094 c 0 1.375 1.117187 2.492187 2.492187 2.492187 c 1.378906 0 2.496094 -1.117187 2.496094 -2.492187 c 0 -1.378906 -1.117188 -2.496094 -2.496094 -2.496094 z m 0 0"/>
        <path d="m 2.722656 12.496094 c -0.417968 0 -0.734375 -0.320313 -0.734375 -0.738282 v -1.375 c 0 -0.222656 0.160157 -0.382812 0.382813 -0.382812 h 11.246094 c 0.222656 0 0.382812 0.160156 0.382812 0.382812 v 1.152344 c 0 0.542969 -0.417969 0.960938 -0.957031 0.960938 c -0.554688 0 -1 0.449218 -1 1 c 0 0.550781 0.449219 1 1 1 c 1.636719 -0.003906 2.960937 -1.328125 2.957031 -2.960938 v -1.152344 c 0 -1.316406 -1.066406 -2.382812 -2.378906 -2.382812 h -11.25 c -1.3125 0 -2.3828128 1.066406 -2.3828128 2.382812 v 1.371094 c 0 1.511719 1.2187498 2.738282 2.7304688 2.742188 c 0.550781 0 1 -0.445313 1 -1 c 0.003906 -0.550782 -0.445312 -1 -0.996094 -1 z m 0 0"/>
        <path d="m 11.515625 13.988281 c -0.285156 0 -0.492187 -0.210937 -0.492187 -0.492187 c 0 -0.285156 0.207031 -0.496094 0.492187 -0.496094 s 0.496094 0.210938 0.496094 0.496094 c 0 0.28125 -0.210938 0.492187 -0.496094 0.492187 z m 0 -2.988281 c -1.375 0 -2.492187 1.117188 -2.492187 2.496094 c 0 1.375 1.117187 2.492187 2.492187 2.492187 s 2.496094 -1.117187 2.496094 -2.492187 c 0 -1.378906 -1.121094 -2.496094 -2.496094 -2.496094 z m 0 0"/>
        <path d="m 2 12.042969 v -5.183594 c 0 -0.488281 0.371094 -0.859375 0.859375 -0.859375 h 8.59375 c 0.6875 0 1.289063 0.429688 1.511719 1.082031 l 0.507812 1.488281 c 0.007813 0.015626 0.011719 0.03125 0.019532 0.046876 c 0.308593 0.777343 0.488281 1.597656 0.527343 2.433593 c 0.019531 0.355469 0.226563 0.679688 0.542969 0.839844 c 0.320312 0.164063 0.699219 0.144531 1 -0.046875 c 0.300781 -0.195312 0.476562 -0.535156 0.457031 -0.894531 c -0.054687 -1.054688 -0.28125 -2.089844 -0.671875 -3.070313 l 0.019532 0.046875 l -0.507813 -1.488281 c -0.5 -1.460938 -1.863281 -2.4375 -3.40625 -2.4375 h -8.59375 c -1.582031 0 -2.859375 1.28125 -2.859375 2.859375 v 5.183594 c 0 0.554687 0.445312 1 1 1 c 0.550781 0 1 -0.445313 1 -1 z m 0 0"/>
        <path d="m 4 4 h 1.011719 v 4 h -1.011719 z m 0 0"/>
        <path d="m 7 4 h 1 v 4 h -1 z m 0 0"/>
        <path d="m 10 4 h 1 v 4 h -1 z m 0 0"/>
        <path d="m 6.5 13 h 3 c 0.277344 0 0.5 0.222656 0.5 0.5 s -0.222656 0.5 -0.5 0.5 h -3 c -0.277344 0 -0.5 -0.222656 -0.5 -0.5 s 0.222656 -0.5 0.5 -0.5 z m 0 0"/>
        <path d="m 10.722656 4.554688 l -6.105468 -3.054688 c -0.246094 -0.125 -0.546876 -0.023438 -0.671876 0.222656 c -0.121093 0.246094 -0.023437 0.546875 0.226563 0.671875 l 6.105469 3.050781 c 0.246094 0.125 0.546875 0.023438 0.667968 -0.222656 c 0.125 -0.246094 0.023438 -0.546875 -0.222656 -0.667968 z m 0 0"/>
        <path d="m 3.5 2 c -0.28125 0 -0.5 -0.21875 -0.5 -0.5 s 0.21875 -0.5 0.5 -0.5 s 0.5 0.21875 0.5 0.5 s -0.21875 0.5 -0.5 0.5 z m 0 -2 c -0.828125 0 -1.5 0.671875 -1.5 1.5 s 0.671875 1.5 1.5 1.5 s 1.5 -0.671875 1.5 -1.5 s -0.671875 -1.5 -1.5 -1.5 z m 0 0"/>
        <path d="m 0 1 h 2.5 v 1 h -2.5 z m 0 0"/>
        <path d="m 4.5 1 h 11.5 v 1 h -11.5 z m 0 0"/>
    </g>
</svg>
