<?xml version="1.0" encoding="UTF-8"?>
<svg height="16px" viewBox="0 0 16 16" width="16px" xmlns="http://www.w3.org/2000/svg">
    <g fill="#222222">
        <path d="m 14.285156 0.582031 c -0.382812 0.011719 -0.746094 0.171875 -1.015625 0.441407 l -3.535156 3.535156 l 1.414063 1.414062 l 2.535156 -2.535156 c 0.574218 0.273438 1.257812 0.15625 1.707031 -0.292969 c 0.585937 -0.585937 0.585937 -1.535156 0 -2.121093 c -0.292969 -0.292969 -0.691406 -0.453126 -1.105469 -0.441407 z m -5.257812 4.683594 l -2.40625 2.40625 l 3.378906 3.378906 c 0.824219 -0.628906 1.675781 -1.367187 2.5625 -2.25 z m -3.46875 3.46875 l -5.015625 5.019531 c 0.558593 0.554688 3.765625 1.097656 8.21875 -1.820312 z m 0 0"/>
        <path d="m 1.53125 0.457031 l -1.0625 1.0625 l 14 14 l 1.0625 -1.0625 z m 0 0"/>
    </g>
</svg>
