<?xml version="1.0" encoding="UTF-8"?>
<svg height="16px" viewBox="0 0 16 16" width="16px" xmlns="http://www.w3.org/2000/svg">
    <path d="m 8 -0.0117188 c -1.105469 0 -2 0.8945308 -2 1.9999998 s 0.894531 2 2 2 s 2 -0.894531 2 -2 s -0.894531 -1.9999998 -2 -1.9999998 z m -1 4.9999998 s -1 0 -1 1 v 3.0625 c 0 2 2 2 2 2 l 2.371094 0.003907 l 2.769531 4.449218 c 0.285156 0.472656 0.898437 0.625 1.371094 0.34375 c 0.472656 -0.285156 0.628906 -0.898437 0.34375 -1.371094 l -3.351563 -5.488281 h -1.503906 v -1 h 3 c 0.550781 0 1 -0.449219 1 -1 s -0.449219 -1 -1 -1 h -2.585938 l -0.707031 -0.707031 c -0.1875 -0.1875 -0.441406 -0.292969 -0.707031 -0.292969 z m -2 2.042969 c -1.613281 0.183594 -3.027344 1.21875 -3.660156 2.742188 c -0.695313 1.679687 -0.308594 3.617187 0.976562 4.902343 c 1.285156 1.285157 3.226563 1.671875 4.90625 0.976563 c 1.523438 -0.628906 2.558594 -2.042969 2.738282 -3.65625 h -2.019532 c -0.160156 0.804687 -0.707031 1.488281 -1.484375 1.808594 c -0.9375 0.390624 -2.007812 0.175781 -2.726562 -0.542969 c -0.714844 -0.714844 -0.929688 -1.785157 -0.542969 -2.722657 c 0.324219 -0.78125 1.007812 -1.324218 1.8125 -1.488281 z m 0 0" fill="#222222"/>
</svg>
