<?xml version="1.0" encoding="UTF-8"?>
<svg height="16px" viewBox="0 0 16 16" width="16px" xmlns="http://www.w3.org/2000/svg">
    <g fill="#222222">
        <path d="m 4.121094 5.410156 c -1.851563 0.886719 -3.136719 2.78125 -3.136719 4.960938 c 0 3.027344 2.476563 5.5 5.5 5.5 c 1.953125 0 3.675781 -1.027344 4.652344 -2.574219 l -0.539063 -1.425781 h -0.945312 c -0.558594 1.1875 -1.761719 2 -3.167969 2 c -1.945313 0 -3.5 -1.554688 -3.5 -3.5 c 0 -1.347656 0.75 -2.507813 1.855469 -3.09375 z m 7.171875 4.460938 c 0.253906 0 0.5 0.105468 0.6875 0.285156 c -0.003907 -0.097656 -0.011719 -0.191406 -0.019531 -0.285156 z m 0 0" fill-opacity="0.34902"/>
        <path d="m 4.796875 1.011719 c -0.539063 0.109375 -0.886719 0.640625 -0.777344 1.179687 l 0.097657 0.472656 c 0.011718 0.054688 0.027343 0.105469 0.046874 0.160157 l 2.902344 7.523437 c 0.148438 0.386719 0.519532 0.640625 0.933594 0.640625 h 3.304688 l 1.257812 3.351563 c 0.148438 0.390625 0.519531 0.648437 0.9375 0.648437 h 1.5 c 0.550781 0 1 -0.449219 1 -1 s -0.449219 -1 -1 -1 h -0.808594 l -1.257812 -3.351562 c -0.144532 -0.390625 -0.515625 -0.648438 -0.933594 -0.648438 h -3.316406 l -2.625 -6.808593 l -0.082032 -0.394532 c -0.109374 -0.539062 -0.640624 -0.886718 -1.179687 -0.773437 z m 0 0"/>
        <path d="m 8 1.988281 c 0 1.105469 -0.894531 2 -2 2 s -2 -0.894531 -2 -2 s 0.894531 -1.9999998 2 -1.9999998 s 2 0.8945308 2 1.9999998 z m 0 0"/>
        <path d="m 7 5.988281 c -0.550781 0 -1 0.449219 -1 1 s 0.449219 1 1 1 h 4 c 0.550781 0 1 -0.449219 1 -1 s -0.449219 -1 -1 -1 z m 0 0"/>
    </g>
</svg>
