<?xml version="1.0" encoding="UTF-8"?>
<svg height="16px" viewBox="0 0 16 16" width="16px" xmlns="http://www.w3.org/2000/svg">
    <path d="m 3 0 c -1.644531 0 -3 1.355469 -3 3 v 10 c 0 1.644531 1.355469 3 3 3 h 10 c 1.644531 0 3 -1.355469 3 -3 v -10 c 0 -1.644531 -1.355469 -3 -3 -3 z m 8 1.996094 h 1 v 0.992187 h 1 v -0.992187 h 1 v 0.992187 h -1 v 1 l 1 0.007813 v 1 h -1 v -1.003906 h -1 v 1.003906 h -1 v -1.007813 h 1 v -1 l -1 0.007813 z m 3.019531 4 l -0.019531 7.003906 c 0 0.570312 -0.425781 1 -1 1 h -10 c -0.570312 0 -1 -0.429688 -1 -1 l 0.019531 -7.003906 z m 0 0" fill="#222222"/>
</svg>
