<?xml version="1.0" encoding="UTF-8"?>
<svg height="16px" viewBox="0 0 16 16" width="16px" xmlns="http://www.w3.org/2000/svg">
    <g fill="#222222">
        <path d="m 3.007812 15.996094 c -1.644531 0 -2.9999995 -1.355469 -2.9999995 -3 v -10 c 0 -1.644532 1.3554685 -3.00000025 2.9999995 -3.00000025 h 10 c 1.644532 0 3 1.35546825 3 3.00000025 v 10 c 0 1.644531 -1.355468 3 -3 3 z m 0 -2 h 10 c 0.570313 0 1 -0.429688 1 -1 v -9 h -12 v 9 c 0 0.570312 0.429688 1 1 1 z m 0 0"/>
        <path d="m 10.957031 4.554688 c -0.105469 0.011718 -0.203125 0.054687 -0.28125 0.125 c -0.210937 0.179687 -0.230469 0.5 -0.046875 0.707031 c 0.9375 1.0625 1.378906 2.183593 1.378906 3.324219 c 0 1.136718 -0.445312 2.316406 -1.390624 3.46875 c -0.175782 0.214843 -0.144532 0.527343 0.070312 0.703124 c 0.214844 0.175782 0.527344 0.144532 0.703125 -0.070312 c 1.058594 -1.292969 1.617187 -2.699219 1.617187 -4.101562 c 0 -1.402344 -0.5625 -2.777344 -1.628906 -3.988282 c -0.105468 -0.121094 -0.261718 -0.183594 -0.421875 -0.167968 z m -1.445312 1.214843 c -0.105469 0.003907 -0.207031 0.039063 -0.289063 0.105469 c -0.222656 0.167969 -0.261718 0.480469 -0.09375 0.699219 c 0.585938 0.765625 0.867188 1.488281 0.875 2.195312 c 0.003906 0.703125 -0.253906 1.425781 -0.871094 2.203125 c -0.171874 0.21875 -0.132812 0.53125 0.082032 0.703125 c 0.214844 0.167969 0.53125 0.132813 0.703125 -0.082031 c 0.71875 -0.914062 1.09375 -1.871094 1.085937 -2.835938 c -0.011718 -0.964843 -0.402344 -1.90625 -1.082031 -2.792968 c -0.097656 -0.125 -0.25 -0.199219 -0.410156 -0.195313 z m 0 0"/>
        <path d="m 7.988281 5.996094 l 0.007813 6 c 0 0.195312 -0.109375 0.378906 -0.285156 0.472656 c -0.171876 0.09375 -0.382813 0.082031 -0.546876 -0.027344 l -1.777343 -1.183594 c -0.253907 -0.171874 -0.554688 -0.261718 -0.859375 -0.261718 h -0.519532 c -0.558593 0 -1.007812 -0.453125 -1.007812 -1.007813 v -2.003906 c 0 -0.550781 0.445312 -1 1 -1 h 0.566406 c 0.289063 0 0.574219 -0.085937 0.8125 -0.246094 l 1.777344 -1.1875 c 0.164062 -0.109375 0.375 -0.121093 0.550781 -0.027343 c 0.171875 0.09375 0.28125 0.273437 0.28125 0.472656 z m 0 0"/>
    </g>
</svg>
