<?xml version="1.0" encoding="UTF-8"?>
<svg height="16px" viewBox="0 0 16 16" width="16px" xmlns="http://www.w3.org/2000/svg">
    <g fill="#222222">
        <path d="m 10.046875 12.953125 c 0 -1.074219 -0.570313 -2.0625 -1.5 -2.597656 c -0.925781 -0.539063 -2.070313 -0.539063 -3 0 c -0.925781 0.535156 -1.5 1.523437 -1.5 2.597656" fill-opacity="0.34902"/>
        <path d="m 3.019531 15.996094 c -1.644531 0 -2.9999998 -1.355469 -2.9999998 -3 v -10 c 0 -1.644532 1.3554688 -3.00000025 2.9999998 -3.00000025 h 10 c 1.644531 0 3 1.35546825 3 3.00000025 v 10 c 0 1.644531 -1.355469 3 -3 3 z m 0 -2 h 10 c 0.570313 0 1 -0.429688 1 -1 v -9 h -12 v 9 c 0 0.570312 0.429688 1 1 1 z m 0 0"/>
    </g>
</svg>
